<?xml version="1.0" encoding="utf-8"?>
<svg viewBox="0 0 200 60" xmlns="http://www.w3.org/2000/svg">
  <g fill="none" fill-rule="evenodd" transform="matrix(0.207464, 0, 0, 0.207464, 2.524812, 3.286562)" style="">
    <circle fill="#2B2E3A" cx="128" cy="128" r="128"/>
    <g fill="#9FEAF9" fill-rule="nonzero">
      <path d="M100.502 71.69c-26.005-4.736-46.567.221-54.762 14.415-6.115 10.592-4.367 24.635 4.24 39.646a2.667 2.667 0 1 0 4.626-2.653c-7.752-13.522-9.261-25.641-4.247-34.326 6.808-11.791 25.148-16.213 49.187-11.835a2.667 2.667 0 0 0 .956-5.247zm-36.999 72.307c10.515 11.555 24.176 22.394 39.756 31.388 37.723 21.78 77.883 27.601 97.675 14.106a2.667 2.667 0 1 0-3.005-4.406c-17.714 12.078-55.862 6.548-92.003-14.318-15.114-8.726-28.343-19.222-38.478-30.36a2.667 2.667 0 1 0-3.945 3.59z"/>
      <path d="M194.62 140.753c17.028-20.116 22.973-40.348 14.795-54.512-6.017-10.423-18.738-15.926-35.645-16.146a2.667 2.667 0 0 0-.069 5.333c15.205.198 26.165 4.939 31.096 13.48 6.792 11.765 1.49 29.807-14.248 48.399a2.667 2.667 0 1 0 4.071 3.446zm-43.761-68.175c-15.396 3.299-31.784 9.749-47.522 18.835-38.942 22.483-64.345 55.636-60.817 79.675a2.667 2.667 0 1 0 5.277-.775c-3.133-21.344 20.947-52.769 58.207-74.281 15.267-8.815 31.135-15.06 45.972-18.239a2.667 2.667 0 1 0-1.117-5.215z"/>
      <path d="M87.77 187.753c8.904 24.86 23.469 40.167 39.847 40.167 11.945 0 22.996-8.143 31.614-22.478a2.667 2.667 0 1 0-4.571-2.748c-7.745 12.883-17.258 19.892-27.043 19.892-13.605 0-26.596-13.652-34.825-36.63a2.667 2.667 0 1 0-5.021 1.797zm81.322-4.863c4.61-14.728 7.085-31.718 7.085-49.423 0-44.179-15.463-82.263-37.487-92.042a2.667 2.667 0 0 0-2.164 4.874c19.643 8.723 34.317 44.866 34.317 87.168 0 17.177-2.397 33.63-6.84 47.83a2.667 2.667 0 1 0 5.09 1.593zm50.224-2.612c0-7.049-5.714-12.763-12.763-12.763-7.049 0-12.763 5.714-12.763 12.763 0 7.049 5.714 12.763 12.763 12.763 7.049 0 12.763-5.714 12.763-12.763zm-5.333 0a7.43 7.43 0 1 1-14.86 0 7.43 7.43 0 0 1 14.86 0zM48.497 193.041c7.05 0 12.764-5.714 12.764-12.763 0-7.049-5.715-12.763-12.764-12.763-7.048 0-12.763 5.714-12.763 12.763 0 7.049 5.715 12.763 12.763 12.763zm0-5.333a7.43 7.43 0 1 1 0-14.86 7.43 7.43 0 0 1 0 14.86z"/>
      <path d="M127.617 54.444c7.049 0 12.763-5.714 12.763-12.763 0-7.049-5.714-12.763-12.763-12.763-7.049 0-12.763 5.714-12.763 12.763 0 7.049 5.714 12.763 12.763 12.763zm0-5.333a7.43 7.43 0 1 1 0-14.86 7.43 7.43 0 0 1 0 14.86zm1.949 93.382c-4.985 1.077-9.896-2.091-10.975-7.076a9.236 9.236 0 0 1 7.076-10.976c4.985-1.077 9.896 2.091 10.976 7.076 1.077 4.985-2.091 9.897-7.077 10.976z"/>
    </g>
  </g>
  <path d="M 74.86131286621094 24.09390640258789 L 67.02146911621094 24.09390640258789 L 67.02146911621094 28.31265640258789 L 74.24021911621094 28.31265640258789 Q 75.03709411621094 28.31265640258789 75.42967224121094 28.67007827758789 Q 75.82225036621094 29.02750015258789 75.82225036621094 29.61343765258789 Q 75.82225036621094 30.19937515258789 75.43553161621094 30.56851577758789 Q 75.04881286621094 30.93765640258789 74.24021911621094 30.93765640258789 L 67.02146911621094 30.93765640258789 L 67.02146911621094 35.82437515258789 L 75.13084411621094 35.82437515258789 Q 75.95115661621094 35.82437515258789 76.36717224121094 36.20523452758789 Q 76.78318786621094 36.58609390258789 76.78318786621094 37.21890640258789 Q 76.78318786621094 37.82828140258789 76.36717224121094 38.20914077758789 Q 75.95115661621094 38.59000015258789 75.13084411621094 38.59000015258789 L 65.67381286621094 38.59000015258789 Q 64.53709411621094 38.59000015258789 64.03904724121094 38.08609390258789 Q 63.54100036621094 37.58218765258789 63.54100036621094 36.45718765258789 L 63.54100036621094 23.54312515258789 Q 63.54100036621094 22.79312515258789 63.76365661621094 22.31851577758789 Q 63.98631286621094 21.84390640258789 64.46092224121094 21.62710952758789 Q 64.93553161621094 21.41031265258789 65.67381286621094 21.41031265258789 L 74.86131286621094 21.41031265258789 Q 75.69334411621094 21.41031265258789 76.09764099121094 21.77945327758789 Q 76.50193786621094 22.14859390258789 76.50193786621094 22.74625015258789 Q 76.50193786621094 23.35562515258789 76.09764099121094 23.72476577758789 Q 75.69334411621094 24.09390640258789 74.86131286621094 24.09390640258789 Z M 82.95896911621094 23.22671890258789 L 82.95896911621094 35.73062515258789 L 90.01365661621094 35.73062515258789 Q 90.85740661621094 35.73062515258789 91.30857849121094 36.14078140258789 Q 91.75975036621094 36.55093765258789 91.75975036621094 37.17203140258789 Q 91.75975036621094 37.80484390258789 91.31443786621094 38.19742202758789 Q 90.86912536621094 38.59000015258789 90.01365661621094 38.59000015258789 L 81.61131286621094 38.59000015258789 Q 80.47459411621094 38.59000015258789 79.97654724121094 38.08609390258789 Q 79.47850036621094 37.58218765258789 79.47850036621094 36.45718765258789 L 79.47850036621094 23.22671890258789 Q 79.47850036621094 22.17203140258789 79.95310974121094 21.64468765258789 Q 80.42771911621094 21.11734390258789 81.20115661621094 21.11734390258789 Q 81.98631286621094 21.11734390258789 82.47264099121094 21.63882827758789 Q 82.95896911621094 22.16031265258789 82.95896911621094 23.22671890258789 Z M 105.36521911621094 24.09390640258789 L 97.52537536621094 24.09390640258789 L 97.52537536621094 28.31265640258789 L 104.74412536621094 28.31265640258789 Q 105.54100036621094 28.31265640258789 105.93357849121094 28.67007827758789 Q 106.32615661621094 29.02750015258789 106.32615661621094 29.61343765258789 Q 106.32615661621094 30.19937515258789 105.93943786621094 30.56851577758789 Q 105.55271911621094 30.93765640258789 104.74412536621094 30.93765640258789 L 97.52537536621094 30.93765640258789 L 97.52537536621094 35.82437515258789 L 105.63475036621094 35.82437515258789 Q 106.45506286621094 35.82437515258789 106.87107849121094 36.20523452758789 Q 107.28709411621094 36.58609390258789 107.28709411621094 37.21890640258789 Q 107.28709411621094 37.82828140258789 106.87107849121094 38.20914077758789 Q 106.45506286621094 38.59000015258789 105.63475036621094 38.59000015258789 L 96.17771911621094 38.59000015258789 Q 95.04100036621094 38.59000015258789 94.54295349121094 38.08609390258789 Q 94.04490661621094 37.58218765258789 94.04490661621094 36.45718765258789 L 94.04490661621094 23.54312515258789 Q 94.04490661621094 22.79312515258789 94.26756286621094 22.31851577758789 Q 94.49021911621094 21.84390640258789 94.96482849121094 21.62710952758789 Q 95.43943786621094 21.41031265258789 96.17771911621094 21.41031265258789 L 105.36521911621094 21.41031265258789 Q 106.19725036621094 21.41031265258789 106.60154724121094 21.77945327758789 Q 107.00584411621094 22.14859390258789 107.00584411621094 22.74625015258789 Q 107.00584411621094 23.35562515258789 106.60154724121094 23.72476577758789 Q 106.19725036621094 24.09390640258789 105.36521911621094 24.09390640258789 Z M 124.68943786621094 33.16421890258789 Q 124.68943786621094 33.98453140258789 124.28514099121094 34.93960952758789 Q 123.88084411621094 35.89468765258789 123.01365661621094 36.81460952758789 Q 122.14646911621094 37.73453140258789 120.79881286621094 38.30875015258789 Q 119.45115661621094 38.88296890258789 117.65818786621094 38.88296890258789 Q 116.29881286621094 38.88296890258789 115.18553161621094 38.62515640258789 Q 114.07225036621094 38.36734390258789 113.16404724121094 37.82242202758789 Q 112.25584411621094 37.27750015258789 111.49412536621094 36.38687515258789 Q 110.81443786621094 35.57828140258789 110.33396911621094 34.57632827758789 Q 109.85350036621094 33.57437515258789 109.61326599121094 32.43765640258789 Q 109.37303161621094 31.30093765258789 109.37303161621094 30.02359390258789 Q 109.37303161621094 27.94937515258789 109.97654724121094 26.30875015258789 Q 110.58006286621094 24.66812515258789 111.70506286621094 23.50210952758789 Q 112.83006286621094 22.33609390258789 114.34178161621094 21.72671890258789 Q 115.85350036621094 21.11734390258789 117.56443786621094 21.11734390258789 Q 119.65037536621094 21.11734390258789 121.27928161621094 21.94937515258789 Q 122.90818786621094 22.78140640258789 123.77537536621094 24.00601577758789 Q 124.64256286621094 25.23062515258789 124.64256286621094 26.32046890258789 Q 124.64256286621094 26.91812515258789 124.22068786621094 27.37515640258789 Q 123.79881286621094 27.83218765258789 123.20115661621094 27.83218765258789 Q 122.53318786621094 27.83218765258789 122.19920349121094 27.51578140258789 Q 121.86521911621094 27.19937515258789 121.45506286621094 26.42593765258789 Q 120.77537536621094 25.14859390258789 119.85545349121094 24.51578140258789 Q 118.93553161621094 23.88296890258789 117.58787536621094 23.88296890258789 Q 115.44334411621094 23.88296890258789 114.17185974121094 25.51187515258789 Q 112.90037536621094 27.14078140258789 112.90037536621094 30.14078140258789 Q 112.90037536621094 32.14468765258789 113.46287536621094 33.47476577758789 Q 114.02537536621094 34.80484390258789 115.05662536621094 35.46109390258789 Q 116.08787536621094 36.11734390258789 117.47068786621094 36.11734390258789 Q 118.97068786621094 36.11734390258789 120.00779724121094 35.37320327758789 Q 121.04490661621094 34.62906265258789 121.57225036621094 33.18765640258789 Q 121.79490661621094 32.50796890258789 122.12303161621094 32.08023452758789 Q 122.45115661621094 31.65250015258789 123.17771911621094 31.65250015258789 Q 123.79881286621094 31.65250015258789 124.24412536621094 32.08609390258789 Q 124.68943786621094 32.51968765258789 124.68943786621094 33.16421890258789 Z M 138.97459411621094 24.28140640258789 L 135.17771911621094 24.28140640258789 L 135.17771911621094 36.76187515258789 Q 135.17771911621094 37.84000015258789 134.69725036621094 38.36148452758789 Q 134.21678161621094 38.88296890258789 133.45506286621094 38.88296890258789 Q 132.68162536621094 38.88296890258789 132.19529724121094 38.35562515258789 Q 131.70896911621094 37.82828140258789 131.70896911621094 36.76187515258789 L 131.70896911621094 24.28140640258789 L 127.91209411621094 24.28140640258789 Q 127.02146911621094 24.28140640258789 126.58787536621094 23.88882827758789 Q 126.15428161621094 23.49625015258789 126.15428161621094 22.85171890258789 Q 126.15428161621094 22.18375015258789 126.60545349121094 21.79703140258789 Q 127.05662536621094 21.41031265258789 127.91209411621094 21.41031265258789 L 138.97459411621094 21.41031265258789 Q 139.87693786621094 21.41031265258789 140.31639099121094 21.80875015258789 Q 140.75584411621094 22.20718765258789 140.75584411621094 22.85171890258789 Q 140.75584411621094 23.49625015258789 140.31053161621094 23.88882827758789 Q 139.86521911621094 24.28140640258789 138.97459411621094 24.28140640258789 Z M 147.49412536621094 31.24234390258789 L 146.27537536621094 31.24234390258789 L 146.27537536621094 36.76187515258789 Q 146.27537536621094 37.85171890258789 145.79490661621094 38.36734390258789 Q 145.31443786621094 38.88296890258789 144.54100036621094 38.88296890258789 Q 143.70896911621094 38.88296890258789 143.25193786621094 38.34390640258789 Q 142.79490661621094 37.80484390258789 142.79490661621094 36.76187515258789 L 142.79490661621094 23.54312515258789 Q 142.79490661621094 22.41812515258789 143.29881286621094 21.91421890258789 Q 143.80271911621094 21.41031265258789 144.92771911621094 21.41031265258789 L 150.58787536621094 21.41031265258789 Q 151.75975036621094 21.41031265258789 152.59178161621094 21.50992202758789 Q 153.42381286621094 21.60953140258789 154.09178161621094 21.91421890258789 Q 154.90037536621094 22.25406265258789 155.52146911621094 22.88687515258789 Q 156.14256286621094 23.51968765258789 156.46482849121094 24.35757827758789 Q 156.78709411621094 25.19546890258789 156.78709411621094 26.13296890258789 Q 156.78709411621094 28.05484390258789 155.70310974121094 29.20328140258789 Q 154.61912536621094 30.35171890258789 152.41600036621094 30.83218765258789 Q 153.34178161621094 31.32437515258789 154.18553161621094 32.28531265258789 Q 155.02928161621094 33.24625015258789 155.69139099121094 34.33023452758789 Q 156.35350036621094 35.41421890258789 156.72264099121094 36.28726577758789 Q 157.09178161621094 37.16031265258789 157.09178161621094 37.48843765258789 Q 157.09178161621094 37.82828140258789 156.87498474121094 38.16226577758789 Q 156.65818786621094 38.49625015258789 156.28318786621094 38.68960952758789 Q 155.90818786621094 38.88296890258789 155.41600036621094 38.88296890258789 Q 154.83006286621094 38.88296890258789 154.43162536621094 38.60757827758789 Q 154.03318786621094 38.33218765258789 153.74607849121094 37.91031265258789 Q 153.45896911621094 37.48843765258789 152.96678161621094 36.66812515258789 L 151.57225036621094 34.34781265258789 Q 150.82225036621094 33.07046890258789 150.23045349121094 32.40250015258789 Q 149.63865661621094 31.73453140258789 149.02928161621094 31.48843765258789 Q 148.41990661621094 31.24234390258789 147.49412536621094 31.24234390258789 Z M 149.48631286621094 24.02359390258789 L 146.27537536621094 24.02359390258789 L 146.27537536621094 28.74625015258789 L 149.39256286621094 28.74625015258789 Q 150.64646911621094 28.74625015258789 151.50193786621094 28.52945327758789 Q 152.35740661621094 28.31265640258789 152.80857849121094 27.79117202758789 Q 153.25975036621094 27.26968765258789 153.25975036621094 26.35562515258789 Q 153.25975036621094 25.64078140258789 152.89646911621094 25.09585952758789 Q 152.53318786621094 24.55093765258789 151.88865661621094 24.28140640258789 Q 151.27928161621094 24.02359390258789 149.48631286621094 24.02359390258789 Z M 167.63865661621094 21.11734390258789 Q 170.31053161621094 21.11734390258789 172.22654724121094 22.20132827758789 Q 174.14256286621094 23.28531265258789 175.12693786621094 25.28335952758789 Q 176.11131286621094 27.28140640258789 176.11131286621094 29.97671890258789 Q 176.11131286621094 31.96890640258789 175.57225036621094 33.59781265258789 Q 175.03318786621094 35.22671890258789 173.95506286621094 36.42203140258789 Q 172.87693786621094 37.61734390258789 171.30662536621094 38.25015640258789 Q 169.73631286621094 38.88296890258789 167.70896911621094 38.88296890258789 Q 165.69334411621094 38.88296890258789 164.09959411621094 38.23257827758789 Q 162.50584411621094 37.58218765258789 161.43943786621094 36.39859390258789 Q 160.37303161621094 35.21500015258789 159.82810974121094 33.55093765258789 Q 159.28318786621094 31.88687515258789 159.28318786621094 29.95328140258789 Q 159.28318786621094 27.97281265258789 159.85154724121094 26.32046890258789 Q 160.41990661621094 24.66812515258789 161.49803161621094 23.50796890258789 Q 162.57615661621094 22.34781265258789 164.12303161621094 21.73257827758789 Q 165.66990661621094 21.11734390258789 167.63865661621094 21.11734390258789 Z M 172.58396911621094 29.95328140258789 Q 172.58396911621094 28.06656265258789 171.97459411621094 26.68375015258789 Q 171.36521911621094 25.30093765258789 170.23435974121094 24.59195327758789 Q 169.10350036621094 23.88296890258789 167.63865661621094 23.88296890258789 Q 166.59568786621094 23.88296890258789 165.71092224121094 24.27554702758789 Q 164.82615661621094 24.66812515258789 164.18748474121094 25.41812515258789 Q 163.54881286621094 26.16812515258789 163.17967224121094 27.33414077758789 Q 162.81053161621094 28.50015640258789 162.81053161621094 29.95328140258789 Q 162.81053161621094 31.41812515258789 163.17967224121094 32.60171890258789 Q 163.54881286621094 33.78531265258789 164.22264099121094 34.56460952758789 Q 164.89646911621094 35.34390640258789 165.76951599121094 35.73062515258789 Q 166.64256286621094 36.11734390258789 167.68553161621094 36.11734390258789 Q 169.02146911621094 36.11734390258789 170.14060974121094 35.44937515258789 Q 171.25975036621094 34.78140640258789 171.92185974121094 33.38687515258789 Q 172.58396911621094 31.99234390258789 172.58396911621094 29.95328140258789 Z M 183.62303161621094 23.20328140258789 L 190.31443786621094 33.32828140258789 L 190.31443786621094 23.10953140258789 Q 190.31443786621094 22.11343765258789 190.74217224121094 21.61539077758789 Q 191.16990661621094 21.11734390258789 191.89646911621094 21.11734390258789 Q 192.64646911621094 21.11734390258789 193.08006286621094 21.61539077758789 Q 193.51365661621094 22.11343765258789 193.51365661621094 23.10953140258789 L 193.51365661621094 36.62125015258789 Q 193.51365661621094 38.88296890258789 191.63865661621094 38.88296890258789 Q 191.16990661621094 38.88296890258789 190.79490661621094 38.74820327758789 Q 190.41990661621094 38.61343765258789 190.09178161621094 38.32046890258789 Q 189.76365661621094 38.02750015258789 189.48240661621094 37.63492202758789 Q 189.20115661621094 37.24234390258789 188.91990661621094 36.83218765258789 L 182.39256286621094 26.82437515258789 L 182.39256286621094 36.89078140258789 Q 182.39256286621094 37.87515640258789 181.93553161621094 38.37906265258789 Q 181.47850036621094 38.88296890258789 180.76365661621094 38.88296890258789 Q 180.02537536621094 38.88296890258789 179.58006286621094 38.37320327758789 Q 179.13475036621094 37.86343765258789 179.13475036621094 36.89078140258789 L 179.13475036621094 23.63687515258789 Q 179.13475036621094 22.79312515258789 179.32225036621094 22.31265640258789 Q 179.54490661621094 21.78531265258789 180.06053161621094 21.45132827758789 Q 180.57615661621094 21.11734390258789 181.17381286621094 21.11734390258789 Q 181.64256286621094 21.11734390258789 181.97654724121094 21.26968765258789 Q 182.31053161621094 21.42203140258789 182.56248474121094 21.67984390258789 Q 182.81443786621094 21.93765640258789 183.07810974121094 22.34781265258789 Q 183.34178161621094 22.75796890258789 183.62303161621094 23.20328140258789 Z" transform="matrix(1, 0, 0, 1, 0, 0)" style="fill: rgb(51, 51, 51); white-space: pre;"/>
</svg>