<?xml version="1.0" encoding="utf-8"?>
<svg viewBox="0 0 200 60" xmlns="http://www.w3.org/2000/svg">
  <text style="fill: rgb(51, 51, 51); font-family: &quot;Fira Code&quot;; font-size: 7.1px; letter-spacing: 3.9px; white-space: pre;" x="10.194999694824219" y="38.733001708984375"><tspan> </tspan></text>
  <text style="white-space: pre; fill: rgb(51, 51, 51); font-family: Arial, sans-serif; font-size: 6px;" x="52.842" y="48.886"> </text>
  <path d="M 45.718 52.154 C 45.54 52.266 45.484 52.342 45.642 52.256 C 45.754 52.19 45.937 52.052 45.907 52.048 C 45.891 52.048 45.805 52.098 45.718 52.154 Z M 45.367 52.383 C 45.276 52.454 45.276 52.46 45.387 52.403 C 45.449 52.373 45.499 52.337 45.499 52.327 C 45.499 52.287 45.474 52.297 45.367 52.383 Z M 45.113 52.536 C 45.021 52.607 45.021 52.612 45.133 52.556 C 45.194 52.526 45.245 52.49 45.245 52.48 C 45.245 52.439 45.22 52.449 45.113 52.536 Z M 44.859 52.688 C 44.767 52.76 44.767 52.765 44.879 52.709 C 44.94 52.678 44.991 52.642 44.991 52.633 C 44.991 52.592 44.965 52.602 44.859 52.688 Z M 44.472 52.892 C 44.278 52.994 44.289 53.034 44.482 52.938 C 44.569 52.892 44.635 52.846 44.635 52.836 C 44.635 52.8 44.629 52.806 44.472 52.892 Z" style=""/>
  <g transform="matrix(0.13306, 0, 0, 0.13306, 10.962648, 3.595782)" style="">
    <g>
      <g>
        <rect x="122" y="-0.4" transform="matrix(-0.866 -0.5 0.5 -0.866 163.3196 363.3136)" fill="#E535AB" width="16.6" height="320.3"/>
      </g>
    </g>
    <g>
      <g>
        <rect x="39.8" y="272.2" fill="#E535AB" width="320.3" height="16.6"/>
      </g>
    </g>
    <g>
      <g>
        <rect x="37.9" y="312.2" transform="matrix(-0.866 -0.5 0.5 -0.866 83.0693 663.3409)" fill="#E535AB" width="185" height="16.6"/>
      </g>
    </g>
    <g>
      <g>
        <rect x="177.1" y="71.1" transform="matrix(-0.866 -0.5 0.5 -0.866 463.3409 283.0693)" fill="#E535AB" width="185" height="16.6"/>
      </g>
    </g>
    <g>
      <g>
        <rect x="122.1" y="-13" transform="matrix(-0.5 -0.866 0.866 -0.5 126.7903 232.1221)" fill="#E535AB" width="16.6" height="185"/>
      </g>
    </g>
    <g>
      <g>
        <rect x="109.6" y="151.6" transform="matrix(-0.5 -0.866 0.866 -0.5 266.0828 473.3766)" fill="#E535AB" width="320.3" height="16.6"/>
      </g>
    </g>
    <g>
      <g>
        <rect x="52.5" y="107.5" fill="#E535AB" width="16.6" height="185"/>
      </g>
    </g>
    <g>
      <g>
        <rect x="330.9" y="107.5" fill="#E535AB" width="16.6" height="185"/>
      </g>
    </g>
    <g>
      <g>
        <rect x="262.4" y="240.1" transform="matrix(-0.5 -0.866 0.866 -0.5 126.7953 714.2875)" fill="#E535AB" width="14.5" height="160.9"/>
      </g>
    </g>
    <path fill="#E535AB" d="M369.5,297.9c-9.6,16.7-31,22.4-47.7,12.8c-16.7-9.6-22.4-31-12.8-47.7c9.6-16.7,31-22.4,47.7-12.8 C373.5,259.9,379.2,281.2,369.5,297.9"/>
    <path fill="#E535AB" d="M90.9,137c-9.6,16.7-31,22.4-47.7,12.8c-16.7-9.6-22.4-31-12.8-47.7c9.6-16.7,31-22.4,47.7-12.8 C94.8,99,100.5,120.3,90.9,137"/>
    <path fill="#E535AB" d="M30.5,297.9c-9.6-16.7-3.9-38,12.8-47.7c16.7-9.6,38-3.9,47.7,12.8c9.6,16.7,3.9,38-12.8,47.7 C61.4,320.3,40.1,314.6,30.5,297.9"/>
    <path fill="#E535AB" d="M309.1,137c-9.6-16.7-3.9-38,12.8-47.7c16.7-9.6,38-3.9,47.7,12.8c9.6,16.7,3.9,38-12.8,47.7 C340.1,159.4,318.7,153.7,309.1,137"/>
    <path fill="#E535AB" d="M200,395.8c-19.3,0-34.9-15.6-34.9-34.9c0-19.3,15.6-34.9,34.9-34.9c19.3,0,34.9,15.6,34.9,34.9 C234.9,380.1,219.3,395.8,200,395.8"/>
    <path fill="#E535AB" d="M200,74c-19.3,0-34.9-15.6-34.9-34.9c0-19.3,15.6-34.9,34.9-34.9c19.3,0,34.9,15.6,34.9,34.9 C234.9,58.4,219.3,74,200,74"/>
  </g>
  <text style="fill: rgb(229, 53, 171); font-family: &quot;JetBrains Mono&quot;; font-size: 26px; white-space: pre;" x="76.139" y="39.025">GraphQL</text>
</svg>