<?xml version="1.0" encoding="utf-8"?>
<svg viewBox="0 0 200 60" xmlns="http://www.w3.org/2000/svg">
  <path transform="matrix(1, 0, 0, 1, 0, 0)" style="fill: rgb(51, 51, 51); white-space: pre;"/>
  <path transform="matrix(1, 0, 0, 1, 0, 0)" style="fill: rgb(51, 51, 51); white-space: pre;"/>
  <path d="M 45.718 52.154 C 45.54 52.266 45.484 52.342 45.642 52.256 C 45.754 52.19 45.937 52.052 45.907 52.048 C 45.891 52.048 45.805 52.098 45.718 52.154 Z M 45.367 52.383 C 45.276 52.454 45.276 52.46 45.387 52.403 C 45.449 52.373 45.499 52.337 45.499 52.327 C 45.499 52.287 45.474 52.297 45.367 52.383 Z M 45.113 52.536 C 45.021 52.607 45.021 52.612 45.133 52.556 C 45.194 52.526 45.245 52.49 45.245 52.48 C 45.245 52.439 45.22 52.449 45.113 52.536 Z M 44.859 52.688 C 44.767 52.76 44.767 52.765 44.879 52.709 C 44.94 52.678 44.991 52.642 44.991 52.633 C 44.991 52.592 44.965 52.602 44.859 52.688 Z M 44.472 52.892 C 44.278 52.994 44.289 53.034 44.482 52.938 C 44.569 52.892 44.635 52.846 44.635 52.836 C 44.635 52.8 44.629 52.806 44.472 52.892 Z" style=""/>
  <g transform="matrix(0.13306, 0, 0, 0.13306, 10.962648, 3.595782)" style="">
    <g>
      <g>
        <rect x="122" y="-0.4" transform="matrix(-0.866 -0.5 0.5 -0.866 163.3196 363.3136)" fill="#E535AB" width="16.6" height="320.3"/>
      </g>
    </g>
    <g>
      <g>
        <rect x="39.8" y="272.2" fill="#E535AB" width="320.3" height="16.6"/>
      </g>
    </g>
    <g>
      <g>
        <rect x="37.9" y="312.2" transform="matrix(-0.866 -0.5 0.5 -0.866 83.0693 663.3409)" fill="#E535AB" width="185" height="16.6"/>
      </g>
    </g>
    <g>
      <g>
        <rect x="177.1" y="71.1" transform="matrix(-0.866 -0.5 0.5 -0.866 463.3409 283.0693)" fill="#E535AB" width="185" height="16.6"/>
      </g>
    </g>
    <g>
      <g>
        <rect x="122.1" y="-13" transform="matrix(-0.5 -0.866 0.866 -0.5 126.7903 232.1221)" fill="#E535AB" width="16.6" height="185"/>
      </g>
    </g>
    <g>
      <g>
        <rect x="109.6" y="151.6" transform="matrix(-0.5 -0.866 0.866 -0.5 266.0828 473.3766)" fill="#E535AB" width="320.3" height="16.6"/>
      </g>
    </g>
    <g>
      <g>
        <rect x="52.5" y="107.5" fill="#E535AB" width="16.6" height="185"/>
      </g>
    </g>
    <g>
      <g>
        <rect x="330.9" y="107.5" fill="#E535AB" width="16.6" height="185"/>
      </g>
    </g>
    <g>
      <g>
        <rect x="262.4" y="240.1" transform="matrix(-0.5 -0.866 0.866 -0.5 126.7953 714.2875)" fill="#E535AB" width="14.5" height="160.9"/>
      </g>
    </g>
    <path fill="#E535AB" d="M369.5,297.9c-9.6,16.7-31,22.4-47.7,12.8c-16.7-9.6-22.4-31-12.8-47.7c9.6-16.7,31-22.4,47.7-12.8 C373.5,259.9,379.2,281.2,369.5,297.9"/>
    <path fill="#E535AB" d="M90.9,137c-9.6,16.7-31,22.4-47.7,12.8c-16.7-9.6-22.4-31-12.8-47.7c9.6-16.7,31-22.4,47.7-12.8 C94.8,99,100.5,120.3,90.9,137"/>
    <path fill="#E535AB" d="M30.5,297.9c-9.6-16.7-3.9-38,12.8-47.7c16.7-9.6,38-3.9,47.7,12.8c9.6,16.7,3.9,38-12.8,47.7 C61.4,320.3,40.1,314.6,30.5,297.9"/>
    <path fill="#E535AB" d="M309.1,137c-9.6-16.7-3.9-38,12.8-47.7c16.7-9.6,38-3.9,47.7,12.8c9.6,16.7,3.9,38-12.8,47.7 C340.1,159.4,318.7,153.7,309.1,137"/>
    <path fill="#E535AB" d="M200,395.8c-19.3,0-34.9-15.6-34.9-34.9c0-19.3,15.6-34.9,34.9-34.9c19.3,0,34.9,15.6,34.9,34.9 C234.9,380.1,219.3,395.8,200,395.8"/>
    <path fill="#E535AB" d="M200,74c-19.3,0-34.9-15.6-34.9-34.9c0-19.3,15.6-34.9,34.9-34.9c19.3,0,34.9,15.6,34.9,34.9 C234.9,58.4,219.3,74,200,74"/>
  </g>
  <path d="M 78.21899993896484 33.69500152587891 L 78.21899993896484 25.635001525878906 Q 78.21899993896484 24.387001525878905 78.63499993896484 23.347001525878905 Q 79.05099993896485 22.307001525878906 79.79199993896485 21.579001525878905 Q 80.53299993896485 20.851001525878903 81.59899993896485 20.448001525878905 Q 82.66499993896484 20.045001525878906 83.93899993896484 20.045001525878906 Q 86.30499993896484 20.045001525878906 87.81299993896485 21.241001525878904 Q 89.32099993896485 22.437001525878905 89.78899993896485 24.725001525878906 L 87.39699993896484 24.725001525878906 Q 87.13699993896485 23.503001525878904 86.22699993896484 22.814001525878904 Q 85.31699993896484 22.125001525878904 83.93899993896484 22.125001525878904 Q 82.37899993896484 22.125001525878904 81.46899993896484 23.061001525878904 Q 80.55899993896485 23.997001525878908 80.55899993896485 25.635001525878906 L 80.55899993896485 33.69500152587891 Q 80.55899993896485 35.333001525878906 81.46899993896484 36.269001525878906 Q 82.37899993896484 37.205001525878906 83.93899993896484 37.205001525878906 Q 85.49899993896484 37.205001525878906 86.40899993896484 36.269001525878906 Q 87.31899993896485 35.333001525878906 87.31899993896485 33.69500152587891 L 87.31899993896485 31.485001525878907 L 83.52299993896484 31.485001525878907 L 83.52299993896484 29.405001525878905 L 89.65899993896484 29.405001525878905 L 89.65899993896484 33.69500152587891 Q 89.65899993896484 34.96900152587891 89.25599993896485 36.00900152587891 Q 88.85299993896484 37.04900152587891 88.11199993896484 37.77700152587891 Q 87.37099993896484 38.5050015258789 86.31799993896485 38.895001525878904 Q 85.26499993896485 39.285001525878904 83.93899993896484 39.285001525878904 Q 82.63899993896484 39.285001525878904 81.57299993896484 38.895001525878904 Q 80.50699993896484 38.5050015258789 79.76599993896484 37.77700152587891 Q 79.02499993896484 37.04900152587891 78.62199993896485 36.00900152587891 Q 78.21899993896484 34.96900152587891 78.21899993896484 33.69500152587891 Z M 96.86099841308594 24.725001525878906 L 96.86099841308594 27.195001525878904 L 97.06899841308594 27.195001525878904 Q 97.40699841308594 25.921001525878907 98.47299841308593 25.193001525878906 Q 99.53899841308593 24.465001525878904 101.09899841308594 24.465001525878904 Q 103.36099841308594 24.465001525878904 104.64799841308594 25.882001525878906 Q 105.93499841308594 27.299001525878907 105.93499841308594 29.769001525878906 L 105.93499841308594 30.575001525878903 L 103.59499841308593 30.575001525878903 L 103.59499841308593 30.055001525878907 Q 103.59499841308593 28.365001525878906 102.74999841308593 27.442001525878908 Q 101.90499841308593 26.519001525878906 100.34499841308593 26.519001525878906 Q 98.81099841308594 26.519001525878906 97.90099841308594 27.468001525878904 Q 96.99099841308593 28.417001525878906 96.99099841308593 30.055001525878907 L 96.99099841308593 39.025001525878906 L 94.65099841308594 39.025001525878906 L 94.65099841308594 24.725001525878906 Z M 108.97699688720704 34.86500152587891 Q 108.97699688720704 33.85100152587891 109.32799688720704 33.032001525878904 Q 109.67899688720703 32.21300152587891 110.34199688720703 31.641001525878906 Q 111.00499688720703 31.069001525878907 111.94099688720704 30.757001525878906 Q 112.87699688720703 30.445001525878908 114.04699688720703 30.445001525878908 L 118.31099688720704 30.445001525878908 L 118.31099688720704 29.275001525878906 Q 118.31099688720704 27.949001525878906 117.43999688720703 27.208001525878906 Q 116.56899688720704 26.467001525878906 114.93099688720703 26.467001525878906 Q 113.73499688720703 26.467001525878906 112.88999688720703 26.909001525878907 Q 112.04499688720703 27.351001525878907 111.75899688720703 28.131001525878908 L 109.41899688720703 28.131001525878908 Q 109.78299688720703 26.441001525878903 111.27799688720704 25.453001525878904 Q 112.77299688720703 24.465001525878904 114.98299688720704 24.465001525878904 Q 117.63499688720704 24.465001525878904 119.14299688720703 25.700001525878903 Q 120.65099688720703 26.935001525878903 120.65099688720703 29.145001525878904 L 120.65099688720703 39.025001525878906 L 118.51899688720704 39.025001525878906 L 118.51899688720704 36.2950015258789 L 118.31099688720704 36.2950015258789 Q 117.97299688720703 37.67300152587891 116.72499688720703 38.47900152587891 Q 115.47699688720704 39.285001525878904 113.68299688720703 39.285001525878904 Q 111.52499688720704 39.285001525878904 110.25099688720704 38.089001525878906 Q 108.97699688720704 36.89300152587891 108.97699688720704 34.86500152587891 Z M 111.31699688720703 34.8130015258789 Q 111.31699688720703 36.00900152587891 112.07099688720703 36.6850015258789 Q 112.82499688720704 37.361001525878905 114.20299688720704 37.361001525878905 Q 115.08699688720704 37.361001525878905 115.84099688720703 37.1270015258789 Q 116.59499688720703 36.89300152587891 117.14099688720704 36.464001525878906 Q 117.68699688720703 36.035001525878904 117.99899688720703 35.46300152587891 Q 118.31099688720704 34.891001525878906 118.31099688720704 34.215001525878904 L 118.31099688720704 32.26500152587891 L 114.09899688720704 32.26500152587891 Q 112.79899688720704 32.26500152587891 112.05799688720703 32.9410015258789 Q 111.31699688720703 33.617001525878905 111.31699688720703 34.8130015258789 Z M 125.22699536132812 24.725001525878906 L 127.43699536132813 24.725001525878906 L 127.43699536132813 27.195001525878904 L 127.64499536132813 27.195001525878904 Q 127.98299536132812 25.895001525878904 129.02299536132813 25.180001525878907 Q 130.06299536132812 24.465001525878904 131.64899536132813 24.465001525878904 Q 132.74099536132812 24.465001525878904 133.62499536132813 24.855001525878905 Q 134.50899536132812 25.245001525878905 135.1329953613281 25.960001525878905 Q 135.75699536132814 26.675001525878905 136.10799536132814 27.715001525878904 Q 136.45899536132814 28.755001525878903 136.45899536132814 30.055001525878907 L 136.45899536132814 33.69500152587891 Q 136.45899536132814 34.995001525878905 136.10799536132814 36.035001525878904 Q 135.75699536132814 37.0750015258789 135.1329953613281 37.79000152587891 Q 134.50899536132812 38.5050015258789 133.62499536132813 38.895001525878904 Q 132.74099536132812 39.285001525878904 131.64899536132813 39.285001525878904 Q 130.06299536132812 39.285001525878904 129.02299536132813 38.57000152587891 Q 127.98299536132812 37.855001525878905 127.64499536132813 36.55500152587891 L 127.43699536132813 36.55500152587891 Q 127.46299536132813 36.99700152587891 127.51499536132812 37.43900152587891 Q 127.54099536132813 37.82900152587891 127.55399536132812 38.245001525878905 Q 127.56699536132813 38.66100152587891 127.56699536132813 39.025001525878906 L 127.56699536132813 43.44500152587891 L 125.22699536132812 43.44500152587891 Z M 127.56699536132813 30.055001525878907 L 127.56699536132813 33.69500152587891 Q 127.56699536132813 35.333001525878906 128.43799536132812 36.2950015258789 Q 129.30899536132813 37.257001525878906 130.76499536132812 37.257001525878906 Q 132.32499536132812 37.257001525878906 133.22199536132814 36.2950015258789 Q 134.11899536132813 35.333001525878906 134.11899536132813 33.69500152587891 L 134.11899536132813 30.055001525878907 Q 134.11899536132813 28.365001525878906 133.23499536132812 27.429001525878903 Q 132.35099536132813 26.493001525878903 130.76499536132812 26.493001525878903 Q 129.30899536132813 26.493001525878903 128.43799536132812 27.455001525878906 Q 127.56699536132813 28.417001525878906 127.56699536132813 30.055001525878907 Z M 140.82700146484376 39.025001525878906 L 140.82700146484376 20.305001525878904 L 143.16700146484374 20.305001525878904 L 143.16700146484374 24.725001525878906 Q 143.16700146484374 25.089001525878906 143.15400146484376 25.518001525878905 Q 143.14100146484375 25.947001525878903 143.11500146484374 26.311001525878908 Q 143.06300146484375 26.753001525878908 143.03700146484374 27.195001525878904 L 143.24500146484374 27.195001525878904 Q 143.58300146484376 25.895001525878904 144.61000146484375 25.180001525878907 Q 145.63700146484376 24.465001525878904 147.17100146484376 24.465001525878904 Q 148.23700146484376 24.465001525878904 149.10800146484374 24.829001525878905 Q 149.97900146484375 25.193001525878906 150.59000146484374 25.856001525878906 Q 151.20100146484376 26.519001525878906 151.53900146484375 27.442001525878908 Q 151.87700146484374 28.365001525878906 151.87700146484374 29.509001525878908 L 151.87700146484374 39.025001525878906 L 149.53700146484374 39.025001525878906 L 149.53700146484374 29.899001525878905 Q 149.53700146484374 28.261001525878903 148.70500146484375 27.351001525878907 Q 147.87300146484375 26.441001525878903 146.39100146484375 26.441001525878903 Q 144.90900146484375 26.441001525878903 144.03800146484375 27.416001525878904 Q 143.16700146484374 28.391001525878906 143.16700146484374 30.055001525878907 L 143.16700146484374 39.025001525878906 Z M 156.21899230957033 33.69500152587891 L 156.21899230957033 25.635001525878906 Q 156.21899230957033 24.361001525878905 156.62199230957032 23.321001525878906 Q 157.0249923095703 22.281001525878906 157.76599230957032 21.553001525878905 Q 158.5069923095703 20.825001525878903 159.5599923095703 20.435001525878906 Q 160.6129923095703 20.045001525878906 161.93899230957032 20.045001525878906 Q 163.26499230957032 20.045001525878906 164.31799230957031 20.435001525878906 Q 165.3709923095703 20.825001525878903 166.11199230957033 21.553001525878905 Q 166.8529923095703 22.281001525878906 167.2559923095703 23.321001525878906 Q 167.65899230957032 24.361001525878905 167.65899230957032 25.635001525878906 L 167.65899230957032 33.69500152587891 Q 167.65899230957032 35.46300152587891 166.9049923095703 36.75000152587891 Q 166.1509923095703 38.03700152587891 164.77299230957033 38.687001525878905 L 167.8149923095703 43.315001525878905 L 165.11099230957032 43.315001525878905 L 162.43299230957032 39.25900152587891 Q 162.35499230957032 39.285001525878904 162.22499230957033 39.285001525878904 Q 162.0949923095703 39.285001525878904 161.93899230957032 39.285001525878904 Q 160.6129923095703 39.285001525878904 159.5599923095703 38.895001525878904 Q 158.5069923095703 38.5050015258789 157.76599230957032 37.77700152587891 Q 157.0249923095703 37.04900152587891 156.62199230957032 36.00900152587891 Q 156.21899230957033 34.96900152587891 156.21899230957033 33.69500152587891 Z M 161.93899230957032 37.205001525878906 Q 163.49899230957033 37.205001525878906 164.40899230957032 36.25600152587891 Q 165.31899230957032 35.3070015258789 165.31899230957032 33.69500152587891 L 165.31899230957032 25.635001525878906 Q 165.31899230957032 24.023001525878904 164.40899230957032 23.074001525878906 Q 163.49899230957033 22.125001525878904 161.93899230957032 22.125001525878904 Q 160.37899230957032 22.125001525878904 159.46899230957033 23.074001525878906 Q 158.5589923095703 24.023001525878904 158.5589923095703 25.635001525878906 L 158.5589923095703 33.69500152587891 Q 158.5589923095703 35.3070015258789 159.46899230957033 36.25600152587891 Q 160.37899230957032 37.205001525878906 161.93899230957032 37.205001525878906 Z M 174.80898315429687 20.305001525878904 L 174.80898315429687 36.89300152587891 L 183.64898315429687 36.89300152587891 L 183.64898315429687 39.025001525878906 L 172.46898315429686 39.025001525878906 L 172.46898315429686 20.305001525878904 Z" transform="matrix(1, 0, 0, 1, 0, 0)" style="fill: rgb(229, 53, 171); white-space: pre;"/>
</svg>