<?xml version="1.0" encoding="utf-8"?>
<svg viewBox="0 0 200 60" xmlns="http://www.w3.org/2000/svg">
  <text style="fill: rgb(51, 51, 51); font-family: &quot;Fira Code&quot;; font-size: 7.1px; letter-spacing: 3.9px; white-space: pre;" x="10.194999694824219" y="38.733001708984375"><tspan> </tspan></text>
  <text style="white-space: pre; fill: rgb(51, 51, 51); font-family: Arial, sans-serif; font-size: 7.1px;" x="222.527" y="96.084"> </text>
  <text style="white-space: pre; fill: rgb(51, 51, 51); font-family: Arial, sans-serif; font-size: 6px;" x="52.842" y="48.886"> </text>
  <title>TypeScript logo</title>
  <path d="M 45.718 52.154 C 45.54 52.266 45.484 52.342 45.642 52.256 C 45.754 52.19 45.937 52.052 45.907 52.048 C 45.891 52.048 45.805 52.098 45.718 52.154 Z M 45.367 52.383 C 45.276 52.454 45.276 52.46 45.387 52.403 C 45.449 52.373 45.499 52.337 45.499 52.327 C 45.499 52.287 45.474 52.297 45.367 52.383 Z M 45.113 52.536 C 45.021 52.607 45.021 52.612 45.133 52.556 C 45.194 52.526 45.245 52.49 45.245 52.48 C 45.245 52.439 45.22 52.449 45.113 52.536 Z M 44.859 52.688 C 44.767 52.76 44.767 52.765 44.879 52.709 C 44.94 52.678 44.991 52.642 44.991 52.633 C 44.991 52.592 44.965 52.602 44.859 52.688 Z M 44.472 52.892 C 44.278 52.994 44.289 53.034 44.482 52.938 C 44.569 52.892 44.635 52.846 44.635 52.836 C 44.635 52.8 44.629 52.806 44.472 52.892 Z" style=""/>
  <title>next-black</title>
  <desc>Created with Sketch.</desc>
  <text style="font-size: 36; font-family: Roboto; white-space: pre;" transform="matrix(1, 0, 0, 1, -476.191858, 27.793342)"> </text>
  <path class="st0" d="M 88.948 29.424 C 88.937 26.355 86.75 23.68 83.602 22.904 L 90.452 3.825 L 56.481 3.825 L 63.354 22.969 C 60.301 23.812 58.206 26.442 58.206 29.446 C 58.206 31.706 59.398 33.705 61.238 34.928 C 60.521 35.889 59.687 36.774 58.75 37.625 C 56.98 39.188 55.025 40.4 52.896 41.197 C 50.986 39.974 50.153 37.823 50.907 35.901 C 53.808 35.06 55.938 32.472 55.938 29.456 C 55.927 25.744 52.745 22.73 48.812 22.73 C 44.864 22.73 41.671 25.755 41.671 29.468 C 41.671 31.302 42.47 32.984 43.745 34.197 L 43.409 34.841 C 42.344 36.916 41.128 39.264 40.667 41.896 C 39.74 47.149 41.256 51.398 44.912 53.789 C 46.972 55.132 49.227 55.809 51.669 55.809 C 55.858 55.809 60.116 53.822 64.234 51.899 C 67.173 50.523 70.193 49.103 73.189 48.404 C 74.277 48.153 75.434 48 76.648 47.836 C 79.103 47.498 81.636 47.161 83.915 45.915 C 86.577 44.452 88.393 42.016 88.925 39.22 C 89.33 37.069 88.925 34.906 87.907 33.006 C 88.611 31.936 88.982 30.701 88.972 29.436 L 88.948 29.424 Z M 85.836 29.424 C 85.836 31.51 84.02 33.214 81.82 33.214 C 79.588 33.192 77.794 31.466 77.818 29.359 C 77.828 28.726 78.003 28.092 78.327 27.535 C 78.453 27.327 78.616 27.109 78.779 26.935 C 78.94 26.749 79.137 26.585 79.334 26.432 L 79.344 26.422 C 79.472 26.333 79.61 26.236 79.762 26.147 C 79.841 26.104 79.912 26.06 79.969 26.028 C 79.981 26.028 80.004 26.017 80.017 26.017 C 80.085 25.983 80.166 25.951 80.235 25.929 C 80.317 25.896 80.398 25.864 80.456 25.842 C 80.466 25.842 80.491 25.831 80.501 25.831 C 80.571 25.821 80.629 25.787 80.698 25.767 C 80.711 25.767 80.745 25.755 80.768 25.755 L 80.987 25.712 L 81 25.712 L 81.242 25.668 C 81.254 25.668 81.289 25.668 81.313 25.657 C 81.382 25.657 81.439 25.645 81.508 25.645 L 81.589 25.645 C 81.67 25.645 81.751 25.635 81.833 25.635 L 82.041 25.635 C 82.099 25.635 82.156 25.635 82.214 25.645 L 82.248 25.645 C 82.376 25.657 82.504 25.678 82.632 25.712 C 84.493 26.092 85.836 27.645 85.836 29.446 L 85.836 29.424 Z M 60.926 6.829 L 86.009 6.829 L 80.259 22.86 C 80.017 22.904 79.784 22.981 79.541 23.058 L 73.478 11.404 L 67.404 22.981 C 67.162 22.904 66.907 22.86 66.652 22.817 L 60.926 6.829 Z M 72.334 28.114 C 72.044 26.727 71.281 25.46 70.18 24.499 L 73.478 18.208 L 76.811 24.63 C 75.828 25.558 75.121 26.749 74.821 28.103 L 72.334 28.114 Z M 64.337 25.732 L 64.558 25.69 L 64.605 25.69 C 64.674 25.678 64.731 25.678 64.802 25.657 L 64.87 25.657 C 64.939 25.657 64.987 25.645 65.044 25.645 L 65.669 25.645 C 65.738 25.645 65.785 25.657 65.83 25.657 C 65.866 25.657 65.878 25.657 65.912 25.668 C 65.982 25.678 66.027 25.678 66.085 25.7 C 66.098 25.7 66.119 25.7 66.155 25.712 L 66.374 25.755 C 66.444 25.767 66.513 25.787 66.584 25.821 C 66.595 25.821 66.618 25.831 66.652 25.831 C 66.7 25.842 66.769 25.864 66.815 25.896 C 66.826 25.896 66.849 25.908 66.861 25.908 C 66.929 25.941 66.987 25.951 67.057 25.983 L 67.069 25.983 C 67.138 26.005 67.207 26.05 67.278 26.092 C 67.358 26.126 67.428 26.169 67.486 26.202 C 67.496 26.202 67.496 26.213 67.52 26.213 C 67.589 26.246 67.635 26.29 67.694 26.323 L 67.706 26.333 C 67.891 26.476 68.075 26.618 68.249 26.77 L 68.261 26.781 C 68.423 26.945 68.574 27.131 68.711 27.327 C 69.14 27.95 69.371 28.671 69.36 29.403 C 69.36 31.488 67.543 33.192 65.346 33.192 C 63.136 33.182 61.341 31.488 61.33 29.403 C 61.295 27.645 62.591 26.147 64.337 25.732 L 64.337 25.732 Z M 48.649 25.623 C 50.86 25.623 52.665 27.338 52.665 29.414 C 52.652 31.5 50.86 33.192 48.649 33.202 C 46.439 33.192 44.646 31.5 44.636 29.414 C 44.646 27.327 46.439 25.645 48.649 25.623 Z M 85.731 38.674 C 85.374 40.597 84.122 42.289 82.273 43.294 C 80.535 44.244 78.396 44.539 76.151 44.844 C 74.925 45.008 73.63 45.194 72.403 45.477 C 69.084 46.243 65.901 47.761 62.81 49.19 C 58.855 51.036 55.128 52.785 51.682 52.785 C 49.864 52.785 48.267 52.303 46.741 51.299 C 43.212 48.994 43.384 44.725 43.813 42.376 C 44.195 40.18 45.271 38.116 46.289 36.151 C 46.359 36.032 46.405 35.921 46.462 35.802 C 46.82 35.921 47.191 36.01 47.561 36.075 C 46.959 39.264 48.673 42.562 52.039 44.189 L 52.641 44.494 L 53.288 44.266 C 56.077 43.338 58.657 41.808 60.936 39.778 C 62.198 38.664 63.309 37.419 64.258 36.064 C 64.616 36.119 64.987 36.141 65.346 36.141 C 68.597 36.129 71.43 34.065 72.253 31.095 L 74.925 31.095 C 75.723 34 78.512 36.141 81.833 36.141 C 83.105 36.141 84.343 35.812 85.431 35.211 C 85.847 36.337 85.975 37.516 85.755 38.684 L 85.731 38.674 Z M 111.29 37.037 C 111.07 37.724 110.7 38.369 110.19 38.903 C 109.682 39.449 108.998 39.887 108.132 40.213 C 107.275 40.542 106.223 40.716 104.962 40.716 C 102.856 40.716 101.235 40.192 100.102 39.155 C 98.967 38.116 98.412 36.566 98.412 34.546 L 98.412 33.246 L 101.421 33.246 L 101.421 34.164 C 101.408 34.742 101.467 35.31 101.582 35.878 C 101.698 36.402 101.871 36.839 102.138 37.223 C 102.415 37.603 102.798 37.91 103.237 38.106 C 103.711 38.314 104.325 38.423 105.054 38.423 C 106.43 38.423 107.356 38.074 107.889 37.397 C 108.397 36.709 108.675 35.769 108.675 34.601 L 108.675 18.918 L 111.671 18.918 L 111.671 34.928 C 111.648 35.65 111.522 36.359 111.29 37.037 L 111.29 37.037 Z M 127.695 39.252 C 126.469 40.126 124.942 40.564 123.068 40.564 C 121.762 40.564 120.626 40.366 119.667 39.962 C 118.73 39.592 117.908 39.012 117.248 38.292 C 116.6 37.571 116.103 36.73 115.78 35.715 C 115.443 34.72 115.269 33.64 115.225 32.46 C 115.225 31.281 115.42 30.222 115.803 29.238 C 116.16 28.3 116.694 27.437 117.399 26.694 C 118.069 25.973 118.904 25.405 119.84 25.023 C 120.778 24.63 121.795 24.422 122.917 24.422 C 124.376 24.422 125.58 24.706 126.552 25.274 C 127.523 25.842 128.274 26.573 128.852 27.437 C 129.433 28.31 129.838 29.282 130.045 30.297 C 130.253 31.269 130.345 32.252 130.311 33.246 L 118.093 33.246 C 118.069 33.891 118.15 34.546 118.336 35.169 C 118.51 35.769 118.833 36.315 119.262 36.764 C 119.678 37.233 120.234 37.603 120.871 37.878 C 121.517 38.161 122.292 38.302 123.173 38.302 C 124.305 38.302 125.244 38.052 125.984 37.548 C 126.713 37.047 127.199 36.305 127.419 35.266 L 130.079 35.266 C 129.709 37.025 128.934 38.335 127.707 39.21 L 127.695 39.252 Z M 127.037 29.349 C 126.794 28.801 126.458 28.354 126.066 27.96 C 125.649 27.568 125.152 27.261 124.619 27.044 C 124.064 26.814 123.439 26.694 122.768 26.694 C 122.061 26.694 121.449 26.814 120.881 27.044 C 120.315 27.273 119.84 27.59 119.448 27.972 C 119.041 28.376 118.718 28.845 118.476 29.359 C 118.221 29.883 118.105 30.439 118.059 31.041 L 127.454 31.041 C 127.407 30.451 127.267 29.883 127.026 29.337 L 127.037 29.337 Z M 135.159 36.774 C 135.402 37.156 135.748 37.461 136.142 37.692 C 136.572 37.92 137.045 38.096 137.53 38.193 C 138.04 38.302 138.585 38.347 139.128 38.347 C 139.568 38.347 140.006 38.314 140.446 38.26 C 140.887 38.205 141.314 38.096 141.719 37.932 C 142.101 37.767 142.438 37.538 142.692 37.223 C 142.935 36.916 143.073 36.511 143.073 36.042 C 143.073 35.377 142.807 34.884 142.275 34.556 C 141.742 34.229 141.094 33.946 140.296 33.727 L 137.717 33.159 C 136.79 32.996 135.935 32.755 135.136 32.438 C 134.372 32.155 133.702 31.718 133.157 31.14 C 132.637 30.582 132.358 29.796 132.358 28.801 C 132.358 28.015 132.555 27.36 132.913 26.804 C 133.273 26.258 133.759 25.787 134.337 25.449 C 134.916 25.1 135.564 24.849 136.293 24.663 C 137 24.499 137.727 24.412 138.456 24.412 C 139.312 24.4 140.18 24.477 141.025 24.641 C 141.799 24.794 142.495 25.045 143.097 25.427 C 143.697 25.787 144.183 26.3 144.53 26.913 C 144.889 27.546 145.109 28.322 145.166 29.26 L 142.472 29.26 C 142.425 28.758 142.298 28.342 142.056 28.027 C 141.823 27.709 141.512 27.437 141.163 27.228 C 140.805 27.032 140.411 26.88 139.983 26.792 C 139.557 26.705 139.105 26.65 138.677 26.65 C 138.272 26.65 137.867 26.683 137.463 26.737 C 137.079 26.792 136.698 26.901 136.35 27.054 C 136.027 27.196 135.748 27.404 135.517 27.655 C 135.31 27.906 135.194 28.223 135.194 28.615 C 135.194 29.052 135.355 29.414 135.691 29.697 C 136.014 29.982 136.442 30.222 136.941 30.418 C 137.45 30.614 138.004 30.768 138.629 30.898 L 140.528 31.302 C 141.199 31.445 141.857 31.609 142.506 31.815 C 143.107 32.001 143.686 32.264 144.195 32.614 C 144.682 32.941 145.097 33.356 145.386 33.847 C 145.688 34.35 145.849 34.961 145.849 35.693 C 145.849 36.62 145.642 37.407 145.224 38.029 C 144.822 38.642 144.264 39.143 143.617 39.515 C 142.945 39.897 142.193 40.16 141.373 40.312 C 140.551 40.465 139.717 40.542 138.884 40.542 C 138.004 40.542 137.137 40.455 136.282 40.269 C 135.494 40.116 134.754 39.81 134.096 39.384 C 133.458 38.98 132.96 38.434 132.58 37.789 C 132.198 37.134 131.988 36.305 131.943 35.353 L 134.639 35.353 C 134.719 35.921 134.858 36.402 135.113 36.784 L 135.159 36.774 Z M 155.904 24.804 L 155.904 27.044 L 152.64 27.044 L 152.64 36.632 C 152.64 36.938 152.677 37.178 152.722 37.352 C 152.769 37.528 152.885 37.67 153.024 37.779 C 153.163 37.888 153.382 37.942 153.649 37.975 C 153.902 38.007 154.25 38.019 154.667 38.019 L 155.892 38.019 L 155.892 40.257 L 153.833 40.257 C 153.127 40.257 152.537 40.213 152.051 40.116 C 151.566 40.017 151.16 39.865 150.859 39.612 C 150.558 39.362 150.327 39.046 150.177 38.609 C 150.028 38.171 149.957 37.603 149.957 36.883 L 149.957 27.054 L 147.168 27.054 L 147.168 24.815 L 149.957 24.815 L 149.957 20.185 L 152.64 20.185 L 152.64 24.804 L 155.904 24.804 Z" style="fill: rgb(154, 67, 80);"/>
</svg>