<?xml version="1.0" encoding="utf-8"?>
<svg viewBox="0 0 200 60" xmlns="http://www.w3.org/2000/svg">
  <linearGradient id="a" gradientUnits="userSpaceOnUse" x1="32.64" x2="82.77" y1="61.16" y2="85.54" gradientTransform="matrix(0.353723, 0, 0, 0.353723, -1.236868, -1.720464)">
    <stop offset="0.21" stop-color="#fe2857"/>
    <stop offset="1" stop-color="#293896"/>
  </linearGradient>
  <linearGradient id="b" gradientUnits="userSpaceOnUse" x1="17.38" x2="82.95" y1="69.86" y2="21.23" gradientTransform="matrix(0.353723, 0, 0, 0.353723, -1.236868, -1.720464)">
    <stop offset="0" stop-color="#fe2857"/>
    <stop offset="0.01" stop-color="#fe2857"/>
    <stop offset="0.86" stop-color="#ff318c"/>
  </linearGradient>
  <linearGradient id="c" gradientUnits="userSpaceOnUse" x1="74.17" x2="160.27" y1="21.58" y2="99.76" gradientTransform="matrix(0.353723, 0, 0, 0.353723, -1.236868, -1.720464)">
    <stop offset="0.02" stop-color="#ff318c"/>
    <stop offset="0.21" stop-color="#fe2857"/>
    <stop offset="0.86" stop-color="#fdb60d"/>
  </linearGradient>
  <linearGradient id="d" gradientUnits="userSpaceOnUse" x1="155.46" x2="55.07" y1="89.8" y2="158.9" gradientTransform="matrix(0.353723, 0, 0, 0.353723, -1.236868, -1.720464)">
    <stop offset="0.01" stop-color="#fdb60d"/>
    <stop offset="0.86" stop-color="#fcf84a"/>
  </linearGradient>
  <path d="M 27.613 27.89 L 12.986 15.509 C 9.854 12.888 5.058 14.641 4.354 18.664 C 3.904 21.238 5.394 23.756 7.867 24.6 L 7.92 24.6 L 8.058 24.643 L 26.508 30.263 C 26.643 30.312 26.783 30.337 26.926 30.337 C 27.942 30.332 28.571 29.229 28.058 28.353 C 27.949 28.165 27.795 28.007 27.609 27.893 Z" fill="url(#a)" style=""/>
  <path d="M 30.545 7.452 C 30.562 4.486 27.364 2.614 24.786 4.081 C 24.718 4.12 24.65 4.162 24.585 4.204 L 6.721 15.05 C 3.299 17.28 3.576 22.378 7.217 24.226 C 9.124 25.194 11.423 24.923 13.053 23.539 L 29.066 10.49 L 29.194 10.384 C 30.049 9.651 30.544 8.579 30.545 7.452 Z" fill="url(#b)" style=""/>
  <path d="M 56.522 30.822 L 29.42 4.721 C 27.322 2.616 23.735 3.571 22.96 6.44 C 22.572 7.878 23.047 9.413 24.182 10.381 L 24.231 10.423 L 53.023 34.681 C 54.56 35.969 56.914 35.112 57.26 33.138 C 57.287 32.988 57.301 32.835 57.301 32.683 C 57.301 31.984 57.02 31.314 56.522 30.822 Z" fill="url(#c)" style=""/>
  <path d="M 57.304 32.693 C 57.319 30.692 55.161 29.425 53.421 30.413 C 53.336 30.461 53.255 30.514 53.176 30.571 L 20.382 46.594 C 16.733 48.429 16.437 53.526 19.85 55.769 C 21.685 56.975 24.073 56.927 25.857 55.646 L 56.182 34.833 C 56.885 34.347 57.304 33.548 57.304 32.693 Z" fill="url(#d)" style=""/>
  <path d="M 19.986 19.503 L 41.209 19.503 L 41.209 40.726 L 19.986 40.726 Z" style=""/>
  <g fill="#fff" transform="matrix(0.353723, 0, 0, 0.353723, -1.236871, -1.720464)" style="">
    <path d="m66.53 108.75h22.5v3.75h-22.5z"/>
    <path d="m65.59 75.47 1.67-1.58a1.88 1.88 0 0 0 1.47.87c.64 0 1.06-.45 1.06-1.32v-5.92h2.58v5.94a3.44 3.44 0 0 1 -.92 2.63 3.52 3.52 0 0 1 -2.57 1 3.84 3.84 0 0 1 -3.29-1.62z"/>
    <path d="m73.53 67.52h7.53v2.19h-5v1.43h4.49v2h-4.45v1.49h5v2.2h-7.6z"/>
    <path d="m84.73 69.79h-2.8v-2.27h8.21v2.27h-2.81v7.09h-2.6z"/>
    <path d="m66.63 80.58h4.42a3.47 3.47 0 0 1 2.55.83 2.09 2.09 0 0 1 .61 1.52 2.18 2.18 0 0 1 -1.45 2.09 2.27 2.27 0 0 1 1.86 2.29c0 1.69-1.31 2.69-3.55 2.69h-4.44zm5 2.89c0-.52-.42-.8-1.18-.8h-1.29v1.64h1.25c.78 0 1.24-.27 1.24-.81zm-.9 2.66h-1.57v1.73h1.62c.8 0 1.24-.31 1.24-.86-.02-.53-.4-.87-1.27-.87z"/>
    <path d="m75.45 80.58h4.15a4.14 4.14 0 0 1 3.05 1 2.92 2.92 0 0 1 .83 2.18 3 3 0 0 1 -1.93 2.89l2.24 3.35h-3l-1.89-2.84h-.87v2.84h-2.6zm4 4.5c.87 0 1.4-.43 1.4-1.12 0-.75-.55-1.13-1.41-1.13h-1.39v2.27z"/>
    <path d="m87.09 80.51h2.5l4 9.44h-2.79l-.67-1.69h-3.63l-.67 1.74h-2.71zm2.28 5.73-1.05-2.65-1.06 2.65z"/>
    <path d="m94 80.55h2.6v9.37h-2.6z"/>
    <path d="m97.56 80.55h2.44l3.37 5v-5h2.57v9.37h-2.27l-3.53-5.14v5.14h-2.58z"/>
    <path d="m106.37 88.53 1.44-1.73a4.86 4.86 0 0 0 3 1.13c.71 0 1.08-.25 1.08-.65 0-.41-.3-.61-1.59-.91-2-.46-3.53-1-3.53-2.93 0-1.74 1.38-3 3.63-3a5.88 5.88 0 0 1 3.85 1.25l-1.25 1.78a4.56 4.56 0 0 0 -2.62-.92c-.63 0-.94.25-.94.6 0 .43.32.62 1.63.91 2.15.47 3.48 1.17 3.48 2.92 0 1.91-1.51 3-3.78 3a6.56 6.56 0 0 1 -4.4-1.45z"/>
  </g>
  <path d="M -1.237 -1.72 L 62.432 -1.72 L 62.432 61.949 L -1.237 61.949 Z" fill="none" style=""/>
  <path d="M 67.71896743774414 23.263774871826172 L 72.37424087524414 23.263774871826172 L 72.37424087524414 31.436138153076172 Q 72.37424087524414 34.00986862182617 71.91794204711914 35.35313034057617 Q 71.46164321899414 36.69639205932617 70.08249282836914 37.62949752807617 Q 68.70334243774414 38.56260299682617 66.55002212524414 38.56260299682617 Q 64.27365493774414 38.56260299682617 63.02267837524414 37.94736862182617 Q 61.77170181274414 37.33213424682617 61.08981704711914 36.14780807495117 Q 60.40793228149414 34.96348190307617 60.28488540649414 33.22031784057617 L 64.72482681274414 32.61533737182617 Q 64.73508071899414 33.60996627807617 64.89914321899414 34.09189987182617 Q 65.06320571899414 34.57383346557617 65.45285415649414 34.87119674682617 Q 65.71945571899414 35.06602096557617 66.21164321899414 35.06602096557617 Q 66.99094009399414 35.06602096557617 67.35495376586914 34.48667526245117 Q 67.71896743774414 33.90732955932617 67.71896743774414 32.53330612182617 Z M 75.0606689453125 23.263774871826172 L 87.5089111328125 23.263774871826172 L 87.5089111328125 26.473247528076172 L 79.7159423828125 26.473247528076172 L 79.7159423828125 28.862407684326172 L 86.9449462890625 28.862407684326172 L 86.9449462890625 31.928325653076172 L 79.7159423828125 31.928325653076172 L 79.7159423828125 34.89170455932617 L 87.7344970703125 34.89170455932617 L 87.7344970703125 38.29600143432617 L 75.0606689453125 38.29600143432617 Z M 88.7802963256836 23.263774871826172 L 102.8999252319336 23.263774871826172 L 102.8999252319336 26.975688934326172 L 98.1626205444336 26.975688934326172 L 98.1626205444336 38.29600143432617 L 93.5176010131836 38.29600143432617 L 93.5176010131836 26.975688934326172 L 88.7802963256836 26.975688934326172 Z M 111.21564483642578 23.263774871826172 L 119.91095733642578 23.263774871826172 Q 122.08478546142578 23.263774871826172 123.24860382080078 24.340435028076172 Q 124.41242218017578 25.417095184326172 124.41242218017578 27.006450653076172 Q 124.41242218017578 28.339458465576172 123.58185577392578 29.293071746826172 Q 123.02814483642578 29.928813934326172 121.96173858642578 30.297954559326172 Q 123.58185577392578 30.687602996826172 124.34577178955078 31.636089324951172 Q 125.10968780517578 32.58457565307617 125.10968780517578 34.02012252807617 Q 125.10968780517578 35.18906784057617 124.56623077392578 36.12217330932617 Q 124.02277374267578 37.05527877807617 123.07941436767578 37.59873580932617 Q 122.49494171142578 37.93711471557617 121.31574249267578 38.09092330932617 Q 119.74689483642578 38.29600143432617 119.23419952392578 38.29600143432617 L 111.21564483642578 38.29600143432617 Z M 115.90167999267578 29.159770965576172 L 117.92169952392578 29.159770965576172 Q 119.00861358642578 29.159770965576172 119.43415069580078 28.785503387451172 Q 119.85968780517578 28.411235809326172 119.85968780517578 27.703716278076172 Q 119.85968780517578 27.047466278076172 119.43415069580078 26.678325653076172 Q 119.00861358642578 26.309185028076172 117.95246124267578 26.309185028076172 L 115.90167999267578 26.309185028076172 Z M 115.90167999267578 35.06602096557617 L 118.27033233642578 35.06602096557617 Q 119.47003936767578 35.06602096557617 119.96222686767578 34.64048385620117 Q 120.45441436767578 34.21494674682617 120.45441436767578 33.49717330932617 Q 120.45441436767578 32.83066940307617 119.96735382080078 32.42564010620117 Q 119.48029327392578 32.02061080932617 118.26007843017578 32.02061080932617 L 115.90167999267578 32.02061080932617 Z M 127.20138549804688 38.29600143432617 L 127.20138549804688 23.263774871826172 L 134.94308471679688 23.263774871826172 Q 137.09640502929688 23.263774871826172 138.23458862304688 23.632915496826172 Q 139.37277221679688 24.002056121826172 140.07003784179688 25.001811981201172 Q 140.76730346679688 26.001567840576172 140.76730346679688 27.437114715576172 Q 140.76730346679688 28.688091278076172 140.23410034179688 29.595561981201172 Q 139.70089721679688 30.503032684326172 138.76779174804688 31.066997528076172 Q 138.17306518554688 31.425884246826172 137.13742065429688 31.661724090576172 Q 137.96798706054688 31.938579559326172 138.34738159179688 32.21543502807617 Q 138.60372924804688 32.40000534057617 139.09078979492188 33.00498580932617 Q 139.57785034179688 33.60996627807617 139.74191284179688 33.93809127807617 L 141.98751831054688 38.29600143432617 L 136.73751831054688 38.29600143432617 L 134.25607299804688 33.70225143432617 Q 133.78439331054688 32.81016159057617 133.41525268554688 32.54356002807617 Q 132.91281127929688 32.19492721557617 132.27706909179688 32.19492721557617 L 131.86691284179688 32.19492721557617 L 131.86691284179688 38.29600143432617 Z M 131.86691284179688 29.354595184326172 L 133.82540893554688 29.354595184326172 Q 134.14328002929688 29.354595184326172 135.05587768554688 29.149517059326172 Q 135.51730346679688 29.057231903076172 135.80953979492188 28.677837371826172 Q 136.10177612304688 28.298442840576172 136.10177612304688 27.806255340576172 Q 136.10177612304688 27.078227996826172 135.64035034179688 26.688579559326172 Q 135.17892456054688 26.298931121826172 133.90744018554688 26.298931121826172 L 131.86691284179688 26.298931121826172 Z M 152.3233642578125 35.81455612182617 L 147.0323486328125 35.81455612182617 L 146.3043212890625 38.29600143432617 L 141.5567626953125 38.29600143432617 L 147.2066650390625 23.263774871826172 L 152.2720947265625 23.263774871826172 L 157.9219970703125 38.29600143432617 L 153.0616455078125 38.29600143432617 Z M 151.3492431640625 32.56406784057617 L 149.6881103515625 27.160259246826172 L 148.0372314453125 32.56406784057617 Z M 159.19338989257812 23.263774871826172 L 163.84866333007812 23.263774871826172 L 163.84866333007812 38.29600143432617 L 159.19338989257812 38.29600143432617 Z M 166.81195068359375 23.263774871826172 L 171.14935302734375 23.263774871826172 L 176.80950927734375 31.579692840576172 L 176.80950927734375 23.263774871826172 L 181.18792724609375 23.263774871826172 L 181.18792724609375 38.29600143432617 L 176.80950927734375 38.29600143432617 L 171.18011474609375 30.041606903076172 L 171.18011474609375 38.29600143432617 L 166.81195068359375 38.29600143432617 Z M 183.06430053710938 33.32285690307617 L 187.48373413085938 33.04600143432617 Q 187.62728881835938 34.12266159057617 188.06820678710938 34.68662643432617 Q 188.78598022460938 35.59922409057617 190.11898803710938 35.59922409057617 Q 191.11361694335938 35.59922409057617 191.65194702148438 35.13267135620117 Q 192.19027709960938 34.66611862182617 192.19027709960938 34.05088424682617 Q 192.19027709960938 33.46641159057617 191.67758178710938 33.00498580932617 Q 191.16488647460938 32.54356002807617 189.29867553710938 32.13340377807617 Q 186.24301147460938 31.446392059326172 184.94076538085938 30.308208465576172 Q 183.62826538085938 29.170024871826172 183.62826538085938 27.406352996826172 Q 183.62826538085938 26.247661590576172 184.29989624023438 25.217144012451172 Q 184.97152709960938 24.186626434326172 186.31991577148438 23.597026824951172 Q 187.66830444335938 23.007427215576172 190.01644897460938 23.007427215576172 Q 192.89779663085938 23.007427215576172 194.41024780273438 24.078960418701172 Q 195.92269897460938 25.150493621826172 196.20980834960938 27.488384246826172 L 191.83139038085938 27.744731903076172 Q 191.65707397460938 26.729595184326172 191.09823608398438 26.268169403076172 Q 190.53939819335938 25.806743621826172 189.55502319335938 25.806743621826172 Q 188.74496459960938 25.806743621826172 188.33480834960938 26.150249481201172 Q 187.92465209960938 26.493755340576172 187.92465209960938 26.985942840576172 Q 187.92465209960938 27.344829559326172 188.26303100585938 27.631938934326172 Q 188.59115600585938 27.929302215576172 189.82162475585938 28.185649871826172 Q 192.86703491210938 28.841899871826172 194.18466186523438 29.513530731201172 Q 195.50228881835938 30.185161590576172 196.10214233398438 31.179790496826172 Q 196.70199584960938 32.17441940307617 196.70199584960938 33.40488815307617 Q 196.70199584960938 34.85068893432617 195.90219116210938 36.07090377807617 Q 195.10238647460938 37.29111862182617 193.66683959960938 37.92173385620117 Q 192.23129272460938 38.55234909057617 190.04721069335938 38.55234909057617 Q 186.21224975585938 38.55234909057617 184.73568725585938 37.07578659057617 Q 183.25912475585938 35.59922409057617 183.06430053710938 33.32285690307617 Z" transform="matrix(1, 0, 0, 1, 0, 0)" style="fill: rgb(51, 51, 51); white-space: pre;"/>
</svg>