<?xml version="1.0" encoding="utf-8"?>
<svg viewBox="0 0 200 60" xmlns="http://www.w3.org/2000/svg">
  <linearGradient id="d" x1="-11.379" x2="70.302" y1="92.369" y2="10.687" gradientUnits="userSpaceOnUse" gradientTransform="matrix(0.395751, 0, 0, 0.395751, 4.490329, 8.697626)">
    <stop stop-color="#C757BC" offset="0.1075"/>
    <stop stop-color="#D0609A" offset="0.2138"/>
    <stop stop-color="#E1725C" offset="0.4254"/>
    <stop stop-color="#EE7E2F" offset="0.6049"/>
    <stop stop-color="#F58613" offset="0.743"/>
    <stop stop-color="#F88909" offset="0.8232"/>
  </linearGradient>
  <linearGradient id="f" x1="36.096" x2="79.126" y1="121.15" y2="78.116" gradientUnits="userSpaceOnUse" gradientTransform="matrix(0.395751, 0, 0, 0.395751, 4.490329, 8.697626)">
    <stop stop-color="#0095D5" offset="0.0968"/>
    <stop stop-color="#238AD9" offset="0.3007"/>
    <stop stop-color="#557BDE" offset="0.6211"/>
    <stop stop-color="#7472E2" offset="0.8643"/>
    <stop stop-color="#806EE3" offset="1"/>
  </linearGradient>
  <linearGradient id="e" x1="-4.5056" x2="33.105" y1="35.881" y2="-1.7296" gradientUnits="userSpaceOnUse" gradientTransform="matrix(0.395751, 0, 0, 0.395751, 4.490329, 8.697626)">
    <stop stop-color="#0095D5" offset="0.0968"/>
    <stop stop-color="#238AD9" offset="0.3007"/>
    <stop stop-color="#557BDE" offset="0.6211"/>
    <stop stop-color="#7472E2" offset="0.8643"/>
    <stop stop-color="#806EE3" offset="1"/>
  </linearGradient>
  <g fill="#231F20" transform="matrix(0.395751, 0, 0, 0.395751, 4.490308, 8.697622)" style="">
    <path d="m134.85 4.367h22.415l-2e-5 44.539 41.337-44.539h27.073l-41.482 43.229 43.374 58.658-26.927-1e-5 -31.585-43.374-11.79 12.226-2e-5 31.148h-22.415l5e-5 -101.89z"/>
    <path d="m215.65 67.682v-0.29012c2e-5 -22.415 18.049-40.61 42.356-40.61 24.162 0 42.065 17.903 42.065 40.318v0.29129c0 22.415-18.049 40.608-42.356 40.608-24.162 0-42.065-17.903-42.065-40.318zm62.588 0v-0.29012c0-11.499-8.2964-21.542-20.523-21.542-12.663 0-20.232 9.7517-20.232 21.251v0.29129c-2e-5 11.498 8.2964 21.541 20.523 21.541 12.663 0 20.232-9.7517 20.232-21.251z"/>
    <path d="m306.18 84.13v-36.97h-9.3154v-18.922h9.3154l3e-5 -19.941h22.124v19.941h18.339v18.922h-18.339v33.332c0 5.0934 2.1829 7.5688 7.1319 7.5688 4.0757 0 7.7145-1.0189 10.916-2.7666v17.758c-4.6577 2.7655-10.043 4.512-17.466 4.512-13.536 1e-5 -22.706-5.3859-22.706-23.434z"/>
    <path d="m353 0h22.124l-6e-5 106.25h-22.124l3e-5 -106.25z"/>
    <path d="m383.12 0h23.288v19.65h-23.288l3e-5 -19.65zm0.58255 28.237h22.124l-3e-5 78.016-22.124-1e-5 3e-5 -78.016z"/>
    <path d="m414.24 28.237h22.124v11.062c5.0946-6.5499 11.645-12.517 22.852-12.517 16.739 0 26.491 11.062 26.491 28.965v50.506l-22.124-1e-5v-43.52c0-10.479-4.9496-15.865-13.391-15.865-8.4427 0-13.827 5.3859-13.827 15.865l-3e-5 43.52h-22.124l3e-5 -78.016z"/>
  </g>
  <polygon points="24.797 10.406 4.556 31.693 4.556 50.72 24.768 30.473 44.873 10.406" fill="url(#d)" style=""/>
  <polygon points="4.556 50.72 24.768 30.473 44.873 50.72" fill="url(#f)" style=""/>
  <polygon points="4.556 10.406 24.798 10.406 4.556 31.693" fill="url(#e)" style=""/>
</svg>