<?xml version="1.0" encoding="utf-8"?>
<svg viewBox="0 0 200 60" xmlns="http://www.w3.org/2000/svg">
  <path d="M 49.535 16.042 C 49.254 15.141 48.579 14.409 47.734 13.959 L 30.567 5.741 C 30.117 5.516 29.61 5.46 29.16 5.46 C 28.71 5.46 28.203 5.46 27.753 5.572 L 10.586 13.846 C 9.741 14.24 9.122 14.972 8.897 15.929 L 4.676 34.447 C 4.507 35.404 4.732 36.361 5.295 37.149 L 17.171 51.839 C 17.847 52.515 18.803 52.965 19.76 53.021 L 38.672 53.021 C 39.685 53.134 40.642 52.684 41.261 51.839 L 53.138 37.149 C 53.701 36.361 53.926 35.404 53.813 34.447 L 49.535 16.042 Z" id="path10349" style="fill: rgb(50, 109, 230);"/>
  <path d="M 46.89 33.715 L 46.89 33.715 C 46.834 33.715 46.777 33.715 46.777 33.659 C 46.777 33.603 46.665 33.603 46.552 33.603 C 46.327 33.546 46.102 33.546 45.877 33.546 C 45.764 33.546 45.652 33.546 45.539 33.49 L 45.483 33.49 C 44.864 33.434 44.188 33.321 43.569 33.152 C 43.4 33.096 43.231 32.927 43.175 32.758 C 43.231 32.758 43.175 32.758 43.175 32.758 L 43.175 32.758 L 42.725 32.646 C 42.95 31.014 42.837 29.325 42.5 27.693 C 42.106 26.06 41.43 24.484 40.53 23.077 L 40.867 22.74 L 40.867 22.74 L 40.867 22.683 C 40.867 22.514 40.924 22.289 41.036 22.177 C 41.543 21.726 42.049 21.389 42.612 21.051 L 42.612 21.051 C 42.725 20.995 42.837 20.938 42.95 20.882 C 43.175 20.77 43.344 20.657 43.569 20.544 C 43.625 20.488 43.682 20.488 43.738 20.432 C 43.794 20.376 43.738 20.376 43.738 20.319 L 43.738 20.319 C 44.245 19.925 44.357 19.25 43.963 18.743 C 43.794 18.518 43.457 18.349 43.175 18.349 C 42.894 18.349 42.612 18.462 42.387 18.631 L 42.387 18.631 L 42.331 18.687 C 42.275 18.743 42.218 18.8 42.162 18.8 C 41.993 18.968 41.824 19.137 41.712 19.306 C 41.655 19.419 41.543 19.475 41.487 19.531 L 41.487 19.531 C 41.093 19.982 40.586 20.432 40.079 20.77 C 39.967 20.826 39.854 20.882 39.742 20.882 C 39.685 20.882 39.573 20.882 39.517 20.826 L 39.46 20.826 L 39.01 21.107 C 38.56 20.657 38.053 20.207 37.603 19.756 C 35.52 18.124 32.931 17.111 30.286 16.83 L 30.229 16.379 L 30.229 16.379 L 30.229 16.436 C 30.061 16.323 30.004 16.154 29.948 15.985 C 29.948 15.366 29.948 14.747 30.061 14.072 L 30.061 14.015 C 30.061 13.903 30.117 13.79 30.117 13.678 C 30.173 13.452 30.173 13.227 30.229 13.002 L 30.229 12.664 L 30.229 12.664 C 30.286 12.102 29.835 11.539 29.273 11.482 C 28.935 11.426 28.597 11.595 28.316 11.876 C 28.091 12.102 27.978 12.383 27.978 12.664 L 27.978 12.664 L 27.978 12.946 C 27.978 13.171 28.034 13.396 28.091 13.621 C 28.147 13.734 28.147 13.846 28.147 13.959 L 28.147 14.015 C 28.259 14.634 28.259 15.254 28.259 15.929 C 28.203 16.098 28.147 16.267 27.978 16.379 L 27.978 16.492 L 27.978 16.492 L 27.922 16.942 C 27.303 16.998 26.683 17.111 26.008 17.224 C 23.363 17.786 20.942 19.194 19.085 21.164 L 18.747 20.938 L 18.691 20.938 C 18.635 20.938 18.578 20.995 18.466 20.995 C 18.353 20.995 18.241 20.938 18.128 20.882 C 17.621 20.488 17.115 20.038 16.721 19.588 L 16.721 19.588 C 16.665 19.475 16.552 19.419 16.496 19.362 C 16.327 19.194 16.214 19.025 16.045 18.856 C 15.989 18.8 15.933 18.8 15.877 18.743 C 15.82 18.687 15.82 18.687 15.82 18.687 L 15.82 18.687 C 15.595 18.518 15.314 18.406 15.032 18.406 C 14.695 18.406 14.413 18.518 14.244 18.8 C 13.907 19.306 14.019 19.982 14.469 20.376 L 14.469 20.376 C 14.526 20.376 14.526 20.432 14.526 20.432 C 14.526 20.432 14.638 20.544 14.695 20.544 C 14.863 20.657 15.089 20.77 15.314 20.882 C 15.426 20.938 15.539 20.995 15.651 21.051 L 15.651 21.051 C 16.214 21.389 16.777 21.726 17.227 22.177 C 17.34 22.289 17.453 22.514 17.396 22.683 L 17.396 22.627 L 17.396 22.627 L 17.734 22.965 C 17.678 23.077 17.621 23.134 17.565 23.246 C 15.82 26.004 15.089 29.269 15.595 32.477 L 15.145 32.59 L 15.145 32.59 C 15.145 32.646 15.089 32.646 15.089 32.646 C 15.032 32.815 14.863 32.927 14.695 33.04 C 14.075 33.209 13.456 33.321 12.781 33.378 L 12.781 33.378 C 12.668 33.378 12.556 33.378 12.443 33.434 C 12.218 33.434 11.993 33.49 11.768 33.49 C 11.711 33.49 11.655 33.546 11.543 33.546 C 11.486 33.546 11.486 33.546 11.43 33.603 L 11.43 33.603 C 10.811 33.715 10.417 34.278 10.529 34.897 C 10.529 34.897 10.529 34.897 10.529 34.897 C 10.642 35.404 11.149 35.742 11.655 35.685 C 11.768 35.685 11.824 35.685 11.937 35.629 L 11.937 35.629 C 11.993 35.629 11.993 35.629 11.993 35.573 C 11.993 35.516 12.162 35.573 12.218 35.573 C 12.443 35.516 12.668 35.404 12.837 35.348 C 12.95 35.291 13.062 35.235 13.175 35.235 L 13.231 35.235 C 13.85 35.01 14.413 34.841 15.089 34.728 L 15.145 34.728 C 15.314 34.728 15.483 34.785 15.595 34.897 C 15.651 34.897 15.651 34.954 15.651 34.954 L 15.651 34.954 L 16.158 34.897 C 17.002 37.486 18.578 39.794 20.773 41.483 C 21.28 41.877 21.73 42.214 22.293 42.496 L 22.012 42.89 L 22.012 42.89 C 22.012 42.946 22.068 42.946 22.068 42.946 C 22.181 43.115 22.181 43.34 22.124 43.509 C 21.899 44.072 21.561 44.635 21.224 45.141 L 21.224 45.198 C 21.167 45.31 21.111 45.366 20.999 45.479 C 20.886 45.592 20.773 45.817 20.605 46.042 C 20.548 46.098 20.548 46.154 20.492 46.211 C 20.492 46.211 20.492 46.267 20.436 46.267 L 20.436 46.267 C 20.154 46.83 20.379 47.505 20.886 47.787 C 20.999 47.843 21.167 47.899 21.28 47.899 C 21.73 47.899 22.124 47.618 22.349 47.224 L 22.349 47.224 C 22.349 47.224 22.349 47.168 22.406 47.168 C 22.406 47.111 22.462 47.055 22.518 46.999 C 22.575 46.774 22.687 46.605 22.743 46.38 L 22.856 46.042 L 22.856 46.042 C 23.025 45.423 23.306 44.86 23.588 44.297 C 23.7 44.128 23.869 44.016 24.038 43.959 C 24.094 43.959 24.094 43.959 24.094 43.903 L 24.094 43.903 L 24.319 43.453 C 25.895 44.072 27.528 44.353 29.216 44.353 C 30.229 44.353 31.243 44.241 32.256 43.959 C 32.875 43.847 33.494 43.622 34.057 43.453 L 34.282 43.847 L 34.282 43.847 C 34.338 43.847 34.338 43.847 34.338 43.903 C 34.507 43.959 34.676 44.072 34.789 44.241 C 35.07 44.804 35.351 45.366 35.52 45.986 L 35.52 46.042 L 35.633 46.38 C 35.689 46.605 35.745 46.83 35.858 46.999 C 35.914 47.055 35.914 47.111 35.971 47.168 C 35.971 47.168 35.971 47.224 36.027 47.224 L 36.027 47.224 C 36.252 47.618 36.646 47.899 37.096 47.899 C 37.265 47.899 37.378 47.843 37.547 47.787 C 37.772 47.674 37.997 47.449 38.053 47.168 C 38.109 46.886 38.109 46.605 37.997 46.323 L 37.997 46.323 C 37.997 46.267 37.941 46.267 37.941 46.267 C 37.941 46.211 37.884 46.154 37.828 46.098 C 37.715 45.873 37.603 45.704 37.434 45.535 C 37.378 45.423 37.321 45.366 37.209 45.254 L 37.209 45.141 C 36.815 44.635 36.533 44.072 36.308 43.509 C 36.252 43.34 36.252 43.115 36.365 42.946 C 36.365 42.89 36.421 42.89 36.421 42.89 L 36.421 42.89 L 36.252 42.44 C 39.123 40.695 41.318 37.993 42.331 34.785 L 42.781 34.841 L 42.781 34.841 C 42.837 34.841 42.837 34.785 42.837 34.785 C 42.95 34.672 43.119 34.616 43.288 34.616 L 43.344 34.616 C 43.963 34.728 44.582 34.897 45.145 35.122 L 45.201 35.122 C 45.314 35.179 45.427 35.235 45.539 35.235 C 45.764 35.348 45.933 35.46 46.158 35.516 C 46.215 35.516 46.271 35.573 46.383 35.573 C 46.44 35.573 46.44 35.573 46.496 35.629 L 46.496 35.629 C 46.609 35.685 46.665 35.685 46.777 35.685 C 47.284 35.685 47.734 35.348 47.903 34.897 C 47.847 34.278 47.397 33.828 46.89 33.715 Z M 30.623 31.97 L 29.104 32.702 L 27.584 31.97 L 27.19 30.338 L 28.259 28.987 L 29.948 28.987 L 31.017 30.338 L 30.623 31.97 Z M 39.798 28.312 C 40.079 29.494 40.136 30.676 40.023 31.858 L 34.676 30.338 L 34.676 30.338 C 34.169 30.226 33.888 29.719 34.001 29.212 C 34.057 29.044 34.113 28.931 34.226 28.818 L 38.447 24.991 C 39.066 26.004 39.517 27.13 39.798 28.312 Z M 36.759 22.908 L 32.143 26.173 C 31.749 26.398 31.186 26.342 30.905 25.948 C 30.792 25.835 30.736 25.723 30.736 25.554 L 30.398 19.869 C 32.875 20.15 35.07 21.22 36.759 22.908 L 36.759 22.908 Z M 26.571 20.038 L 27.697 19.813 L 27.415 25.441 L 27.415 25.441 C 27.415 25.948 26.965 26.342 26.458 26.342 C 26.289 26.342 26.177 26.286 26.008 26.229 L 21.336 22.908 C 22.8 21.501 24.601 20.488 26.571 20.038 Z M 19.704 24.991 L 23.869 28.706 L 23.869 28.706 C 24.263 29.044 24.319 29.606 23.982 30 C 23.869 30.169 23.757 30.226 23.531 30.282 L 18.072 31.858 C 17.903 29.494 18.466 27.074 19.704 24.991 Z M 18.747 34.503 L 24.319 33.546 C 24.77 33.546 25.22 33.828 25.276 34.278 C 25.333 34.447 25.333 34.672 25.22 34.841 L 25.22 34.841 L 23.081 40.019 C 21.111 38.725 19.535 36.755 18.747 34.503 Z M 31.524 41.483 C 30.736 41.652 29.948 41.764 29.104 41.764 C 27.922 41.764 26.683 41.539 25.558 41.201 L 28.316 36.192 C 28.597 35.854 29.047 35.742 29.441 35.967 C 29.61 36.079 29.723 36.192 29.892 36.361 L 29.892 36.361 L 32.593 41.258 C 32.256 41.314 31.918 41.37 31.524 41.483 Z M 38.391 36.586 C 37.547 37.937 36.365 39.119 35.014 39.963 L 32.819 34.672 C 32.706 34.222 32.931 33.772 33.325 33.603 C 33.494 33.546 33.663 33.49 33.832 33.49 L 39.46 34.447 C 39.179 35.235 38.841 35.967 38.391 36.586 Z" id="path10351" style="fill: rgb(255, 255, 255);"/>
  <path d="M 187.479 37.261 C 187.962 37.295 188.479 37.226 188.927 37.054 C 189.203 36.916 189.375 36.606 189.341 36.295 C 189.306 35.951 189.1 35.641 188.789 35.537 C 188.272 35.227 187.686 34.951 187.1 34.779 C 186.514 34.572 185.997 34.331 185.515 34.09 C 185.066 33.883 184.687 33.607 184.308 33.262 C 183.964 32.918 183.722 32.539 183.55 32.091 C 183.343 31.573 183.274 31.022 183.274 30.471 C 183.24 29.333 183.757 28.23 184.653 27.541 C 185.584 26.817 186.825 26.472 188.41 26.472 C 189.168 26.472 189.961 26.542 190.719 26.714 C 191.305 26.817 191.891 26.955 192.477 27.162 L 191.822 30.091 C 191.34 29.919 190.892 29.816 190.409 29.678 C 189.858 29.54 189.272 29.505 188.72 29.505 C 187.548 29.505 186.962 29.816 186.962 30.471 C 186.962 30.608 186.997 30.746 187.032 30.885 C 187.1 31.022 187.204 31.126 187.341 31.229 C 187.479 31.332 187.686 31.436 187.927 31.573 C 188.169 31.711 188.513 31.85 188.927 31.987 C 189.616 32.229 190.306 32.539 190.926 32.883 C 191.409 33.125 191.822 33.435 192.167 33.848 C 192.477 34.159 192.684 34.538 192.822 34.986 C 192.96 35.469 193.029 35.951 193.029 36.434 C 193.098 37.605 192.546 38.743 191.547 39.398 C 190.581 40.053 189.203 40.397 187.411 40.397 C 186.411 40.432 185.445 40.329 184.48 40.087 C 183.929 39.95 183.412 39.777 182.895 39.605 L 183.515 36.572 C 184.136 36.813 184.791 37.019 185.445 37.158 C 186.135 37.192 186.79 37.261 187.479 37.261 M 168.488 33.469 C 168.453 32.435 168.66 31.401 169.004 30.436 C 169.315 29.609 169.797 28.885 170.418 28.23 C 171.004 27.644 171.658 27.196 172.417 26.921 C 173.175 26.61 173.968 26.472 174.761 26.472 C 176.622 26.472 178.104 27.058 179.172 28.196 C 180.241 29.333 180.793 31.022 180.793 33.228 C 180.793 33.435 180.793 33.676 180.758 33.952 C 180.758 34.227 180.723 34.434 180.723 34.641 L 172.314 34.641 C 172.382 35.365 172.761 36.054 173.382 36.468 C 174.14 36.951 175.036 37.192 175.933 37.158 C 176.587 37.158 177.277 37.089 177.932 36.985 C 178.483 36.882 179.035 36.709 179.552 36.468 L 180.069 39.501 C 179.828 39.639 179.552 39.708 179.276 39.812 C 178.897 39.915 178.518 40.018 178.139 40.053 C 177.725 40.122 177.311 40.191 176.829 40.259 C 176.38 40.294 175.898 40.329 175.415 40.329 C 174.347 40.363 173.313 40.191 172.314 39.812 C 171.486 39.501 170.763 39.019 170.142 38.398 C 169.556 37.778 169.142 37.019 168.867 36.227 C 168.625 35.296 168.488 34.365 168.488 33.469 M 177.208 32.056 C 177.208 31.746 177.139 31.436 177.036 31.126 C 176.967 30.815 176.794 30.574 176.622 30.333 C 176.415 30.091 176.174 29.885 175.898 29.747 C 175.554 29.575 175.209 29.505 174.83 29.505 C 174.45 29.505 174.106 29.575 173.761 29.747 C 173.485 29.885 173.21 30.057 173.003 30.298 C 172.796 30.54 172.624 30.815 172.52 31.126 C 172.417 31.436 172.348 31.746 172.314 32.056 L 177.208 32.056 M 158.388 23.508 L 162.111 22.922 L 162.111 26.783 L 166.592 26.783 L 166.592 29.885 L 162.111 29.885 L 162.111 34.504 C 162.077 35.158 162.214 35.813 162.525 36.365 C 162.8 36.813 163.352 37.054 164.214 37.054 C 164.627 37.054 165.04 37.019 165.42 36.951 C 165.834 36.882 166.213 36.778 166.592 36.64 L 167.109 39.536 C 166.627 39.743 166.109 39.88 165.592 40.018 C 164.938 40.156 164.248 40.225 163.559 40.225 C 162.697 40.259 161.835 40.122 161.042 39.812 C 160.422 39.57 159.871 39.157 159.457 38.674 C 159.043 38.157 158.767 37.537 158.595 36.882 C 158.423 36.123 158.354 35.33 158.388 34.572 L 158.388 23.508 M 143.326 33.469 C 143.291 32.435 143.498 31.401 143.843 30.436 C 144.153 29.609 144.635 28.885 145.256 28.23 C 145.842 27.644 146.497 27.196 147.255 26.921 C 148.013 26.61 148.806 26.472 149.599 26.472 C 151.46 26.472 152.942 27.058 154.011 28.196 C 155.08 29.333 155.631 31.022 155.631 33.228 C 155.631 33.435 155.631 33.676 155.596 33.952 C 155.562 34.227 155.562 34.434 155.562 34.641 L 147.117 34.641 C 147.186 35.365 147.566 36.054 148.186 36.468 C 148.944 36.951 149.84 37.192 150.737 37.158 C 151.391 37.158 152.081 37.089 152.735 36.985 C 153.287 36.882 153.839 36.709 154.39 36.468 L 154.907 39.501 C 154.666 39.639 154.39 39.708 154.114 39.812 C 153.735 39.915 153.356 40.018 152.977 40.053 C 152.563 40.122 152.15 40.191 151.667 40.259 C 151.219 40.294 150.737 40.329 150.254 40.329 C 149.185 40.363 148.151 40.191 147.152 39.812 C 146.324 39.501 145.601 39.019 144.98 38.398 C 144.394 37.778 143.981 37.019 143.705 36.227 C 143.429 35.296 143.291 34.365 143.326 33.469 M 152.046 32.056 C 152.046 31.746 151.977 31.436 151.874 31.126 C 151.805 30.815 151.633 30.574 151.46 30.333 C 151.253 30.091 151.012 29.885 150.737 29.747 C 150.392 29.575 150.047 29.505 149.668 29.505 C 149.289 29.505 148.944 29.575 148.599 29.747 C 148.324 29.885 148.083 30.057 147.876 30.298 C 147.669 30.54 147.497 30.815 147.393 31.126 C 147.29 31.436 147.221 31.746 147.186 32.056 L 152.046 32.056 M 129.194 27.23 C 129.987 27.024 130.814 26.851 131.641 26.714 C 132.675 26.542 133.744 26.472 134.778 26.472 C 135.708 26.438 136.639 26.61 137.535 26.921 C 138.225 27.162 138.845 27.575 139.293 28.127 C 139.741 28.678 140.051 29.333 140.224 30.022 C 140.43 30.815 140.5 31.643 140.5 32.47 L 140.5 39.88 L 136.811 39.88 L 136.811 32.953 C 136.811 31.746 136.639 30.919 136.329 30.402 C 136.019 29.919 135.433 29.643 134.571 29.643 C 134.296 29.643 134.019 29.643 133.709 29.678 C 133.399 29.678 133.158 29.712 132.916 29.747 L 132.916 39.88 L 129.194 39.88 L 129.194 27.23 M 126.575 30.091 C 126.23 30.022 125.851 29.919 125.403 29.85 C 124.92 29.747 124.437 29.712 123.955 29.712 C 123.679 29.712 123.403 29.747 123.093 29.781 C 122.852 29.816 122.611 29.85 122.369 29.919 L 122.369 39.95 L 118.647 39.95 L 118.647 27.472 C 119.405 27.196 120.198 26.989 120.99 26.817 C 121.99 26.576 123.024 26.472 124.024 26.507 C 124.265 26.507 124.506 26.542 124.747 26.542 C 125.024 26.542 125.299 26.576 125.61 26.644 C 125.885 26.679 126.161 26.714 126.471 26.783 C 126.712 26.817 126.954 26.886 127.195 26.989 L 126.575 30.091 M 103.446 33.469 C 103.412 32.435 103.619 31.401 103.963 30.436 C 104.274 29.609 104.756 28.885 105.377 28.23 C 105.963 27.644 106.617 27.196 107.376 26.921 C 108.134 26.61 108.927 26.472 109.72 26.472 C 111.581 26.472 113.063 27.058 114.132 28.196 C 115.2 29.333 115.752 31.022 115.752 33.194 C 115.752 33.4 115.752 33.641 115.717 33.918 C 115.682 34.193 115.682 34.4 115.682 34.607 L 107.238 34.607 C 107.307 35.33 107.686 36.02 108.306 36.434 C 109.065 36.916 109.961 37.158 110.857 37.123 C 111.512 37.123 112.202 37.054 112.856 36.951 C 113.408 36.847 113.959 36.675 114.476 36.468 L 114.993 39.501 C 114.752 39.639 114.476 39.708 114.2 39.812 C 113.821 39.915 113.442 40.018 113.063 40.053 C 112.649 40.122 112.236 40.191 111.753 40.259 C 111.305 40.294 110.823 40.329 110.34 40.329 C 109.271 40.363 108.238 40.191 107.238 39.812 C 106.411 39.501 105.687 39.019 105.066 38.398 C 104.481 37.778 104.067 37.019 103.791 36.227 C 103.584 35.296 103.446 34.4 103.446 33.469 M 112.202 32.056 C 112.202 31.746 112.132 31.436 112.029 31.126 C 111.96 30.815 111.788 30.574 111.616 30.333 C 111.409 30.091 111.167 29.885 110.892 29.747 C 110.547 29.575 110.202 29.505 109.823 29.505 C 109.444 29.505 109.099 29.575 108.755 29.747 C 108.479 29.885 108.203 30.057 107.996 30.298 C 107.789 30.54 107.617 30.815 107.514 31.126 C 107.41 31.436 107.341 31.746 107.307 32.056 L 112.202 32.056 M 97.415 33.262 C 97.415 30.85 96.519 29.678 94.76 29.678 C 94.381 29.678 94.002 29.712 93.623 29.816 C 93.313 29.885 93.002 30.022 92.727 30.195 L 92.727 36.951 C 92.899 36.985 93.141 37.019 93.416 37.054 C 93.692 37.089 94.002 37.089 94.347 37.089 C 95.243 37.158 96.105 36.778 96.656 36.054 C 97.173 35.227 97.449 34.262 97.415 33.262 M 101.206 33.4 C 101.206 34.365 101.068 35.33 100.723 36.261 C 100.448 37.089 99.999 37.812 99.414 38.433 C 98.793 39.053 98.069 39.536 97.277 39.846 C 96.346 40.191 95.381 40.329 94.381 40.329 C 93.933 40.329 93.451 40.294 92.968 40.259 C 92.486 40.225 92.003 40.156 91.52 40.122 C 91.072 40.053 90.625 39.984 90.176 39.88 C 89.728 39.812 89.349 39.708 89.039 39.57 L 89.039 21.13 L 92.761 20.544 L 92.761 27.093 C 93.175 26.921 93.623 26.783 94.071 26.679 C 94.554 26.576 95.036 26.542 95.519 26.542 C 96.38 26.542 97.208 26.679 98.001 27.058 C 98.69 27.368 99.31 27.851 99.793 28.437 C 100.31 29.092 100.689 29.816 100.896 30.608 C 101.103 31.47 101.206 32.435 101.206 33.4 M 85.489 39.467 C 84.696 39.673 83.869 39.846 83.041 39.95 C 82.007 40.122 80.939 40.191 79.905 40.191 C 78.94 40.225 78.009 40.053 77.113 39.743 C 76.423 39.467 75.837 39.053 75.355 38.502 C 74.907 37.916 74.597 37.261 74.424 36.537 C 74.218 35.744 74.149 34.883 74.149 34.055 L 74.149 26.783 L 77.871 26.783 L 77.871 33.641 C 77.871 34.848 78.043 35.71 78.354 36.227 C 78.664 36.744 79.25 37.019 80.112 37.019 C 80.387 37.019 80.663 37.019 80.973 36.985 C 81.283 36.951 81.525 36.951 81.766 36.882 L 81.766 26.783 L 85.489 26.783 L 85.489 39.467 M 63.774 31.539 C 64.153 31.126 64.497 30.712 64.911 30.298 C 65.29 29.85 65.67 29.437 66.049 29.023 C 66.428 28.575 66.772 28.196 67.083 27.817 C 67.393 27.437 67.703 27.093 67.945 26.817 L 72.356 26.817 C 71.46 27.817 70.599 28.816 69.771 29.747 C 68.91 30.678 68.013 31.643 67.014 32.608 C 67.565 33.125 68.082 33.641 68.565 34.227 C 69.082 34.848 69.599 35.469 70.116 36.158 C 70.599 36.813 71.081 37.502 71.494 38.157 C 71.908 38.812 72.253 39.432 72.529 39.984 L 68.254 39.984 C 67.979 39.536 67.668 39.088 67.324 38.57 C 66.979 38.054 66.6 37.537 66.256 36.985 C 65.877 36.468 65.463 35.951 65.015 35.469 C 64.635 35.021 64.222 34.607 63.774 34.262 L 63.774 40.018 L 60.051 40.018 L 60.051 21.13 L 63.774 20.544 L 63.774 31.539" id="path3003" style="fill: rgb(0, 0, 0);"/>
</svg>