<?xml version="1.0" encoding="utf-8"?>
<svg viewBox="0 0 200 60" xmlns="http://www.w3.org/2000/svg">
  <text style="fill: rgb(51, 51, 51); font-family: &quot;Fira Code&quot;; font-size: 7.1px; letter-spacing: 3.9px; white-space: pre;" x="10.194999694824219" y="38.733001708984375"><tspan> </tspan></text>
  <path d="M 34.234 4.002 C 34.123 4.012 33.767 4.048 33.446 4.073 C 26.055 4.74 19.132 8.728 14.747 14.857 C 12.305 18.266 10.743 22.131 10.153 26.226 C 9.945 27.656 9.919 28.078 9.919 30.016 C 9.919 31.954 9.945 32.376 10.153 33.806 C 11.567 43.578 18.521 51.788 27.952 54.83 C 29.641 55.374 31.422 55.745 33.446 55.969 C 34.234 56.056 37.643 56.056 38.431 55.969 C 41.926 55.583 44.886 54.718 47.806 53.228 C 48.254 52.999 48.341 52.938 48.28 52.887 C 48.239 52.856 46.331 50.297 44.042 47.205 L 39.881 41.584 L 34.667 33.867 C 31.798 29.624 29.438 26.155 29.417 26.155 C 29.397 26.15 29.377 29.578 29.366 33.765 C 29.351 41.095 29.346 41.39 29.254 41.563 C 29.122 41.813 29.021 41.914 28.807 42.026 C 28.644 42.108 28.502 42.123 27.734 42.123 L 26.853 42.123 L 26.619 41.975 C 26.467 41.879 26.355 41.751 26.279 41.604 L 26.172 41.375 L 26.182 31.176 L 26.197 20.972 L 26.355 20.773 C 26.436 20.667 26.609 20.529 26.731 20.463 C 26.94 20.361 27.022 20.351 27.901 20.351 C 28.939 20.351 29.112 20.392 29.382 20.687 C 29.458 20.768 32.281 25.021 35.659 30.143 C 39.037 35.266 43.655 42.26 45.924 45.694 L 50.045 51.935 L 50.253 51.798 C 52.1 50.597 54.053 48.888 55.599 47.108 C 58.89 43.328 61.012 38.72 61.724 33.806 C 61.933 32.376 61.958 31.954 61.958 30.016 C 61.958 28.078 61.933 27.656 61.724 26.226 C 60.31 16.455 53.356 8.244 43.925 5.203 C 42.262 4.663 40.491 4.292 38.507 4.068 C 38.019 4.017 34.657 3.961 34.234 4.002 Z M 44.886 19.741 C 45.131 19.863 45.329 20.097 45.4 20.341 C 45.441 20.473 45.451 23.302 45.441 29.675 L 45.426 38.821 L 43.813 36.349 L 42.196 33.877 L 42.196 27.228 C 42.196 22.93 42.216 20.514 42.247 20.397 C 42.328 20.112 42.506 19.888 42.75 19.756 C 42.959 19.649 43.035 19.639 43.834 19.639 C 44.586 19.639 44.719 19.649 44.886 19.741 Z" style=""/>
  <path d="M 45.718 52.154 C 45.54 52.266 45.484 52.342 45.642 52.256 C 45.754 52.19 45.937 52.052 45.907 52.048 C 45.891 52.048 45.805 52.098 45.718 52.154 Z M 45.367 52.383 C 45.276 52.454 45.276 52.46 45.387 52.403 C 45.449 52.373 45.499 52.337 45.499 52.327 C 45.499 52.287 45.474 52.297 45.367 52.383 Z M 45.113 52.536 C 45.021 52.607 45.021 52.612 45.133 52.556 C 45.194 52.526 45.245 52.49 45.245 52.48 C 45.245 52.439 45.22 52.449 45.113 52.536 Z M 44.859 52.688 C 44.767 52.76 44.767 52.765 44.879 52.709 C 44.94 52.678 44.991 52.642 44.991 52.633 C 44.991 52.592 44.965 52.602 44.859 52.688 Z M 44.472 52.892 C 44.278 52.994 44.289 53.034 44.482 52.938 C 44.569 52.892 44.635 52.846 44.635 52.836 C 44.635 52.8 44.629 52.806 44.472 52.892 Z" style=""/>
  <g id="Page-1" stroke="none" stroke-width="1" fill="none" fill-rule="evenodd" transform="matrix(0.53273, 0, 0, 0.491095, 74.573456, -0.388096)" style="">
    <g id="Black-Next.js" transform="translate(-247.000000, -138.000000)" fill="#000000" fill-rule="nonzero">
      <g id="next-black" transform="translate(247.000000, 138.000000)">
        <g id="EXT-+-Type-something">
          <path d="M48.9421964,32.6320058 L87.9011585,32.6320058 L87.9011585,35.7136421 L52.5134345,35.7136421 L52.5134345,58.9070103 L85.7908813,58.9070103 L85.7908813,61.9886466 L52.5134345,61.9886466 L52.5134345,87.4526941 L88.306981,87.4526941 L88.306981,90.5343303 L48.9421964,90.5343303 L48.9421964,32.6320058 Z M91.3912326,32.6320058 L95.5306221,32.6320058 L113.8738,58.0960534 L132.622801,32.6320058 L158.124498,0.286809811 L116.22757,60.7722112 L137.817329,90.5343303 L133.51561,90.5343303 L113.8738,63.4483691 L94.1508254,90.5343303 L89.9302715,90.5343303 L111.682358,60.7722112 L91.3912326,32.6320058 Z M139.359455,35.713642 L139.359455,32.6320058 L183.756439,32.6320058 L183.756439,35.7136421 L163.302983,35.7136421 L163.302983,90.5343303 L159.731745,90.5343303 L159.731745,35.7136421 L139.359455,35.713642 Z" id="EXT"/>
          <polygon id="Type-something" points="0.202923647 32.6320058 4.66697141 32.6320058 66.2235778 124.303087 40.785176 90.5343303 3.93649086 37.0111732 3.77416185 90.5343303 0.202923647 90.5343303"/>
        </g>
        <path d="M183.396622,86.5227221 C184.134938,86.5227221 184.673474,85.9601075 184.673474,85.233037 C184.673474,84.5059658 184.134938,83.9433513 183.396622,83.9433513 C182.666993,83.9433513 182.11977,84.5059658 182.11977,85.233037 C182.11977,85.9601075 182.666993,86.5227221 183.396622,86.5227221 Z M186.905793,83.1297235 C186.905793,85.2763149 188.460599,86.678523 190.727662,86.678523 C193.142388,86.678523 194.601647,85.233037 194.601647,82.7229099 L194.601647,73.8855335 L192.655968,73.8855335 L192.655968,82.7142542 C192.655968,84.1078073 191.952397,84.8521899 190.710289,84.8521899 C189.598473,84.8521899 188.842785,84.1597409 188.816727,83.1297235 L186.905793,83.1297235 Z M197.146664,83.0172011 C197.285642,85.2503478 199.153145,86.678523 201.932686,86.678523 C204.903321,86.678523 206.762139,85.1811034 206.762139,82.792155 C206.762139,80.9138876 205.702439,79.8752151 203.131364,79.2779777 L201.750279,78.9404092 C200.117298,78.5595622 199.457158,78.0488813 199.457158,77.1573541 C199.457158,76.0321243 200.482113,75.296398 202.019547,75.296398 C203.478806,75.296398 204.48639,76.0148135 204.668797,77.1660091 L206.562359,77.1660091 C206.44944,75.0626962 204.590622,73.5825873 202.045605,73.5825873 C199.309495,73.5825873 197.48542,75.0626962 197.48542,77.2871878 C197.48542,79.1221767 198.519063,80.2127835 200.786126,80.7407758 L202.401734,81.1302779 C204.060773,81.5197807 204.790402,82.091051 204.790402,83.0431676 C204.790402,84.1510859 203.643842,84.9560573 202.08035,84.9560573 C200.403939,84.9560573 199.240006,84.2030196 199.074971,83.0172011 L197.146664,83.0172011 Z" id=".JS"/>
      </g>
    </g>
  </g>
</svg>