<?xml version="1.0" encoding="utf-8"?>
<svg viewBox="0 0 200 60" xmlns="http://www.w3.org/2000/svg">
  <defs>
    <clipPath id="a">
      <path d="M239.03 226.605l-42.13 24.317c-1.578.91-2.546 2.59-2.546 4.406v48.668c0 1.817.968 3.496 2.546 4.406l42.133 24.336c1.575.907 3.517.907 5.09 0l42.126-24.336c1.57-.91 2.54-2.59 2.54-4.406v-48.668c0-1.816-.97-3.496-2.55-4.406l-42.12-24.317c-.79-.453-1.67-.68-2.55-.68-.88 0-1.76.227-2.55.68"/>
    </clipPath>
    <linearGradient id="b" x1="-.348" x2="1.251" gradientTransform="rotate(116.114 53.1 202.97) scale(86.48)" gradientUnits="userSpaceOnUse">
      <stop offset="0.3" stop-color="#3E863D"/>
      <stop offset="0.5" stop-color="#55934F"/>
      <stop offset="0.8" stop-color="#5AAD45"/>
    </linearGradient>
    <clipPath id="c">
      <path d="M195.398 307.086c.403.523.907.976 1.5 1.316l36.14 20.875 6.02 3.46c.9.52 1.926.74 2.934.665.336-.027.672-.09 1-.183l44.434-81.36c-.34-.37-.738-.68-1.184-.94l-27.586-15.93-14.582-8.39c-.414-.24-.863-.41-1.32-.53zm0 0"/>
    </clipPath>
    <linearGradient id="d" x1="-.456" x2=".582" gradientTransform="rotate(-36.46 550.846 -214.337) scale(132.798)" gradientUnits="userSpaceOnUse">
      <stop offset="0.57" stop-color="#3E863D"/>
      <stop offset="0.72" stop-color="#619857"/>
      <stop offset="1" stop-color="#76AC64"/>
    </linearGradient>
    <clipPath id="e">
      <path d="M241.066 225.953c-.707.07-1.398.29-2.035.652l-42.01 24.247 45.3 82.51c.63-.09 1.25-.3 1.81-.624l42.13-24.336c1.3-.754 2.19-2.03 2.46-3.476l-46.18-78.89c-.34-.067-.68-.102-1.03-.102-.14 0-.28.007-.42.02"/>
    </clipPath>
    <linearGradient id="f" x1=".043" x2=".984" gradientTransform="translate(192.862 279.652) scale(97.417)" gradientUnits="userSpaceOnUse">
      <stop offset="0.16" stop-color="#6BBF47"/>
      <stop offset="0.38" stop-color="#79B461"/>
      <stop offset="0.47" stop-color="#75AC64"/>
      <stop offset="0.7" stop-color="#659E5A"/>
      <stop offset="0.9" stop-color="#3E863D"/>
    </linearGradient>
  </defs>
  <text style="white-space: pre; fill: rgb(51, 51, 51); font-family: Arial, sans-serif; font-size: 6px;" x="28.43" y="49.453"> </text>
  <path d="M 21.306 52.721 C 21.128 52.833 21.072 52.909 21.23 52.823 C 21.342 52.757 21.525 52.619 21.495 52.615 C 21.479 52.615 21.393 52.665 21.306 52.721 Z M 20.955 52.95 C 20.864 53.021 20.864 53.027 20.975 52.97 C 21.037 52.94 21.087 52.904 21.087 52.894 C 21.087 52.854 21.062 52.864 20.955 52.95 Z M 20.701 53.103 C 20.609 53.174 20.609 53.179 20.721 53.123 C 20.782 53.093 20.833 53.057 20.833 53.047 C 20.833 53.006 20.808 53.016 20.701 53.103 Z M 20.447 53.255 C 20.355 53.327 20.355 53.332 20.467 53.276 C 20.528 53.245 20.579 53.209 20.579 53.2 C 20.579 53.159 20.553 53.169 20.447 53.255 Z M 20.06 53.459 C 19.866 53.561 19.877 53.601 20.07 53.505 C 20.157 53.459 20.223 53.413 20.223 53.403 C 20.223 53.367 20.217 53.373 20.06 53.459 Z" style=""/>
  <path fill="#689f63" d="M 170.468 53.853 C 170.032 53.853 169.598 53.738 169.216 53.518 L 165.228 51.157 C 164.632 50.824 164.923 50.706 165.119 50.638 C 165.913 50.36 166.075 50.297 166.922 49.816 C 167.011 49.765 167.128 49.783 167.219 49.837 L 170.283 51.655 C 170.393 51.715 170.55 51.715 170.653 51.655 L 182.598 44.76 C 182.708 44.697 182.78 44.569 182.78 44.437 L 182.78 30.653 C 182.78 30.516 182.708 30.393 182.595 30.324 L 170.655 23.435 C 170.545 23.37 170.398 23.37 170.287 23.435 L 158.35 30.324 C 158.234 30.39 158.16 30.519 158.16 30.65 L 158.16 44.434 C 158.16 44.566 158.232 44.691 158.346 44.754 L 161.617 46.644 C 163.393 47.532 164.478 46.485 164.478 45.433 L 164.478 31.828 C 164.478 31.634 164.631 31.484 164.825 31.484 L 166.338 31.484 C 166.526 31.484 166.682 31.634 166.682 31.828 L 166.682 45.439 C 166.682 47.807 165.39 49.167 163.145 49.167 C 162.454 49.167 161.91 49.167 160.391 48.42 L 157.257 46.614 C 156.483 46.165 156.005 45.328 156.005 44.434 L 156.005 30.65 C 156.005 29.753 156.483 28.916 157.257 28.474 L 169.214 21.576 C 169.971 21.148 170.975 21.148 171.726 21.576 L 183.668 28.477 C 184.439 28.922 184.921 29.756 184.921 30.653 L 184.921 44.437 C 184.921 45.331 184.439 46.165 183.668 46.614 L 171.726 53.512 C 171.343 53.733 170.91 53.846 170.467 53.846" style=""/>
  <path fill="#689f63" d="M 174.158 44.355 C 168.931 44.355 167.836 41.956 167.836 39.943 C 167.836 39.752 167.99 39.6 168.182 39.6 L 169.724 39.6 C 169.895 39.6 170.038 39.724 170.065 39.892 C 170.299 41.464 170.992 42.257 174.153 42.257 C 176.67 42.257 177.741 41.688 177.741 40.353 C 177.741 39.585 177.436 39.014 173.525 38.631 C 170.254 38.308 168.232 37.588 168.232 34.971 C 168.232 32.561 170.266 31.126 173.671 31.126 C 177.495 31.126 179.391 32.454 179.63 35.306 C 179.639 35.405 179.603 35.501 179.537 35.572 C 179.472 35.641 179.379 35.683 179.283 35.683 L 177.732 35.683 C 177.57 35.683 177.43 35.569 177.397 35.414 C 177.023 33.76 176.12 33.231 173.665 33.231 C 170.917 33.231 170.598 34.188 170.598 34.906 C 170.598 35.776 170.974 36.03 174.682 36.52 C 178.353 37.008 180.097 37.695 180.097 40.276 C 180.097 42.877 177.926 44.369 174.141 44.369 M 188.69 29.751 L 189.09 29.751 C 189.419 29.751 189.482 29.521 189.482 29.386 C 189.482 29.033 189.24 29.033 189.105 29.033 L 188.693 29.033 Z M 188.202 28.621 L 189.09 28.621 C 189.395 28.621 189.993 28.621 189.993 29.302 C 189.993 29.778 189.688 29.876 189.506 29.936 C 189.862 29.96 189.886 30.193 189.934 30.522 C 189.958 30.729 189.996 31.084 190.068 31.204 L 189.521 31.204 C 189.506 31.084 189.422 30.427 189.422 30.391 C 189.386 30.244 189.336 30.172 189.153 30.172 L 188.702 30.172 L 188.702 31.207 L 188.202 31.207 Z M 187.135 29.906 C 187.135 30.977 187.999 31.844 189.061 31.844 C 190.131 31.844 190.995 30.959 190.995 29.906 C 190.995 28.833 190.119 27.981 189.058 27.981 C 188.011 27.981 187.132 28.821 187.132 29.903 M 191.366 29.912 C 191.366 31.18 190.328 32.215 189.064 32.215 C 187.808 32.215 186.761 31.192 186.761 29.912 C 186.761 28.609 187.832 27.61 189.064 27.61 C 190.304 27.61 191.363 28.612 191.363 29.912" style=""/>
  <path fill="#333" fill-rule="evenodd" d="M 41.067 30.688 C 41.067 30.138 40.777 29.632 40.302 29.359 L 27.638 22.072 C 27.424 21.947 27.185 21.881 26.942 21.872 L 26.811 21.872 C 26.568 21.881 26.329 21.947 26.111 22.072 L 13.448 29.359 C 12.976 29.634 12.682 30.139 12.682 30.689 L 12.71 50.315 C 12.71 50.587 12.85 50.842 13.089 50.976 C 13.322 51.12 13.615 51.12 13.849 50.976 L 21.377 46.665 C 21.853 46.382 22.143 45.882 22.143 45.337 L 22.143 36.168 C 22.143 35.621 22.433 35.116 22.907 34.844 L 26.112 32.998 C 26.35 32.86 26.611 32.792 26.877 32.792 C 27.139 32.792 27.407 32.86 27.638 32.997 L 30.842 34.843 C 31.316 35.115 31.607 35.62 31.607 36.167 L 31.607 45.336 C 31.607 45.88 31.901 46.382 32.374 46.663 L 39.898 50.972 C 40.134 51.112 40.428 51.112 40.664 50.972 C 40.896 50.837 41.043 50.583 41.043 50.311 Z M 100.827 40.906 C 100.827 41.043 100.754 41.169 100.636 41.237 L 96.286 43.744 C 96.168 43.812 96.022 43.812 95.904 43.744 L 91.554 41.237 C 91.434 41.169 91.362 41.043 91.362 40.906 L 91.362 35.884 C 91.362 35.747 91.434 35.621 91.551 35.552 L 95.898 33.041 C 96.018 32.972 96.164 32.972 96.284 33.041 L 100.634 35.552 C 100.754 35.621 100.825 35.747 100.825 35.884 Z M 102.002 3.711 C 101.765 3.578 101.476 3.582 101.241 3.719 C 101.008 3.856 100.864 4.107 100.864 4.379 L 100.864 23.814 C 100.864 24.005 100.762 24.182 100.597 24.278 C 100.432 24.373 100.228 24.373 100.062 24.278 L 96.889 22.45 C 96.417 22.177 95.835 22.177 95.361 22.45 L 82.692 29.762 C 82.219 30.034 81.927 30.539 81.927 31.083 L 81.927 45.71 C 81.927 46.257 82.219 46.76 82.692 47.035 L 95.361 54.351 C 95.834 54.623 96.416 54.623 96.891 54.351 L 109.559 47.032 C 110.032 46.757 110.325 46.254 110.325 45.707 L 110.325 9.254 C 110.325 8.699 110.023 8.188 109.538 7.917 Z M 144.188 35.752 C 144.659 35.479 144.949 34.974 144.949 34.43 L 144.949 30.885 C 144.949 30.34 144.659 29.836 144.187 29.562 L 131.599 22.255 C 131.124 21.979 130.541 21.979 130.066 22.255 L 117.4 29.565 C 116.925 29.84 116.635 30.342 116.635 30.89 L 116.635 45.51 C 116.635 46.061 116.931 46.569 117.406 46.841 L 129.991 54.014 C 130.454 54.28 131.022 54.283 131.492 54.023 L 139.104 49.792 C 139.343 49.658 139.496 49.403 139.496 49.128 C 139.496 48.853 139.349 48.596 139.11 48.462 L 126.367 41.148 C 126.128 41.014 125.981 40.759 125.981 40.487 L 125.981 35.901 C 125.981 35.627 126.125 35.375 126.364 35.238 L 130.329 32.951 C 130.565 32.813 130.855 32.813 131.091 32.951 L 135.059 35.238 C 135.295 35.373 135.441 35.627 135.441 35.899 L 135.441 39.505 C 135.441 39.777 135.588 40.031 135.824 40.169 C 136.06 40.303 136.353 40.303 136.59 40.166 Z M 144.188 35.752" style=""/>
  <path fill="#689f63" fill-rule="evenodd" d="M 130.647 35.068 C 130.737 35.015 130.849 35.015 130.94 35.068 L 133.371 36.47 C 133.462 36.523 133.517 36.62 133.517 36.724 L 133.517 39.532 C 133.517 39.637 133.462 39.734 133.371 39.786 L 130.94 41.188 C 130.849 41.241 130.737 41.241 130.647 41.188 L 128.218 39.786 C 128.125 39.734 128.068 39.637 128.068 39.532 L 128.068 36.724 C 128.068 36.62 128.122 36.523 128.215 36.47 Z M 130.647 35.068" style=""/>
  <g clip-path="url(#a)" transform="matrix(0.298996, 0, 0, 0.298996, -10.730946, -45.426849)" style="">
    <path fill="url(#b)" d="M331.363 246.793l-118.715-58.19-60.87 124.174L270.49 370.97zm0 0"/>
  </g>
  <g clip-path="url(#c)" transform="matrix(0.298996, 0, 0, 0.298996, -10.730946, -45.426849)" style="">
    <path fill="url(#d)" d="M144.07 264.004l83.825 113.453 110.86-81.906-83.83-113.45zm0 0"/>
  </g>
  <g clip-path="url(#e)" transform="matrix(0.298996, 0, 0, 0.298996, -10.730946, -45.426849)" style="">
    <path fill="url(#f)" d="M197.02 225.934v107.43h91.683v-107.43zm0 0"/>
  </g>
</svg>