<?xml version="1.0" encoding="utf-8"?>
<svg viewBox="0 0 200 60" xmlns="http://www.w3.org/2000/svg">
  <text style="fill: rgb(51, 51, 51); font-family: &quot;Fira Code&quot;; font-size: 7.1px; letter-spacing: 3.9px; white-space: pre;" x="10.194999694824219" y="38.733001708984375"><tspan> </tspan></text>
  <text style="white-space: pre; fill: rgb(51, 51, 51); font-family: Arial, sans-serif; font-size: 6px;" x="52.842" y="48.886"> </text>
  <path d="M 45.718 52.154 C 45.54 52.266 45.484 52.342 45.642 52.256 C 45.754 52.19 45.937 52.052 45.907 52.048 C 45.891 52.048 45.805 52.098 45.718 52.154 Z M 45.367 52.383 C 45.276 52.454 45.276 52.46 45.387 52.403 C 45.449 52.373 45.499 52.337 45.499 52.327 C 45.499 52.287 45.474 52.297 45.367 52.383 Z M 45.113 52.536 C 45.021 52.607 45.021 52.612 45.133 52.556 C 45.194 52.526 45.245 52.49 45.245 52.48 C 45.245 52.439 45.22 52.449 45.113 52.536 Z M 44.859 52.688 C 44.767 52.76 44.767 52.765 44.879 52.709 C 44.94 52.678 44.991 52.642 44.991 52.633 C 44.991 52.592 44.965 52.602 44.859 52.688 Z M 44.472 52.892 C 44.278 52.994 44.289 53.034 44.482 52.938 C 44.569 52.892 44.635 52.846 44.635 52.836 C 44.635 52.8 44.629 52.806 44.472 52.892 Z" style=""/>
  <path d="M 50.084 39.727 C 52.062 39.522 53.562 37.817 53.493 35.772 C 53.425 33.726 51.721 32.089 49.674 32.089 L 49.538 32.089 C 47.424 32.157 45.787 33.93 45.856 36.045 C 45.924 37.067 46.333 37.954 46.947 38.567 C 44.628 43.137 41.083 46.477 35.764 49.274 C 32.15 51.183 28.399 51.865 24.649 51.387 C 21.581 50.978 19.193 49.615 17.693 47.365 C 15.512 44.023 15.307 40.408 17.148 36.795 C 18.443 34.203 20.49 32.294 21.785 31.339 C 21.512 30.453 21.103 28.952 20.899 27.861 C 11.011 35.021 12.034 44.705 15.035 49.274 C 17.284 52.684 21.853 54.797 26.899 54.797 C 28.263 54.797 29.626 54.661 30.991 54.32 C 39.719 52.615 46.333 47.433 50.084 39.727 Z M 62.085 31.271 C 56.903 25.202 49.266 21.86 40.537 21.86 L 39.446 21.86 C 38.832 20.633 37.537 19.815 36.105 19.815 L 35.969 19.815 C 33.855 19.883 32.218 21.656 32.286 23.769 C 32.355 25.816 34.059 27.452 36.105 27.452 L 36.241 27.452 C 37.741 27.384 39.037 26.429 39.582 25.134 L 40.81 25.134 C 45.992 25.134 50.902 26.634 55.334 29.566 C 58.744 31.817 61.199 34.748 62.563 38.295 C 63.722 41.159 63.654 43.955 62.426 46.341 C 60.517 49.956 57.312 51.933 53.084 51.933 C 50.356 51.933 47.766 51.115 46.402 50.501 C 45.651 51.183 44.287 52.274 43.333 52.956 C 46.265 54.32 49.266 55.07 52.13 55.07 C 58.676 55.07 63.518 51.455 65.358 47.842 C 67.336 43.886 67.199 37.067 62.085 31.271 Z M 27.445 40.886 C 27.513 42.932 29.217 44.568 31.264 44.568 L 31.4 44.568 C 33.514 44.5 35.15 42.727 35.082 40.613 C 35.014 38.567 33.309 36.931 31.264 36.931 L 31.127 36.931 C 30.991 36.931 30.786 36.931 30.65 36.999 C 27.854 32.362 26.695 27.316 27.104 21.86 C 27.376 17.768 28.74 14.223 31.127 11.29 C 33.104 8.767 36.923 7.539 39.514 7.471 C 46.743 7.335 49.811 16.336 50.015 19.951 C 50.902 20.155 52.403 20.633 53.425 20.974 C 52.607 9.927 45.787 4.198 39.242 4.198 C 33.104 4.198 27.445 8.631 25.195 15.178 C 22.058 23.906 24.103 32.294 27.922 38.908 C 27.581 39.385 27.376 40.135 27.445 40.886 Z" fill="#764ABC" style=""/>
  <text style="fill: rgb(51, 51, 51); font-family: Roboto; font-size: 36px; font-weight: 700; letter-spacing: -1.4px; white-space: pre;" x="87.066" y="42.875">Redux</text>
</svg>