<?xml version="1.0" encoding="utf-8"?>
<svg viewBox="0 0 200 60" xmlns="http://www.w3.org/2000/svg">
  <path transform="matrix(1, 0, 0, 1, 0, 0)" style="fill: rgb(51, 51, 51); white-space: pre;"/>
  <path transform="matrix(1, 0, 0, 1, 0, 0)" style="fill: rgb(51, 51, 51); white-space: pre;"/>
  <path d="M 45.718 52.154 C 45.54 52.266 45.484 52.342 45.642 52.256 C 45.754 52.19 45.937 52.052 45.907 52.048 C 45.891 52.048 45.805 52.098 45.718 52.154 Z M 45.367 52.383 C 45.276 52.454 45.276 52.46 45.387 52.403 C 45.449 52.373 45.499 52.337 45.499 52.327 C 45.499 52.287 45.474 52.297 45.367 52.383 Z M 45.113 52.536 C 45.021 52.607 45.021 52.612 45.133 52.556 C 45.194 52.526 45.245 52.49 45.245 52.48 C 45.245 52.439 45.22 52.449 45.113 52.536 Z M 44.859 52.688 C 44.767 52.76 44.767 52.765 44.879 52.709 C 44.94 52.678 44.991 52.642 44.991 52.633 C 44.991 52.592 44.965 52.602 44.859 52.688 Z M 44.472 52.892 C 44.278 52.994 44.289 53.034 44.482 52.938 C 44.569 52.892 44.635 52.846 44.635 52.836 C 44.635 52.8 44.629 52.806 44.472 52.892 Z" style=""/>
  <path d="M 50.084 39.727 C 52.062 39.522 53.562 37.817 53.493 35.772 C 53.425 33.726 51.721 32.089 49.674 32.089 L 49.538 32.089 C 47.424 32.157 45.787 33.93 45.856 36.045 C 45.924 37.067 46.333 37.954 46.947 38.567 C 44.628 43.137 41.083 46.477 35.764 49.274 C 32.15 51.183 28.399 51.865 24.649 51.387 C 21.581 50.978 19.193 49.615 17.693 47.365 C 15.512 44.023 15.307 40.408 17.148 36.795 C 18.443 34.203 20.49 32.294 21.785 31.339 C 21.512 30.453 21.103 28.952 20.899 27.861 C 11.011 35.021 12.034 44.705 15.035 49.274 C 17.284 52.684 21.853 54.797 26.899 54.797 C 28.263 54.797 29.626 54.661 30.991 54.32 C 39.719 52.615 46.333 47.433 50.084 39.727 Z M 62.085 31.271 C 56.903 25.202 49.266 21.86 40.537 21.86 L 39.446 21.86 C 38.832 20.633 37.537 19.815 36.105 19.815 L 35.969 19.815 C 33.855 19.883 32.218 21.656 32.286 23.769 C 32.355 25.816 34.059 27.452 36.105 27.452 L 36.241 27.452 C 37.741 27.384 39.037 26.429 39.582 25.134 L 40.81 25.134 C 45.992 25.134 50.902 26.634 55.334 29.566 C 58.744 31.817 61.199 34.748 62.563 38.295 C 63.722 41.159 63.654 43.955 62.426 46.341 C 60.517 49.956 57.312 51.933 53.084 51.933 C 50.356 51.933 47.766 51.115 46.402 50.501 C 45.651 51.183 44.287 52.274 43.333 52.956 C 46.265 54.32 49.266 55.07 52.13 55.07 C 58.676 55.07 63.518 51.455 65.358 47.842 C 67.336 43.886 67.199 37.067 62.085 31.271 Z M 27.445 40.886 C 27.513 42.932 29.217 44.568 31.264 44.568 L 31.4 44.568 C 33.514 44.5 35.15 42.727 35.082 40.613 C 35.014 38.567 33.309 36.931 31.264 36.931 L 31.127 36.931 C 30.991 36.931 30.786 36.931 30.65 36.999 C 27.854 32.362 26.695 27.316 27.104 21.86 C 27.376 17.768 28.74 14.223 31.127 11.29 C 33.104 8.767 36.923 7.539 39.514 7.471 C 46.743 7.335 49.811 16.336 50.015 19.951 C 50.902 20.155 52.403 20.633 53.425 20.974 C 52.607 9.927 45.787 4.198 39.242 4.198 C 33.104 4.198 27.445 8.631 25.195 15.178 C 22.058 23.906 24.103 32.294 27.922 38.908 C 27.581 39.385 27.376 40.135 27.445 40.886 Z" fill="#764ABC" style=""/>
  <path d="M 94.13240814208984 32.2578125 L 94.13240814208984 42.875 L 89.86092376708984 42.875 L 89.86092376708984 17.28125 L 99.31795501708984 17.28125 Q 103.60701751708984 17.28125 105.94490814208984 19.21484375 Q 108.28279876708984 21.1484375 108.28279876708984 24.734375 Q 108.28279876708984 26.720703125 107.25447845458984 28.1533203125 Q 106.22615814208984 29.5859375 104.25740814208984 30.447265625 Q 106.41951751708984 31.1328125 107.36873626708984 32.6884765625 Q 108.31795501708984 34.244140625 108.31795501708984 36.51171875 L 108.31795501708984 38.638671875 Q 108.31795501708984 39.763671875 108.59920501708984 40.8359375 Q 108.88045501708984 41.908203125 109.54842376708984 42.470703125 L 109.54842376708984 42.875 L 105.15389251708984 42.875 Q 104.45076751708984 42.294921875 104.24861907958984 41.046875 Q 104.04647064208984 39.798828125 104.04647064208984 38.603515625 L 104.04647064208984 36.546875 Q 104.04647064208984 34.578125 102.92147064208984 33.41796875 Q 101.79647064208984 32.2578125 99.82772064208984 32.2578125 Z M 94.13240814208984 28.830078125 L 99.08943939208984 28.830078125 Q 101.65584564208984 28.830078125 102.83358001708984 27.845703125 Q 104.01131439208984 26.861328125 104.01131439208984 24.83984375 Q 104.01131439208984 22.90625 102.85115814208984 21.8076171875 Q 101.69100189208984 20.708984375 99.31795501708984 20.708984375 L 94.13240814208984 20.708984375 Z M 119.04685974121094 43.244140625 Q 115.00389099121094 43.244140625 112.60447692871094 40.5986328125 Q 110.20506286621094 37.953125 110.20506286621094 33.8046875 L 110.20506286621094 33.1015625 Q 110.20506286621094 28.953125 112.58689880371094 26.2197265625 Q 114.96873474121094 23.486328125 118.55467224121094 23.50390625 Q 122.40428161621094 23.50390625 124.45213317871094 25.8330078125 Q 126.49998474121094 28.162109375 126.49998474121094 32.08203125 L 126.49998474121094 34.595703125 L 114.63475036621094 34.595703125 L 114.59959411621094 34.68359375 Q 114.70506286621094 36.951171875 115.92674255371094 38.392578125 Q 117.14842224121094 39.833984375 119.31053161621094 39.833984375 Q 121.03318786621094 39.833984375 122.26365661621094 39.412109375 Q 123.49412536621094 38.990234375 124.63670349121094 38.19921875 L 126.00779724121094 40.994140625 Q 124.93553161621094 41.943359375 123.16014099121094 42.59375 Q 121.38475036621094 43.244140625 119.04685974121094 43.244140625 Z M 118.55467224121094 26.931640625 Q 116.97264099121094 26.931640625 115.95310974121094 28.1884765625 Q 114.93357849121094 29.4453125 114.68748474121094 31.37890625 L 114.72264099121094 31.466796875 L 122.26365661621094 31.466796875 L 122.26365661621094 31.02734375 Q 122.26365661621094 29.216796875 121.34080505371094 28.07421875 Q 120.41795349121094 26.931640625 118.55467224121094 26.931640625 Z M 128.15857696533203 33.62890625 Q 128.15857696533203 29.076171875 130.10974884033203 26.2900390625 Q 132.06092071533203 23.50390625 135.59412384033203 23.50390625 Q 137.14099884033203 23.50390625 138.36267852783203 24.1279296875 Q 139.58435821533203 24.751953125 140.48084259033203 25.912109375 L 140.48084259033203 15.453125 L 144.75232696533203 15.453125 L 144.75232696533203 42.875 L 141.16638946533203 42.875 L 140.74451446533203 40.51953125 Q 139.83045196533203 41.85546875 138.54724884033203 42.5498046875 Q 137.26404571533203 43.244140625 135.55896759033203 43.244140625 Q 132.06092071533203 43.244140625 130.10974884033203 40.6953125 Q 128.15857696533203 38.146484375 128.15857696533203 33.998046875 Z M 132.43006134033203 33.998046875 Q 132.43006134033203 36.634765625 133.44080352783203 38.19921875 Q 134.45154571533203 39.763671875 136.64881134033203 39.763671875 Q 138.00232696533203 39.763671875 138.94275665283203 39.18359375 Q 139.88318634033203 38.603515625 140.48084259033203 37.53125 L 140.48084259033203 29.234375 Q 139.88318634033203 28.1796875 138.93396759033203 27.5908203125 Q 137.98474884033203 27.001953125 136.68396759033203 27.001953125 Q 134.50428009033203 27.001953125 133.46717071533203 28.8388671875 Q 132.43006134033203 30.67578125 132.43006134033203 33.62890625 Z M 159.68240356445312 40.09765625 Q 158.78591918945312 41.609375 157.41482543945312 42.4267578125 Q 156.04373168945312 43.244140625 154.25076293945312 43.244140625 Q 151.19216918945312 43.244140625 149.46951293945312 41.29296875 Q 147.74685668945312 39.341796875 147.74685668945312 35.228515625 L 147.74685668945312 23.85546875 L 152.00076293945312 23.85546875 L 152.00076293945312 35.263671875 Q 152.00076293945312 37.759765625 152.80935668945312 38.76171875 Q 153.61795043945312 39.763671875 155.25271606445312 39.763671875 Q 156.79959106445312 39.763671875 157.84548950195312 39.2099609375 Q 158.89138793945312 38.65625 159.48904418945312 37.6015625 L 159.48904418945312 23.85546875 L 163.76052856445312 23.85546875 L 163.76052856445312 42.875 L 160.03396606445312 42.875 Z M 173.39959716796875 30.376953125 L 176.91522216796875 23.85546875 L 181.81951904296875 23.85546875 L 175.84295654296875 33.259765625 L 181.99530029296875 42.875 L 177.14373779296875 42.875 L 173.46990966796875 36.1953125 L 169.79608154296875 42.875 L 164.90936279296875 42.875 L 171.06170654296875 33.259765625 L 165.08514404296875 23.85546875 L 169.93670654296875 23.85546875 Z" transform="matrix(1, 0, 0, 1, 0, 0)" style="fill: rgb(51, 51, 51); white-space: pre;"/>
</svg>