<?xml version="1.0" encoding="utf-8"?>
<svg viewBox="0 0 200 60" xmlns="http://www.w3.org/2000/svg">
  <defs>
    <linearGradient id="_Linear1" x1="0" y1="0" x2="1" y2="0" gradientUnits="userSpaceOnUse" gradientTransform="matrix(1,0,1.38778e-17,-1,0,-0.000650515)">
      <stop offset="0" style="stop-color:rgb(247,76,0);stop-opacity:1"/>
      <stop offset="0.33" style="stop-color:rgb(247,76,0);stop-opacity:1"/>
      <stop offset="1" style="stop-color:rgb(244,150,0);stop-opacity:1"/>
    </linearGradient>
    <linearGradient id="_Linear2" x1="0" y1="0" x2="1" y2="0" gradientUnits="userSpaceOnUse" gradientTransform="matrix(1,0,0,-1,0,1.23438e-06)">
      <stop offset="0" style="stop-color:rgb(204,58,0);stop-opacity:1"/>
      <stop offset="0.15" style="stop-color:rgb(204,58,0);stop-opacity:1"/>
      <stop offset="0.74" style="stop-color:rgb(247,76,0);stop-opacity:1"/>
      <stop offset="1" style="stop-color:rgb(247,76,0);stop-opacity:1"/>
    </linearGradient>
    <linearGradient id="_Linear3" x1="0" y1="0" x2="1" y2="0" gradientUnits="userSpaceOnUse" gradientTransform="matrix(1,1.32349e-23,1.32349e-23,-1,0,-9.1568e-07)">
      <stop offset="0" style="stop-color:rgb(204,58,0);stop-opacity:1"/>
      <stop offset="0.15" style="stop-color:rgb(204,58,0);stop-opacity:1"/>
      <stop offset="0.74" style="stop-color:rgb(247,76,0);stop-opacity:1"/>
      <stop offset="1" style="stop-color:rgb(247,76,0);stop-opacity:1"/>
    </linearGradient>
  </defs>
  <path d="M 59.34 29.519 L 57.061 28.107 C 57.042 27.885 57.02 27.663 56.996 27.443 L 58.959 25.615 C 59.158 25.429 59.247 25.154 59.193 24.888 C 59.141 24.621 58.953 24.401 58.698 24.307 L 56.191 23.372 C 56.128 23.155 56.062 22.94 55.995 22.723 L 57.557 20.553 C 57.717 20.333 57.749 20.046 57.646 19.795 C 57.542 19.545 57.315 19.365 57.049 19.321 L 54.406 18.891 C 54.303 18.69 54.196 18.493 54.088 18.299 L 55.199 15.859 C 55.313 15.611 55.29 15.324 55.138 15.096 C 54.987 14.869 54.731 14.737 54.458 14.747 L 51.774 14.841 C 51.635 14.667 51.494 14.496 51.35 14.327 L 51.968 11.715 C 52.03 11.45 51.952 11.17 51.759 10.978 C 51.567 10.786 51.289 10.707 51.022 10.769 L 48.41 11.387 C 48.241 11.244 48.069 11.102 47.895 10.963 L 47.989 8.279 C 47.999 8.008 47.867 7.75 47.641 7.599 C 47.414 7.447 47.127 7.425 46.878 7.537 L 44.443 8.648 C 44.246 8.54 44.049 8.433 43.851 8.33 L 43.42 5.687 C 43.376 5.419 43.197 5.192 42.945 5.09 C 42.695 4.986 42.405 5.02 42.187 5.179 L 40.017 6.741 C 39.803 6.673 39.588 6.608 39.373 6.546 L 38.439 4.038 C 38.344 3.783 38.124 3.595 37.857 3.542 C 37.591 3.49 37.318 3.579 37.131 3.777 L 35.303 5.739 C 35.083 5.715 34.86 5.693 34.639 5.674 L 33.226 3.39 C 33.084 3.159 32.831 3.018 32.557 3.018 C 32.283 3.018 32.032 3.159 31.892 3.39 L 30.48 5.674 C 30.258 5.693 30.036 5.715 29.816 5.739 L 27.988 3.777 C 27.803 3.579 27.528 3.49 27.261 3.542 C 26.994 3.596 26.774 3.783 26.68 4.038 L 25.745 6.546 C 25.528 6.608 25.313 6.674 25.101 6.741 L 22.931 5.179 C 22.711 5.019 22.423 4.985 22.173 5.09 C 21.923 5.194 21.742 5.422 21.699 5.687 L 21.268 8.33 C 21.069 8.433 20.871 8.54 20.676 8.648 L 18.241 7.537 C 17.994 7.424 17.706 7.447 17.478 7.599 C 17.252 7.75 17.119 8.008 17.13 8.279 L 17.223 10.963 C 17.05 11.102 16.878 11.244 16.708 11.387 L 14.097 10.769 C 13.831 10.707 13.552 10.786 13.359 10.978 C 13.166 11.171 13.088 11.449 13.15 11.715 L 13.763 14.327 C 13.62 14.496 13.479 14.667 13.34 14.841 L 10.656 14.747 C 10.386 14.74 10.127 14.869 9.976 15.096 C 9.824 15.321 9.802 15.61 9.914 15.859 L 11.025 18.299 C 10.917 18.495 10.81 18.692 10.707 18.891 L 8.064 19.321 C 7.796 19.364 7.57 19.544 7.467 19.795 C 7.364 20.047 7.397 20.335 7.556 20.553 L 9.118 22.723 C 9.05 22.938 8.984 23.153 8.922 23.372 L 6.415 24.307 C 6.16 24.402 5.973 24.622 5.92 24.888 C 5.867 25.155 5.956 25.428 6.154 25.615 L 8.117 27.443 C 8.092 27.663 8.071 27.885 8.052 28.107 L 5.773 29.519 C 5.542 29.662 5.401 29.914 5.401 30.189 C 5.401 30.464 5.542 30.713 5.773 30.854 L 8.052 32.266 C 8.071 32.488 8.092 32.71 8.117 32.93 L 6.154 34.758 C 5.956 34.943 5.867 35.218 5.92 35.485 C 5.973 35.752 6.16 35.972 6.415 36.066 L 8.922 37.001 C 8.984 37.218 9.05 37.433 9.118 37.649 L 7.556 39.82 C 7.397 40.041 7.363 40.328 7.467 40.578 C 7.572 40.829 7.799 41.009 8.07 41.052 L 10.712 41.482 C 10.816 41.682 10.921 41.88 11.03 42.074 L 9.919 44.509 C 9.806 44.756 9.83 45.043 9.981 45.272 C 10.133 45.499 10.391 45.631 10.661 45.62 L 13.34 45.526 C 13.48 45.701 13.621 45.872 13.764 46.041 L 13.151 48.653 C 13.089 48.918 13.167 49.193 13.36 49.385 C 13.552 49.578 13.831 49.656 14.098 49.593 L 16.709 48.981 C 16.879 49.125 17.051 49.265 17.224 49.403 L 17.131 52.088 C 17.12 52.359 17.253 52.617 17.479 52.768 C 17.704 52.919 17.993 52.942 18.242 52.828 L 20.677 51.717 C 20.873 51.826 21.071 51.932 21.269 52.036 L 21.7 54.678 C 21.744 54.947 21.923 55.175 22.174 55.28 C 22.425 55.385 22.714 55.351 22.932 55.193 L 25.103 53.63 C 25.317 53.698 25.532 53.764 25.751 53.827 L 26.686 56.334 C 26.781 56.589 27.001 56.777 27.267 56.829 C 27.534 56.883 27.807 56.794 27.994 56.594 L 29.822 54.632 C 30.042 54.657 30.265 54.679 30.486 54.698 L 31.898 56.978 C 32.041 57.208 32.294 57.349 32.563 57.349 C 32.832 57.349 33.087 57.208 33.233 56.978 L 34.645 54.698 C 34.867 54.679 35.089 54.657 35.309 54.632 L 37.137 56.594 C 37.322 56.794 37.597 56.883 37.864 56.829 C 38.131 56.777 38.351 56.589 38.445 56.334 L 39.38 53.827 C 39.597 53.764 39.812 53.698 40.029 53.63 L 42.199 55.193 C 42.419 55.351 42.707 55.385 42.957 55.28 C 43.208 55.177 43.388 54.949 43.431 54.678 L 43.862 52.036 C 44.062 51.932 44.259 51.825 44.454 51.717 L 46.889 52.828 C 47.137 52.942 47.424 52.919 47.652 52.768 C 47.878 52.616 48.01 52.359 48 52.088 L 47.907 49.403 C 48.08 49.265 48.252 49.125 48.422 48.981 L 51.033 49.593 C 51.298 49.656 51.578 49.578 51.77 49.385 C 51.963 49.192 52.042 48.915 51.979 48.653 L 51.367 46.041 C 51.51 45.872 51.651 45.701 51.789 45.526 L 54.473 45.62 C 54.744 45.631 55.003 45.499 55.154 45.272 C 55.305 45.046 55.329 44.757 55.215 44.509 L 54.104 42.074 C 54.212 41.877 54.319 41.68 54.422 41.482 L 57.064 41.052 C 57.333 41.009 57.559 40.829 57.661 40.578 C 57.765 40.327 57.732 40.038 57.573 39.82 L 56.01 37.649 C 56.078 37.435 56.144 37.22 56.206 37.001 L 58.714 36.066 C 58.969 35.97 59.157 35.751 59.209 35.485 C 59.263 35.218 59.173 34.945 58.974 34.758 L 57.012 32.93 C 57.036 32.71 57.057 32.487 57.077 32.266 L 59.356 30.854 C 59.587 30.711 59.727 30.458 59.727 30.189 C 59.727 29.92 59.587 29.665 59.356 29.519 Z M 44.077 48.469 C 43.204 48.281 42.654 47.42 42.841 46.548 C 43.027 45.676 43.884 45.12 44.757 45.307 C 45.629 45.494 46.184 46.356 45.998 47.228 C 45.811 48.1 44.954 48.656 44.082 48.469 Z M 43.303 43.225 C 42.509 43.055 41.725 43.561 41.559 44.357 L 40.749 48.137 C 38.252 49.268 35.453 49.902 32.546 49.902 C 29.555 49.902 26.731 49.243 24.187 48.059 L 23.377 44.279 C 23.207 43.485 22.427 42.976 21.633 43.147 L 18.295 43.864 C 17.677 43.225 17.101 42.545 16.571 41.829 L 32.821 41.829 C 33.005 41.829 33.127 41.796 33.127 41.628 L 33.127 35.866 C 33.127 35.698 33.005 35.665 32.821 35.665 L 28.071 35.665 L 28.071 32.026 L 33.205 32.026 C 33.674 32.026 35.713 32.16 36.362 34.767 C 36.566 35.567 37.016 38.173 37.322 39.009 C 37.627 39.943 38.869 41.812 40.193 41.812 L 48.292 41.812 C 48.384 41.812 48.482 41.802 48.586 41.783 C 48.025 42.546 47.407 43.268 46.748 43.943 L 43.332 43.211 Z M 20.823 48.391 C 19.951 48.579 19.094 48.024 18.907 47.15 C 18.721 46.278 19.275 45.416 20.148 45.229 C 21.02 45.043 21.877 45.598 22.064 46.47 C 22.25 47.342 21.696 48.204 20.823 48.391 Z M 14.645 23.419 C 15.006 24.234 14.639 25.189 13.825 25.553 C 13.01 25.915 12.059 25.547 11.696 24.733 C 11.333 23.919 11.702 22.962 12.516 22.599 C 13.331 22.237 14.281 22.605 14.645 23.419 Z M 12.75 27.905 L 16.228 26.358 C 16.971 26.028 17.308 25.158 16.976 24.416 L 16.26 22.796 L 19.073 22.796 L 19.073 35.464 L 13.414 35.464 C 12.922 33.73 12.656 31.902 12.656 30.013 C 12.656 29.291 12.695 28.58 12.77 27.879 Z M 28.014 26.674 L 28.014 22.936 L 34.711 22.936 C 35.057 22.936 37.156 23.337 37.156 24.904 C 37.156 26.207 35.547 26.674 34.223 26.674 L 27.993 26.674 Z M 52.363 30.038 C 52.363 30.535 52.344 31.025 52.308 31.513 L 50.268 31.513 C 50.064 31.513 49.982 31.647 49.982 31.847 L 49.982 32.781 C 49.982 34.983 48.741 35.465 47.651 35.585 C 46.612 35.702 45.465 35.151 45.325 34.515 C 44.712 31.073 43.694 30.341 42.085 29.064 C 44.084 27.797 46.161 25.923 46.161 23.405 C 46.161 20.7 44.307 18.997 43.046 18.161 C 41.27 16.993 39.308 16.76 38.778 16.76 L 17.7 16.76 C 20.56 13.572 24.449 11.308 28.81 10.478 L 31.297 13.084 C 31.857 13.671 32.787 13.697 33.379 13.132 L 36.161 10.474 C 41.976 11.559 46.908 15.182 49.764 20.182 L 47.858 24.481 C 47.53 25.223 47.865 26.095 48.606 26.422 L 52.271 28.053 C 52.334 28.702 52.368 29.361 52.368 30.025 Z M 31.284 8.285 C 31.928 7.667 32.951 7.693 33.563 8.338 C 34.176 8.982 34.155 10.004 33.51 10.622 C 32.866 11.24 31.843 11.214 31.231 10.569 C 30.618 9.925 30.639 8.903 31.284 8.285 Z M 50.182 23.497 C 50.543 22.682 51.496 22.313 52.311 22.677 C 53.126 23.038 53.494 23.995 53.131 24.81 C 52.77 25.626 51.817 25.994 51.002 25.631 C 50.187 25.269 49.819 24.312 50.182 23.497 Z" style=""/>
  <text style="font-family: Arial, sans-serif; font-size: 32px; font-weight: 700; white-space: pre;" x="67.629" y="42.029">Rust</text>
  <g id="Layer-1" transform="matrix(0.040827, 0, 0, 0.040827, 145.852509, 14.40134)" style="">
    <g transform="matrix(1,0,0,1,597.344,637.02)">
      <path d="M0,-279.559C-121.238,-279.559 -231.39,-264.983 -312.939,-241.23L-312.939,-38.329C-231.39,-14.575 -121.238,0 0,0C138.76,0 262.987,-19.092 346.431,-49.186L346.431,-230.37C262.987,-260.465 138.76,-279.559 0,-279.559" style="fill:rgb(165,43,0);fill-rule:nonzero;"/>
    </g>
    <g transform="matrix(1,0,0,1,1068.75,575.642)">
      <path d="M0,-53.32L-14.211,-82.761C-14.138,-83.879 -14.08,-84.998 -14.08,-86.121C-14.08,-119.496 -48.786,-150.256 -107.177,-174.883L-107.177,2.643C-79.932,-8.849 -57.829,-21.674 -42.021,-35.482C-46.673,-16.775 -62.585,21.071 -75.271,47.686C-96.121,85.752 -103.671,118.889 -102.703,120.53C-102.086,121.563 -94.973,110.59 -84.484,92.809C-60.074,58.028 -13.82,-8.373 -4.575,-25.287C5.897,-44.461 0,-53.32 0,-53.32" style="fill:rgb(165,43,0);fill-rule:nonzero;"/>
    </g>
    <g transform="matrix(1,0,0,1,149.064,591.421)">
      <path d="M0,-99.954C0,-93.526 1.293,-87.194 3.788,-80.985L-4.723,-65.835C-4.723,-65.835 -11.541,-56.989 0.465,-38.327C11.055,-21.872 64.1,42.54 92.097,76.271C104.123,93.564 112.276,104.216 112.99,103.187C114.114,101.554 105.514,69.087 81.631,32.046C70.487,12.151 57.177,-14.206 49.189,-33.675C71.492,-19.559 100.672,-6.755 135.341,4.265L135.341,-204.17C51.797,-177.622 0,-140.737 0,-99.954" style="fill:rgb(165,43,0);fill-rule:nonzero;"/>
    </g>
    <g transform="matrix(-65.8097,-752.207,-752.207,65.8097,621.707,796.312)">
      <path d="M0.991,-0.034L0.933,0.008C0.933,0.014 0.933,0.02 0.933,0.026L0.99,0.069C0.996,0.073 0.999,0.08 0.998,0.087C0.997,0.094 0.992,0.1 0.986,0.103L0.92,0.133C0.919,0.139 0.918,0.145 0.916,0.15L0.964,0.203C0.968,0.208 0.97,0.216 0.968,0.222C0.965,0.229 0.96,0.234 0.953,0.236L0.882,0.254C0.88,0.259 0.877,0.264 0.875,0.27L0.91,0.33C0.914,0.336 0.914,0.344 0.91,0.35C0.907,0.356 0.9,0.36 0.893,0.361L0.82,0.365C0.817,0.369 0.813,0.374 0.81,0.379L0.832,0.445C0.835,0.452 0.833,0.459 0.828,0.465C0.824,0.47 0.816,0.473 0.809,0.472L0.737,0.462C0.733,0.466 0.729,0.47 0.724,0.474L0.733,0.544C0.734,0.551 0.731,0.558 0.725,0.562C0.719,0.566 0.711,0.568 0.704,0.565L0.636,0.542C0.631,0.546 0.626,0.549 0.621,0.552L0.615,0.621C0.615,0.629 0.61,0.635 0.604,0.638C0.597,0.641 0.589,0.641 0.583,0.638L0.521,0.602C0.52,0.603 0.519,0.603 0.518,0.603L0.406,0.729C0.406,0.729 0.394,0.747 0.359,0.725C0.329,0.705 0.206,0.599 0.141,0.543C0.109,0.52 0.089,0.504 0.09,0.502C0.093,0.499 0.149,0.509 0.217,0.554C0.278,0.588 0.371,0.631 0.38,0.619C0.38,0.619 0.396,0.604 0.406,0.575C0.406,0.575 0.406,0.575 0.406,0.575C0.407,0.576 0.407,0.576 0.406,0.575C0.406,0.575 0.091,0.024 0.305,-0.531C0.311,-0.593 0.275,-0.627 0.275,-0.627C0.266,-0.639 0.178,-0.598 0.12,-0.566C0.055,-0.523 0.002,-0.513 0,-0.516C-0.001,-0.518 0.018,-0.533 0.049,-0.555C0.11,-0.608 0.227,-0.707 0.256,-0.726C0.289,-0.748 0.301,-0.73 0.301,-0.73L0.402,-0.615C0.406,-0.614 0.41,-0.613 0.415,-0.613L0.47,-0.658C0.475,-0.663 0.483,-0.664 0.49,-0.662C0.497,-0.66 0.502,-0.655 0.504,-0.648L0.522,-0.58C0.527,-0.578 0.533,-0.576 0.538,-0.574L0.602,-0.608C0.608,-0.612 0.616,-0.612 0.623,-0.608C0.629,-0.605 0.633,-0.599 0.633,-0.592L0.637,-0.522C0.642,-0.519 0.647,-0.515 0.652,-0.512L0.721,-0.534C0.728,-0.536 0.736,-0.535 0.741,-0.531C0.747,-0.526 0.75,-0.519 0.749,-0.512L0.738,-0.443C0.742,-0.439 0.746,-0.435 0.751,-0.431L0.823,-0.439C0.83,-0.44 0.837,-0.437 0.842,-0.432C0.847,-0.426 0.848,-0.419 0.845,-0.412L0.821,-0.347C0.824,-0.342 0.828,-0.337 0.831,-0.332L0.903,-0.327C0.911,-0.327 0.917,-0.322 0.92,-0.316C0.924,-0.31 0.924,-0.302 0.92,-0.296L0.883,-0.236C0.885,-0.231 0.887,-0.226 0.889,-0.22L0.959,-0.202C0.966,-0.2 0.972,-0.195 0.974,-0.188C0.976,-0.181 0.974,-0.174 0.969,-0.168L0.92,-0.116C0.921,-0.111 0.923,-0.105 0.924,-0.099L0.988,-0.068C0.995,-0.065 0.999,-0.059 1,-0.052C1.001,-0.045 0.997,-0.038 0.991,-0.034ZM0.406,0.575C0.406,0.575 0.406,0.575 0.406,0.575C0.406,0.575 0.406,0.575 0.406,0.575Z" style="fill:url(#_Linear1);fill-rule:nonzero;"/>
    </g>
    <g transform="matrix(1,0,0,1,450.328,483.629)">
      <path d="M0,167.33C-1.664,165.91 -2.536,165.068 -2.536,165.068L140.006,153.391C23.733,0 -69.418,122.193 -79.333,135.855L-79.333,167.33L0,167.33Z" style="fill-rule:nonzero;"/>
    </g>
    <g transform="matrix(1,0,0,1,747.12,477.333)">
      <path d="M0,171.974C1.663,170.554 2.536,169.71 2.536,169.71L-134.448,159.687C-18.12,0 69.421,126.835 79.335,140.497L79.335,171.974L0,171.974Z" style="fill-rule:nonzero;"/>
    </g>
    <g transform="matrix(-1.53e-05,-267.211,-267.211,1.53e-05,809.465,764.23)">
      <path d="M1,-0.586C1,-0.586 0.768,-0.528 0.524,-0.165L0.5,-0.064C0.5,-0.064 1.1,0.265 0.424,0.731C0.424,0.731 0.508,0.586 0.405,0.197C0.405,0.197 0.131,0.376 0.14,0.736C0.14,0.736 -0.275,0.391 0.324,-0.135C0.324,-0.135 0.539,-0.691 1,-0.736L1,-0.586Z" style="fill:url(#_Linear2);fill-rule:nonzero;"/>
    </g>
    <g transform="matrix(1,0,0,1,677.392,509.61)">
      <path d="M0,-92.063C0,-92.063 43.486,-139.678 86.974,-92.063C86.974,-92.063 121.144,-28.571 86.974,3.171C86.974,3.171 31.062,47.615 0,3.171C0,3.171 -37.275,-31.75 0,-92.063" style="fill-rule:nonzero;"/>
    </g>
    <g transform="matrix(1,0,0,1,727.738,435.209)">
      <path d="M0,0.002C0,18.543 -10.93,33.574 -24.408,33.574C-37.885,33.574 -48.814,18.543 -48.814,0.002C-48.814,-18.539 -37.885,-33.572 -24.408,-33.572C-10.93,-33.572 0,-18.539 0,0.002" style="fill:white;fill-rule:nonzero;"/>
    </g>
    <g transform="matrix(1,0,0,1,483.3,502.984)">
      <path d="M0,-98.439C0,-98.439 74.596,-131.467 94.956,-57.748C94.956,-57.748 116.283,28.178 33.697,33.028C33.697,33.028 -71.613,12.745 0,-98.439" style="fill-rule:nonzero;"/>
    </g>
    <g transform="matrix(1,0,0,1,520.766,436.428)">
      <path d="M0,0C0,19.119 -11.27,34.627 -25.173,34.627C-39.071,34.627 -50.344,19.119 -50.344,0C-50.344,-19.124 -39.071,-34.627 -25.173,-34.627C-11.27,-34.627 0,-19.124 0,0" style="fill:white;fill-rule:nonzero;"/>
    </g>
    <g transform="matrix(-1.53e-05,-239.021,-239.021,1.53e-05,402.161,775.388)">
      <path d="M0.367,0.129C-0.364,-0.441 0.223,-0.711 0.223,-0.711C0.259,-0.391 0.472,-0.164 0.472,-0.164C0.521,-0.548 0.525,-0.77 0.525,-0.77C1.203,-0.256 0.589,0.161 0.589,0.161C0.627,0.265 0.772,0.372 0.906,0.451L1,0.77C0.376,0.403 0.367,0.129 0.367,0.129Z" style="fill:url(#_Linear3);fill-rule:nonzero;"/>
    </g>
  </g>
</svg>