<?xml version="1.0" encoding="utf-8"?>
<svg viewBox="0 0 200 60" xmlns="http://www.w3.org/2000/svg">
  <text style="fill: rgb(51, 51, 51); font-family: &quot;Fira Code&quot;; font-size: 7.1px; letter-spacing: 3.9px; white-space: pre;" x="10.194999694824219" y="38.733001708984375"><tspan> </tspan></text>
  <text style="white-space: pre; fill: rgb(51, 51, 51); font-family: Arial, sans-serif; font-size: 6px;" x="52.842" y="48.886"> </text>
  <path d="M 45.718 52.154 C 45.54 52.266 45.484 52.342 45.642 52.256 C 45.754 52.19 45.937 52.052 45.907 52.048 C 45.891 52.048 45.805 52.098 45.718 52.154 Z M 45.367 52.383 C 45.276 52.454 45.276 52.46 45.387 52.403 C 45.449 52.373 45.499 52.337 45.499 52.327 C 45.499 52.287 45.474 52.297 45.367 52.383 Z M 45.113 52.536 C 45.021 52.607 45.021 52.612 45.133 52.556 C 45.194 52.526 45.245 52.49 45.245 52.48 C 45.245 52.439 45.22 52.449 45.113 52.536 Z M 44.859 52.688 C 44.767 52.76 44.767 52.765 44.879 52.709 C 44.94 52.678 44.991 52.642 44.991 52.633 C 44.991 52.592 44.965 52.602 44.859 52.688 Z M 44.472 52.892 C 44.278 52.994 44.289 53.034 44.482 52.938 C 44.569 52.892 44.635 52.846 44.635 52.836 C 44.635 52.8 44.629 52.806 44.472 52.892 Z" style=""/>
  <path d="M 10.607 43.828 L 21.339 43.828 L 18.013 53.869 L 10.607 53.869 Z M 10.607 24.736 L 27.66 24.736 L 24.352 34.777 L 10.607 34.777 Z M 10.607 5.644 L 33.981 5.644 L 30.656 15.685 L 10.607 15.685 Z M 44.558 5.644 L 71.239 5.644 L 71.239 15.685 L 41.234 15.685 Z M 34.912 34.774 L 38.238 24.733 L 71.239 24.733 L 71.239 34.774 Z M 31.917 43.823 L 71.239 43.823 L 71.239 53.864 L 28.59 53.864 Z" fill="#fd5750" style=""/>
  <path d="M 123.242 34.96 L 125.826 27.147 L 128.009 27.154 L 124.567 37.119 L 121.849 37.119 L 118.603 27.147 L 120.871 27.147 Z M 153.355 22.142 L 153.355 35.184 L 156.37 35.184 L 156.37 37.121 L 151.22 37.121 L 151.22 23.944 L 149.091 23.944 L 149.091 22.142 Z M 143.131 28.995 C 143.174 28.826 143.624 27.059 145.373 27.059 L 148.374 27.059 L 148.374 29.219 L 145.051 29.219 C 144.229 29.219 143.266 29.909 143.266 31.035 L 143.257 37.122 L 141.058 37.122 L 141.058 27.125 L 143.093 27.121 Z M 173.974 31.047 C 175.578 31.219 178.004 31.521 178.133 33.996 C 178.195 35.159 177.733 35.886 177.337 36.29 C 176.311 37.333 174.681 37.402 173.548 37.362 C 171.331 37.285 169.426 36.362 169.347 36.321 L 170.269 34.441 C 170.283 34.448 171.763 35.243 173.514 35.376 C 176.136 35.574 176.156 34.541 176.136 34.103 C 176.105 33.521 175.584 33.339 173.731 33.12 C 172.083 32.927 169.594 32.633 169.536 30.029 C 169.518 29.225 169.8 28.512 170.355 27.963 C 171.096 27.23 172.307 26.837 173.68 26.885 C 175.777 26.957 177.581 27.514 177.657 27.537 L 177.036 29.538 C 175.92 29.219 174.769 29.031 173.607 28.979 C 172.846 28.953 172.145 29.139 171.826 29.453 C 171.683 29.592 171.624 29.757 171.628 29.983 C 171.645 30.591 171.952 30.805 173.977 31.043 Z M 188.83 33.979 C 188.892 35.141 188.43 35.869 188.033 36.273 C 187.007 37.316 185.377 37.385 184.244 37.345 C 182.028 37.268 180.122 36.345 180.042 36.304 L 180.895 34.568 C 180.908 34.576 182.459 35.227 184.211 35.359 C 186.833 35.557 186.853 34.523 186.833 34.086 C 186.802 33.504 186.281 33.321 184.426 33.103 C 182.78 32.91 180.291 32.614 180.231 30.012 C 180.214 29.208 180.494 28.494 181.049 27.946 C 181.792 27.213 183.002 26.82 184.375 26.868 C 185.722 26.925 187.058 27.143 188.352 27.52 L 187.732 29.517 C 187.714 29.511 186.109 28.958 184.302 28.958 C 182.709 28.958 182.322 29.467 182.322 29.962 C 182.322 30.571 182.647 30.784 184.672 31.023 C 186.276 31.195 188.702 31.497 188.832 33.971 Z M 91.658 31.047 C 93.262 31.219 95.689 31.521 95.817 33.996 C 95.88 35.159 95.418 35.886 95.021 36.29 C 93.995 37.333 92.365 37.402 91.232 37.362 C 89.015 37.285 87.11 36.362 87.031 36.321 L 87.953 34.441 C 87.967 34.448 89.447 35.243 91.199 35.376 C 93.82 35.574 93.841 34.541 93.82 34.103 C 93.789 33.521 93.269 33.339 91.415 33.12 C 89.767 32.927 87.279 32.633 87.219 30.029 C 87.201 29.225 87.482 28.512 88.038 27.963 C 88.78 27.23 89.99 26.837 91.363 26.885 C 92.71 26.942 94.045 27.162 95.34 27.537 L 94.719 29.538 C 94.702 29.533 93.098 29.041 91.291 28.979 C 90.528 28.953 89.828 29.139 89.509 29.453 C 89.366 29.592 89.306 29.757 89.311 29.983 C 89.325 30.591 89.634 30.805 91.659 31.043 Z M 162.712 26.873 C 167.423 26.873 167.423 31.668 167.423 31.668 L 167.423 32.95 L 159.938 32.95 C 159.938 34.17 161.002 35.481 162.973 35.481 C 164.622 35.481 166.332 34.816 166.332 34.816 L 166.876 36.53 C 166.876 36.53 164.776 37.37 162.797 37.37 C 158.084 37.37 157.734 33.179 157.734 32.045 C 157.734 30.913 158.527 26.871 162.712 26.871 Z M 165.388 31.143 C 165.388 31.143 165.484 28.775 162.712 28.775 C 160.203 28.775 159.912 31.143 159.912 31.143 Z M 134.082 26.878 C 138.793 26.878 138.793 31.673 138.793 31.673 L 138.793 32.956 L 131.308 32.956 C 131.308 34.175 132.372 35.486 134.343 35.486 C 135.992 35.486 137.701 34.82 137.701 34.82 L 138.246 36.534 C 138.246 36.534 136.145 37.374 134.168 37.374 C 129.455 37.374 129.104 33.184 129.104 32.05 C 129.104 30.917 129.897 26.877 134.082 26.877 Z M 136.758 31.148 C 136.758 31.148 136.855 28.781 134.082 28.781 C 131.574 28.781 131.282 31.148 131.282 31.148 Z M 102.46 26.878 C 107.171 26.878 107.171 31.673 107.171 31.673 L 107.171 32.956 L 99.686 32.956 C 99.686 34.175 100.75 35.486 102.721 35.486 C 104.37 35.486 106.079 34.82 106.079 34.82 L 106.625 36.534 C 106.625 36.534 104.524 37.374 102.546 37.374 C 97.832 37.374 97.48 33.184 97.48 32.05 C 97.48 30.917 98.277 26.877 102.458 26.877 Z M 105.136 31.148 C 105.136 31.148 105.233 28.781 102.46 28.781 C 99.952 28.781 99.661 31.148 99.661 31.148 Z M 111.428 28.996 C 111.471 28.827 111.921 27.061 113.67 27.061 L 116.671 27.061 L 116.671 29.22 L 113.345 29.22 C 112.525 29.22 111.56 29.91 111.56 31.037 L 111.551 37.125 L 109.351 37.125 L 109.351 27.126 L 111.387 27.123 Z" style=""/>
</svg>