<?xml version="1.0" encoding="utf-8"?>
<svg viewBox="0 0 200 60" xmlns="http://www.w3.org/2000/svg" xmlns:xlink="http://www.w3.org/1999/xlink">
  <defs>
    <linearGradient x1="-15.614694" y1="-9.1082983" x2="-6.7410073" y2="-9.1082983" id="linearGradient2995" gradientUnits="userSpaceOnUse" gradientTransform="matrix(0, 4.235601, -4.235601, 0, 15.504544, 71.045636)" spreadMethod="pad" xlink:href="#linearGradient3027"/>
    <linearGradient x1="0" y1="0" x2="1" y2="0" id="linearGradient3027" gradientUnits="userSpaceOnUse" gradientTransform="matrix(-4.02e-6,-91.8907,-91.8907,4.02e-6,85.8809,161.434)" spreadMethod="pad">
      <stop id="stop3029" style="stop-color:#97d9f6;stop-opacity:1" offset="0"/>
      <stop id="stop3031" style="stop-color:#0f80cc;stop-opacity:1" offset="0.9202"/>
      <stop id="stop3033" style="stop-color:#0f80cc;stop-opacity:1" offset="1"/>
    </linearGradient>
  </defs>
  <path d="M 81.279 29.388 C 79.501 29.388 78.054 29.915 76.947 30.967 C 75.838 32.02 75.276 33.401 75.276 35.093 C 75.276 35.969 75.414 36.769 75.69 37.501 C 75.965 38.235 76.394 38.915 76.969 39.529 C 77.545 40.144 78.697 40.979 80.414 42.041 C 82.522 43.328 83.902 44.372 84.563 45.187 C 85.225 46.001 85.554 46.855 85.554 47.745 C 85.554 48.936 85.162 49.888 84.356 50.603 C 83.548 51.318 82.468 51.674 81.129 51.674 C 79.717 51.674 78.486 51.177 77.43 50.188 C 76.373 49.198 75.841 47.889 75.829 46.247 L 75.171 46.247 L 75.171 52.205 L 75.829 52.205 C 76.029 51.641 76.307 51.352 76.67 51.352 C 76.844 51.352 77.254 51.473 77.891 51.697 C 79.441 52.25 80.716 52.516 81.717 52.516 C 83.442 52.516 84.915 51.912 86.142 50.684 C 87.368 49.456 87.986 47.975 87.986 46.247 C 87.986 44.906 87.577 43.714 86.776 42.675 C 85.974 41.635 84.416 40.423 82.085 39.033 C 80.08 37.829 78.78 36.848 78.179 36.083 C 77.578 35.319 77.268 34.476 77.268 33.548 C 77.268 32.546 77.637 31.74 78.363 31.14 C 79.09 30.539 80.042 30.241 81.233 30.241 C 82.574 30.241 83.69 30.639 84.574 31.44 C 85.457 32.241 85.968 33.353 86.119 34.782 L 86.776 34.782 L 86.776 29.618 L 86.165 29.618 C 86.09 29.882 86.022 30.05 85.958 30.126 C 85.896 30.2 85.777 30.241 85.6 30.241 C 85.387 30.241 85.009 30.152 84.471 29.976 C 83.319 29.588 82.256 29.388 81.279 29.388 Z M 102.747 29.388 C 100.58 29.388 98.614 29.899 96.835 30.921 C 95.055 31.941 93.646 33.357 92.607 35.162 C 91.567 36.966 91.051 38.882 91.051 40.923 C 91.051 43.667 91.949 46.111 93.759 48.252 C 95.57 50.393 97.74 51.727 100.258 52.24 C 100.834 52.539 101.658 53.314 102.736 54.567 C 103.951 55.981 104.979 57.002 105.824 57.61 C 106.669 58.217 107.58 58.663 108.543 58.958 C 109.507 59.251 110.551 59.396 111.678 59.396 C 113.043 59.396 114.266 59.158 115.342 58.669 L 115.101 58.07 C 114.476 58.296 113.809 58.404 113.107 58.404 C 112.154 58.404 111.191 58.09 110.226 57.459 C 109.262 56.827 108.057 55.621 106.619 53.842 C 105.943 52.988 105.476 52.45 105.213 52.24 C 107.968 51.701 110.234 50.366 112 48.229 C 113.767 46.094 114.651 43.656 114.651 40.923 C 114.651 37.679 113.497 34.953 111.206 32.73 C 108.913 30.508 106.093 29.388 102.747 29.388 Z M 116.149 29.388 L 116.184 30.091 C 117.626 30.091 118.435 30.516 118.615 31.37 C 118.682 31.676 118.713 32.24 118.719 33.053 L 118.707 48.599 C 118.696 49.758 118.53 50.5 118.212 50.822 C 117.893 51.142 117.355 51.342 116.576 51.421 L 116.541 52.124 L 130.922 52.124 L 131.291 48.599 L 130.634 48.599 C 130.447 49.559 130.016 50.247 129.332 50.638 C 128.646 51.032 127.432 51.226 125.679 51.226 L 124.32 51.226 C 122.742 51.226 121.829 50.655 121.588 49.508 C 121.538 49.282 121.521 49.039 121.519 48.771 L 121.576 33.053 C 121.576 31.894 121.723 31.117 122.026 30.737 C 122.333 30.358 122.885 30.145 123.685 30.091 L 123.651 29.388 L 116.149 29.388 Z M 102.978 30.241 C 105.422 30.241 107.417 31.204 108.958 33.145 C 110.5 35.087 111.263 37.748 111.263 41.119 C 111.263 44.313 110.488 46.871 108.935 48.794 C 107.382 50.716 105.316 51.674 102.747 51.674 C 100.28 51.674 98.279 50.687 96.744 48.701 C 95.21 46.716 94.451 44.138 94.451 40.969 C 94.451 37.712 95.219 35.105 96.767 33.156 C 98.313 31.21 100.385 30.241 102.978 30.241 Z M 136.05 33.582 C 135.7 33.582 135.432 33.702 135.232 33.94 C 135.027 34.178 134.964 34.466 135.036 34.816 C 135.105 35.156 135.297 35.453 135.6 35.703 C 135.903 35.953 136.229 36.083 136.58 36.083 C 136.919 36.083 137.178 35.953 137.364 35.703 C 137.55 35.453 137.607 35.156 137.537 34.816 C 137.465 34.466 137.28 34.178 136.995 33.94 C 136.707 33.702 136.39 33.582 136.05 33.582 Z M 145.534 35.968 C 144.938 38.261 143.646 39.502 141.662 39.702 L 141.685 40.358 L 144.001 40.358 L 143.955 48.126 C 143.959 49.453 144 50.337 144.093 50.787 C 144.322 51.865 145.025 52.412 146.202 52.412 C 147.906 52.412 149.692 51.375 151.56 49.301 L 150.996 48.817 C 149.646 50.183 148.454 50.868 147.412 50.868 C 146.772 50.868 146.375 50.5 146.226 49.773 C 146.185 49.597 146.168 49.391 146.168 49.151 L 146.19 40.358 L 149.728 40.358 L 149.694 39.31 L 146.202 39.31 L 146.202 35.968 L 145.534 35.968 Z M 159.213 38.895 C 157.234 38.895 155.624 39.855 154.372 41.765 C 153.128 43.677 152.742 45.794 153.231 48.126 C 153.52 49.491 154.094 50.548 154.971 51.294 C 155.848 52.04 156.961 52.412 158.29 52.412 C 159.528 52.412 161.253 52.099 161.979 51.467 C 162.705 50.837 163.376 49.814 163.995 48.414 L 163.499 47.895 C 162.511 49.711 160.519 50.626 159.017 50.626 C 156.95 50.626 155.685 49.493 155.213 47.238 C 155.152 46.95 155.107 46.641 155.075 46.316 C 157.533 45.927 159.396 45.238 160.652 44.242 C 161.909 43.245 163.17 42.189 162.935 41.073 C 162.794 40.41 162.45 39.889 161.92 39.494 C 161.384 39.1 159.991 38.895 159.213 38.895 Z M 137.583 38.976 L 133.319 39.956 L 133.319 40.716 L 134.794 40.532 C 135.509 40.532 135.929 40.855 136.062 41.5 C 136.106 41.715 136.135 42.019 136.143 42.399 L 136.096 49.37 C 136.085 50.334 135.977 50.896 135.762 51.064 C 135.545 51.232 134.973 51.318 134.045 51.318 L 134.022 51.974 L 140.786 51.974 L 140.775 51.318 C 139.835 51.318 139.225 51.243 138.954 51.099 C 138.687 50.955 138.503 50.693 138.424 50.292 C 138.363 50.003 138.335 49.505 138.331 48.817 L 138.355 38.976 L 137.583 38.976 Z M 158.129 40.267 C 158.54 40.267 158.938 40.425 159.339 40.739 C 159.734 41.052 159.975 41.398 160.054 41.776 C 160.44 43.629 158.796 44.911 155.098 45.625 C 154.993 44.273 155.227 43.046 155.825 41.938 C 156.417 40.829 157.189 40.267 158.129 40.267 Z" id="SQLite" style="fill: rgb(0, 59, 87); fill-opacity: 1; fill-rule: nonzero; stroke: none;"/>
  <path d="M 71.728 2.771 L 35.035 2.771 C 32.577 2.771 30.564 4.783 30.564 7.242 L 30.564 47.709 C 30.564 50.167 32.577 52.18 35.035 52.18 L 59.202 52.18 C 58.928 40.155 63.034 16.819 71.728 2.771 Z" id="solid-background" style="fill: rgb(15, 128, 204); fill-opacity: 1; fill-rule: nonzero; stroke: none;"/>
  <path d="M 70.395 4.075 L 35.035 4.075 C 33.289 4.075 31.869 5.496 31.869 7.242 L 31.869 44.756 C 39.876 41.682 51.896 39.03 60.206 39.15 C 61.876 30.418 66.785 13.305 70.395 4.075 Z" id="gradient-background" style="fill: url(#linearGradient2995); fill-opacity: 1; fill-rule: nonzero; stroke: none;"/>
  <path d="M 80.287 1.446 C 77.775 -0.795 74.731 0.106 71.728 2.771 C 71.283 3.166 70.838 3.606 70.395 4.075 C 65.258 9.525 60.49 19.62 59.008 27.329 C 59.585 28.499 60.036 29.993 60.333 31.134 C 60.409 31.426 60.478 31.701 60.533 31.934 C 60.663 32.488 60.733 32.846 60.733 32.846 C 60.733 32.846 60.687 32.672 60.498 32.124 C 60.462 32.019 60.422 31.904 60.375 31.769 C 60.354 31.713 60.326 31.646 60.295 31.573 C 59.96 30.794 59.033 29.15 58.625 28.434 C 58.277 29.464 57.968 30.426 57.71 31.297 C 58.888 33.453 59.605 37.145 59.605 37.145 C 59.605 37.145 59.543 36.906 59.247 36.071 C 58.984 35.332 57.676 33.039 57.366 32.502 C 56.836 34.461 56.624 35.782 56.814 36.104 C 57.184 36.727 57.535 37.803 57.843 38.993 C 58.54 41.673 59.025 44.936 59.025 44.936 C 59.025 44.936 59.041 45.153 59.067 45.485 C 58.97 47.736 59.028 50.07 59.202 52.18 C 59.433 54.971 59.868 57.37 60.422 58.653 L 60.798 58.449 C 59.985 55.92 59.654 52.605 59.799 48.782 C 60.018 42.939 61.362 35.893 63.847 28.549 C 68.045 17.463 73.868 8.568 79.197 4.319 C 74.339 8.707 67.765 22.907 65.796 28.166 C 63.593 34.055 62.031 39.582 61.09 44.877 C 62.714 39.912 67.964 37.779 67.964 37.779 C 67.964 37.779 70.54 34.604 73.549 30.065 C 71.747 30.476 68.786 31.18 67.795 31.598 C 66.333 32.211 65.938 32.42 65.938 32.42 C 65.938 32.42 70.676 29.535 74.74 28.228 C 80.33 19.425 86.42 6.918 80.287 1.446" id="feather" style="fill: rgb(0, 59, 87); fill-opacity: 1; fill-rule: nonzero; stroke: none;"/>
</svg>