<?xml version="1.0" encoding="utf-8"?>
<svg viewBox="0 0 200 60" xmlns="http://www.w3.org/2000/svg">
  <path d="M 98.82 20.489 C 91.724 20.489 86.598 25.129 86.598 32.073 C 86.598 39.019 92.36 43.659 99.457 43.659 C 103.763 43.659 107.524 41.961 109.89 39.11 L 104.976 36.259 C 103.673 37.684 101.702 38.503 99.487 38.503 C 96.395 38.503 93.786 36.896 92.815 34.318 L 110.86 34.318 C 111.012 33.59 111.073 32.863 111.073 32.073 C 111.042 25.099 105.948 20.489 98.82 20.489 L 98.82 20.489 Z M 92.724 29.799 C 93.544 27.221 95.727 25.614 98.82 25.614 C 101.913 25.614 104.098 27.221 104.916 29.799 L 92.724 29.799 Z M 168.118 20.489 C 161.021 20.489 155.895 25.129 155.895 32.073 C 155.895 39.019 161.658 43.659 168.754 43.659 C 173.06 43.659 176.821 41.961 179.187 39.11 L 174.274 36.259 C 172.97 37.684 170.999 38.503 168.784 38.503 C 165.691 38.503 163.083 36.896 162.113 34.318 L 180.157 34.318 C 180.309 33.59 180.369 32.863 180.369 32.073 C 180.369 25.099 175.244 20.489 168.118 20.489 L 168.118 20.489 Z M 162.052 29.799 C 162.871 27.221 165.055 25.614 168.148 25.614 C 171.241 25.614 173.424 27.221 174.244 29.799 L 162.052 29.799 L 162.052 29.799 Z M 136.941 32.073 C 136.941 35.925 139.458 38.503 143.371 38.503 C 146.009 38.503 148.01 37.29 149.042 35.349 L 153.985 38.2 C 151.953 41.597 148.101 43.659 143.371 43.659 C 136.244 43.659 131.149 39.019 131.149 32.073 C 131.149 25.129 136.274 20.489 143.371 20.489 C 148.101 20.489 151.923 22.551 153.985 25.948 L 149.042 28.798 C 148.01 26.827 146.039 25.644 143.371 25.644 C 139.458 25.614 136.941 28.192 136.941 32.073 Z M 190.013 13.393 L 190.013 42.991 L 184.221 42.991 L 184.221 13.393 L 190.013 13.393 Z M 31.828 10.177 L 55.604 51.362 L 8.052 51.362 L 31.828 10.177 Z M 91.299 13.393 L 73.467 44.296 L 55.635 13.393 L 62.337 13.393 L 73.497 32.711 L 84.657 13.393 L 91.299 13.393 Z M 129.208 21.126 L 129.208 27.374 C 128.571 27.191 127.874 27.07 127.146 27.07 C 123.416 27.07 120.716 29.648 120.716 33.499 L 120.716 43.023 L 114.924 43.023 L 114.924 21.126 L 120.716 21.126 L 120.716 27.04 C 120.716 23.765 124.507 21.126 129.208 21.126 Z" style=""/>
</svg>