<?xml version="1.0" encoding="utf-8"?>
<svg viewBox="0 0 171 60" xmlns="http://www.w3.org/2000/svg">
  <path transform="matrix(1, 0, 0, 1, 0, 0)" style="fill: rgb(51, 51, 51); white-space: pre;"/>
  <path transform="matrix(1, 0, 0, 1, 0, 0)" style="fill: rgb(51, 51, 51); white-space: pre;"/>
  <path d="M 45.718 52.154 C 45.54 52.266 45.484 52.342 45.642 52.256 C 45.754 52.19 45.937 52.052 45.907 52.048 C 45.891 52.048 45.805 52.098 45.718 52.154 Z M 45.367 52.383 C 45.276 52.454 45.276 52.46 45.387 52.403 C 45.449 52.373 45.499 52.337 45.499 52.327 C 45.499 52.287 45.474 52.297 45.367 52.383 Z M 45.113 52.536 C 45.021 52.607 45.021 52.612 45.133 52.556 C 45.194 52.526 45.245 52.49 45.245 52.48 C 45.245 52.439 45.22 52.449 45.113 52.536 Z M 44.859 52.688 C 44.767 52.76 44.767 52.765 44.879 52.709 C 44.94 52.678 44.991 52.642 44.991 52.633 C 44.991 52.592 44.965 52.602 44.859 52.688 Z M 44.472 52.892 C 44.278 52.994 44.289 53.034 44.482 52.938 C 44.569 52.892 44.635 52.846 44.635 52.836 C 44.635 52.8 44.629 52.806 44.472 52.892 Z" style=""/>
  <g transform="matrix(0.283604, 0, 0, -0.283604, -3.848794, 72.455238)" style="">
    <g transform="translate(178.06 235.01)">
      <path d="m0 0-22.669-39.264-22.669 39.264h-75.491l98.16-170.02 98.16 170.02z" fill="#41b883"/>
    </g>
    <g transform="translate(178.06 235.01)">
      <path d="m0 0-22.669-39.264-22.669 39.264h-36.227l58.896-102.01 58.896 102.01z" fill="#34495e"/>
    </g>
  </g>
  <path d="M 82.70999682617187 20.20199951171875 L 85.39799682617188 20.20199951171875 L 89.26199682617188 35.96599951171875 Q 89.40199682617188 36.55399951171875 89.51399682617188 37.04399951171875 Q 89.62599682617187 37.53399951171875 89.68199682617188 37.89799951171875 Q 89.73799682617188 38.34599951171875 89.79399682617188 38.68199951171875 L 89.90599682617187 38.68199951171875 Q 89.96199682617187 38.34599951171875 90.04599682617187 37.89799951171875 Q 90.10199682617187 37.53399951171875 90.21399682617188 37.04399951171875 Q 90.32599682617187 36.55399951171875 90.46599682617187 35.96599951171875 L 94.41399682617188 20.20199951171875 L 97.04599682617187 20.20199951171875 L 91.55799682617187 40.36199951171875 L 88.02999682617188 40.36199951171875 Z M 103.31799224853516 24.96199951171875 L 103.31799224853516 34.92999951171875 Q 103.31799224853516 38.42999951171875 106.64999224853516 38.42999951171875 Q 110.03799224853516 38.42999951171875 110.03799224853516 34.92999951171875 L 110.03799224853516 24.96199951171875 L 112.55799224853516 24.96199951171875 L 112.55799224853516 34.92999951171875 Q 112.55799224853516 37.67399951171875 111.03199224853516 39.15799951171875 Q 109.50599224853515 40.64199951171875 106.64999224853516 40.64199951171875 Q 103.84999224853516 40.64199951171875 102.32399224853516 39.14399951171875 Q 100.79799224853515 37.64599951171875 100.79799224853515 34.92999951171875 L 100.79799224853515 24.96199951171875 Z M 117.31798767089843 30.56199951171875 Q 117.31798767089843 27.81799951171875 118.95598767089844 26.249999511718748 Q 120.59398767089844 24.68199951171875 123.47798767089844 24.68199951171875 Q 126.36198767089844 24.68199951171875 127.99998767089843 26.249999511718748 Q 129.63798767089844 27.81799951171875 129.63798767089844 30.56199951171875 L 129.63798767089844 33.38999951171875 L 119.83798767089844 33.38999951171875 L 119.83798767089844 34.62199951171875 Q 119.83798767089844 36.38599951171875 120.80398767089844 37.39399951171875 Q 121.76998767089844 38.40199951171875 123.47798767089844 38.40199951171875 Q 124.73798767089843 38.40199951171875 125.66198767089844 38.00999951171875 Q 126.58598767089843 37.61799951171875 127.03398767089844 36.86199951171875 L 129.55398767089844 36.86199951171875 Q 129.07798767089844 38.62599951171875 127.43998767089843 39.63399951171875 Q 125.80198767089844 40.64199951171875 123.47798767089844 40.64199951171875 Q 120.59398767089844 40.64199951171875 118.95598767089844 39.07399951171875 Q 117.31798767089843 37.50599951171875 117.31798767089843 34.76199951171875 Z M 119.83798767089844 31.289999511718747 L 127.11798767089844 31.289999511718747 L 127.11798767089844 30.56199951171875 Q 127.11798767089844 28.82599951171875 126.16598767089843 27.87399951171875 Q 125.21398767089843 26.921999511718752 123.47798767089844 26.921999511718752 Q 121.74198767089844 26.921999511718752 120.78998767089844 27.87399951171875 Q 119.83798767089844 28.82599951171875 119.83798767089844 30.56199951171875 Z" transform="matrix(1, 0, 0, 1, 0, 0)" style="fill: rgb(52, 73, 94); white-space: pre;"/>
  <path d="M 135.08799072265626 39.17699951171875 Q 135.08799072265626 38.59199951171875 135.44049072265625 38.23949951171875 Q 135.79299072265624 37.88699951171875 136.37799072265625 37.88699951171875 Q 136.96299072265626 37.88699951171875 137.31549072265625 38.23949951171875 Q 137.66799072265624 38.59199951171875 137.66799072265624 39.17699951171875 Q 137.66799072265624 39.77699951171875 137.31549072265625 40.14449951171875 Q 136.96299072265626 40.51199951171875 136.37799072265625 40.51199951171875 Q 135.79299072265624 40.51199951171875 135.44049072265625 40.14449951171875 Q 135.08799072265626 39.77699951171875 135.08799072265626 39.17699951171875 Z M 142.15299072265626 41.66699951171875 L 143.95299072265624 41.66699951171875 Q 144.89799072265626 41.66699951171875 145.47549072265625 41.09699951171875 Q 146.05299072265626 40.52699951171875 146.05299072265626 39.61199951171875 L 146.05299072265626 33.341999511718754 L 142.60299072265624 33.341999511718754 L 142.60299072265624 32.11199951171875 L 147.40299072265626 32.11199951171875 L 147.40299072265626 39.61199951171875 Q 147.40299072265626 40.33199951171875 147.14799072265626 40.93949951171875 Q 146.89299072265624 41.54699951171875 146.43549072265625 41.98949951171875 Q 145.97799072265624 42.43199951171875 145.34799072265625 42.67199951171875 Q 144.71799072265625 42.91199951171875 143.95299072265624 42.91199951171875 L 142.15299072265626 42.91199951171875 Z M 145.45299072265624 29.80199951171875 Q 145.45299072265624 29.39699951171875 145.72299072265625 29.14199951171875 Q 145.99299072265626 28.88699951171875 146.42799072265626 28.88699951171875 L 146.72799072265624 28.88699951171875 Q 147.16299072265625 28.88699951171875 147.43299072265626 29.14199951171875 Q 147.70299072265624 29.39699951171875 147.70299072265624 29.80199951171875 Q 147.70299072265624 30.20699951171875 147.43299072265626 30.44699951171875 Q 147.16299072265625 30.686999511718753 146.72799072265624 30.686999511718753 L 146.42799072265626 30.686999511718753 Q 145.99299072265626 30.686999511718753 145.72299072265625 30.45449951171875 Q 145.45299072265624 30.22199951171875 145.45299072265624 29.80199951171875 Z M 151.03299072265625 38.33699951171875 L 152.45799072265626 38.33699951171875 Q 152.54799072265624 38.77199951171875 153.01299072265624 39.04199951171875 Q 153.47799072265624 39.31199951171875 154.15299072265626 39.31199951171875 L 154.57299072265624 39.31199951171875 Q 155.38299072265625 39.31199951171875 155.83299072265626 38.97449951171875 Q 156.28299072265625 38.63699951171875 156.28299072265625 38.06699951171875 Q 156.28299072265625 37.09199951171875 154.90299072265626 36.88199951171875 L 153.65799072265625 36.70199951171875 Q 152.44299072265625 36.52199951171875 151.84299072265625 35.93699951171875 Q 151.24299072265626 35.35199951171875 151.24299072265626 34.30199951171875 Q 151.24299072265626 33.19199951171875 152.03049072265625 32.57699951171875 Q 152.81799072265625 31.96199951171875 154.22799072265624 31.96199951171875 L 154.64799072265626 31.96199951171875 Q 155.24799072265625 31.96199951171875 155.75799072265625 32.11199951171875 Q 156.26799072265624 32.26199951171875 156.65799072265625 32.53949951171875 Q 157.04799072265624 32.81699951171875 157.29549072265624 33.19949951171875 Q 157.54299072265624 33.58199951171875 157.61799072265626 34.04699951171875 L 156.19299072265625 34.04699951171875 Q 156.10299072265624 33.65699951171875 155.68299072265626 33.40949951171875 Q 155.26299072265624 33.16199951171875 154.64799072265626 33.16199951171875 L 154.22799072265624 33.16199951171875 Q 153.46299072265626 33.16199951171875 153.03549072265625 33.46199951171875 Q 152.60799072265624 33.76199951171875 152.60799072265624 34.36199951171875 Q 152.60799072265624 34.841999511718754 152.90049072265626 35.08949951171875 Q 153.19299072265625 35.33699951171875 153.85299072265624 35.42699951171875 L 155.09799072265625 35.60699951171875 Q 156.43299072265626 35.80199951171875 157.04049072265624 36.38699951171875 Q 157.64799072265626 36.97199951171875 157.64799072265626 38.05199951171875 Q 157.64799072265626 39.20699951171875 156.84549072265625 39.85949951171875 Q 156.04299072265624 40.51199951171875 154.57299072265624 40.51199951171875 L 154.15299072265626 40.51199951171875 Q 152.84799072265625 40.51199951171875 152.00049072265625 39.91949951171875 Q 151.15299072265626 39.32699951171875 151.03299072265625 38.33699951171875 Z" transform="matrix(1, 0, 0, 1, 0, 0)" style="fill: rgb(52, 73, 94); white-space: pre;"/>
</svg>