<svg id="visual" viewBox="0 0 900 675" width="900" height="675" xmlns="http://www.w3.org/2000/svg" xmlns:xlink="http://www.w3.org/1999/xlink" version="1.1"><rect x="0" y="0" width="900" height="675" fill="#2c2e32"></rect><path d="M0 480L21.5 451C43 422 86 364 128.8 355.3C171.7 346.7 214.3 387.3 257.2 420.2C300 453 343 478 385.8 496.3C428.7 514.7 471.3 526.3 514.2 517.5C557 508.7 600 479.3 642.8 451.5C685.7 423.7 728.3 397.3 771.2 401.2C814 405 857 439 878.5 456L900 473L900 676L878.5 676C857 676 814 676 771.2 676C728.3 676 685.7 676 642.8 676C600 676 557 676 514.2 676C471.3 676 428.7 676 385.8 676C343 676 300 676 257.2 676C214.3 676 171.7 676 128.8 676C86 676 43 676 21.5 676L0 676Z" fill="#408696"></path><path d="M0 558L21.5 540C43 522 86 486 128.8 464.7C171.7 443.3 214.3 436.7 257.2 444.5C300 452.3 343 474.7 385.8 483.7C428.7 492.7 471.3 488.3 514.2 488.5C557 488.7 600 493.3 642.8 505.7C685.7 518 728.3 538 771.2 531.3C814 524.7 857 491.3 878.5 474.7L900 458L900 676L878.5 676C857 676 814 676 771.2 676C728.3 676 685.7 676 642.8 676C600 676 557 676 514.2 676C471.3 676 428.7 676 385.8 676C343 676 300 676 257.2 676C214.3 676 171.7 676 128.8 676C86 676 43 676 21.5 676L0 676Z" fill="#6298a5"></path><path d="M0 418L21.5 434.5C43 451 86 484 128.8 486C171.7 488 214.3 459 257.2 469.2C300 479.3 343 528.7 385.8 524.7C428.7 520.7 471.3 463.3 514.2 451.8C557 440.3 600 474.7 642.8 503.3C685.7 532 728.3 555 771.2 563.7C814 572.3 857 566.7 878.5 563.8L900 561L900 676L878.5 676C857 676 814 676 771.2 676C728.3 676 685.7 676 642.8 676C600 676 557 676 514.2 676C471.3 676 428.7 676 385.8 676C343 676 300 676 257.2 676C214.3 676 171.7 676 128.8 676C86 676 43 676 21.5 676L0 676Z" fill="#80aab5"></path><path d="M0 590L21.5 572.7C43 555.3 86 520.7 128.8 521.2C171.7 521.7 214.3 557.3 257.2 575.8C300 594.3 343 595.7 385.8 584C428.7 572.3 471.3 547.7 514.2 536.3C557 525 600 527 642.8 536.2C685.7 545.3 728.3 561.7 771.2 569.7C814 577.7 857 577.3 878.5 577.2L900 577L900 676L878.5 676C857 676 814 676 771.2 676C728.3 676 685.7 676 642.8 676C600 676 557 676 514.2 676C471.3 676 428.7 676 385.8 676C343 676 300 676 257.2 676C214.3 676 171.7 676 128.8 676C86 676 43 676 21.5 676L0 676Z" fill="#9ebdc5"></path><path d="M0 513L21.5 522C43 531 86 549 128.8 548.7C171.7 548.3 214.3 529.7 257.2 535.3C300 541 343 571 385.8 573.3C428.7 575.7 471.3 550.3 514.2 534.3C557 518.3 600 511.7 642.8 508.7C685.7 505.7 728.3 506.3 771.2 507.5C814 508.7 857 510.3 878.5 511.2L900 512L900 676L878.5 676C857 676 814 676 771.2 676C728.3 676 685.7 676 642.8 676C600 676 557 676 514.2 676C471.3 676 428.7 676 385.8 676C343 676 300 676 257.2 676C214.3 676 171.7 676 128.8 676C86 676 43 676 21.5 676L0 676Z" fill="#bbd0d5"></path><path d="M0 587L21.5 583.2C43 579.3 86 571.7 128.8 566.3C171.7 561 214.3 558 257.2 563.3C300 568.7 343 582.3 385.8 590.3C428.7 598.3 471.3 600.7 514.2 595.5C557 590.3 600 577.7 642.8 583.5C685.7 589.3 728.3 613.7 771.2 612.7C814 611.7 857 585.3 878.5 572.2L900 559L900 676L878.5 676C857 676 814 676 771.2 676C728.3 676 685.7 676 642.8 676C600 676 557 676 514.2 676C471.3 676 428.7 676 385.8 676C343 676 300 676 257.2 676C214.3 676 171.7 676 128.8 676C86 676 43 676 21.5 676L0 676Z" fill="#d9e3e5"></path><path d="M0 655L21.5 652C43 649 86 643 128.8 644.2C171.7 645.3 214.3 653.7 257.2 652.2C300 650.7 343 639.3 385.8 633.3C428.7 627.3 471.3 626.7 514.2 630.2C557 633.7 600 641.3 642.8 639.7C685.7 638 728.3 627 771.2 616C814 605 857 594 878.5 588.5L900 583L900 676L878.5 676C857 676 814 676 771.2 676C728.3 676 685.7 676 642.8 676C600 676 557 676 514.2 676C471.3 676 428.7 676 385.8 676C343 676 300 676 257.2 676C214.3 676 171.7 676 128.8 676C86 676 43 676 21.5 676L0 676Z" fill="#f6f6f6"></path></svg>