<svg id="visual" viewBox="0 0 1400 350" width="1400" height="350" xmlns="http://www.w3.org/2000/svg" xmlns:xlink="http://www.w3.org/1999/xlink" version="1.1"><rect x="0" y="0" width="1400" height="350" fill="#2c2e32"></rect><path d="M0 249L33.3 233.8C66.7 218.7 133.3 188.3 200 183.8C266.7 179.3 333.3 200.7 400 217.7C466.7 234.7 533.3 247.3 600 256.7C666.7 266 733.3 272 800 267.5C866.7 263 933.3 248 1000 233.7C1066.7 219.3 1133.3 205.7 1200 207.7C1266.7 209.7 1333.3 227.3 1366.7 236.2L1400 245L1400 351L1366.7 351C1333.3 351 1266.7 351 1200 351C1133.3 351 1066.7 351 1000 351C933.3 351 866.7 351 800 351C733.3 351 666.7 351 600 351C533.3 351 466.7 351 400 351C333.3 351 266.7 351 200 351C133.3 351 66.7 351 33.3 351L0 351Z" fill="#408696"></path><path d="M0 289L33.3 279.7C66.7 270.3 133.3 251.7 200 240.7C266.7 229.7 333.3 226.3 400 230.3C466.7 234.3 533.3 245.7 600 250.2C666.7 254.7 733.3 252.3 800 252.5C866.7 252.7 933.3 255.3 1000 261.8C1066.7 268.3 1133.3 278.7 1200 275.2C1266.7 271.7 1333.3 254.3 1366.7 245.7L1400 237L1400 351L1366.7 351C1333.3 351 1266.7 351 1200 351C1133.3 351 1066.7 351 1000 351C933.3 351 866.7 351 800 351C733.3 351 666.7 351 600 351C533.3 351 466.7 351 400 351C333.3 351 266.7 351 200 351C133.3 351 66.7 351 33.3 351L0 351Z" fill="#6298a5"></path><path d="M0 216L33.3 224.7C66.7 233.3 133.3 250.7 200 251.8C266.7 253 333.3 238 400 243.2C466.7 248.3 533.3 273.7 600 271.5C666.7 269.3 733.3 239.7 800 233.7C866.7 227.7 933.3 245.3 1000 260.2C1066.7 275 1133.3 287 1200 291.7C1266.7 296.3 1333.3 293.7 1366.7 292.3L1400 291L1400 351L1366.7 351C1333.3 351 1266.7 351 1200 351C1133.3 351 1066.7 351 1000 351C933.3 351 866.7 351 800 351C733.3 351 666.7 351 600 351C533.3 351 466.7 351 400 351C333.3 351 266.7 351 200 351C133.3 351 66.7 351 33.3 351L0 351Z" fill="#80aab5"></path><path d="M0 306L33.3 296.8C66.7 287.7 133.3 269.3 200 269.5C266.7 269.7 333.3 288.3 400 298C466.7 307.7 533.3 308.3 600 302.3C666.7 296.3 733.3 283.7 800 277.8C866.7 272 933.3 273 1000 277.7C1066.7 282.3 1133.3 290.7 1200 294.7C1266.7 298.7 1333.3 298.3 1366.7 298.2L1400 298L1400 351L1366.7 351C1333.3 351 1266.7 351 1200 351C1133.3 351 1066.7 351 1000 351C933.3 351 866.7 351 800 351C733.3 351 666.7 351 600 351C533.3 351 466.7 351 400 351C333.3 351 266.7 351 200 351C133.3 351 66.7 351 33.3 351L0 351Z" fill="#9ebdc5"></path><path d="M0 265L33.3 269.7C66.7 274.3 133.3 283.7 200 283.5C266.7 283.3 333.3 273.7 400 276.7C466.7 279.7 533.3 295.3 600 296.7C666.7 298 733.3 285 800 276.8C866.7 268.7 933.3 265.3 1000 263.8C1066.7 262.3 1133.3 262.7 1200 263.2C1266.7 263.7 1333.3 264.3 1366.7 264.7L1400 265L1400 351L1366.7 351C1333.3 351 1266.7 351 1200 351C1133.3 351 1066.7 351 1000 351C933.3 351 866.7 351 800 351C733.3 351 666.7 351 600 351C533.3 351 466.7 351 400 351C333.3 351 266.7 351 200 351C133.3 351 66.7 351 33.3 351L0 351Z" fill="#bbd0d5"></path><path d="M0 304L33.3 302C66.7 300 133.3 296 200 293.2C266.7 290.3 333.3 288.7 400 291.3C466.7 294 533.3 301 600 305.2C666.7 309.3 733.3 310.7 800 308.2C866.7 305.7 933.3 299.3 1000 302.3C1066.7 305.3 1133.3 317.7 1200 317.2C1266.7 316.7 1333.3 303.3 1366.7 296.7L1400 290L1400 351L1366.7 351C1333.3 351 1266.7 351 1200 351C1133.3 351 1066.7 351 1000 351C933.3 351 866.7 351 800 351C733.3 351 666.7 351 600 351C533.3 351 466.7 351 400 351C333.3 351 266.7 351 200 351C133.3 351 66.7 351 33.3 351L0 351Z" fill="#d9e3e5"></path><path d="M0 339L33.3 337.5C66.7 336 133.3 333 200 333.7C266.7 334.3 333.3 338.7 400 337.8C466.7 337 533.3 331 600 327.8C666.7 324.7 733.3 324.3 800 326.2C866.7 328 933.3 332 1000 331.2C1066.7 330.3 1133.3 324.7 1200 319C1266.7 313.3 1333.3 307.7 1366.7 304.8L1400 302L1400 351L1366.7 351C1333.3 351 1266.7 351 1200 351C1133.3 351 1066.7 351 1000 351C933.3 351 866.7 351 800 351C733.3 351 666.7 351 600 351C533.3 351 466.7 351 400 351C333.3 351 266.7 351 200 351C133.3 351 66.7 351 33.3 351L0 351Z" fill="#f6f6f6"></path></svg>