<svg id="visual" viewBox="0 0 690 100" width="690" height="100" xmlns="http://www.w3.org/2000/svg" xmlns:xlink="http://www.w3.org/1999/xlink" version="1.1"><rect x="0" y="0" width="690" height="100" fill="#F6F6F6"></rect><path d="M0 69L3.7 69.5C7.3 70 14.7 71 22.2 65.3C29.7 59.7 37.3 47.3 44.8 44.7C52.3 42 59.7 49 67 50.7C74.3 52.3 81.7 48.7 89 45.2C96.3 41.7 103.7 38.3 111.2 39.3C118.7 40.3 126.3 45.7 133.8 45.5C141.3 45.3 148.7 39.7 156 43C163.3 46.3 170.7 58.7 178 58.7C185.3 58.7 192.7 46.3 200.2 43C207.7 39.7 215.3 45.3 222.8 47C230.3 48.7 237.7 46.3 245 47.3C252.3 48.3 259.7 52.7 267 50.8C274.3 49 281.7 41 289.2 36.8C296.7 32.7 304.3 32.3 311.8 36.3C319.3 40.3 326.7 48.7 334 54.3C341.3 60 348.7 63 356 58.2C363.3 53.3 370.7 40.7 378.2 34.8C385.7 29 393.3 30 400.8 34.7C408.3 39.3 415.7 47.7 423 50.7C430.3 53.7 437.7 51.3 445 52.3C452.3 53.3 459.7 57.7 467.2 56.2C474.7 54.7 482.3 47.3 489.8 47.8C497.3 48.3 504.7 56.7 512 57.2C519.3 57.7 526.7 50.3 534 44.8C541.3 39.3 548.7 35.7 556.2 33.8C563.7 32 571.3 32 578.8 34.2C586.3 36.3 593.7 40.7 601 42.7C608.3 44.7 615.7 44.3 623 46.7C630.3 49 637.7 54 645.2 54.8C652.7 55.7 660.3 52.3 667.8 53.2C675.3 54 682.7 59 686.3 61.5L690 64L690 101L686.3 101C682.7 101 675.3 101 667.8 101C660.3 101 652.7 101 645.2 101C637.7 101 630.3 101 623 101C615.7 101 608.3 101 601 101C593.7 101 586.3 101 578.8 101C571.3 101 563.7 101 556.2 101C548.7 101 541.3 101 534 101C526.7 101 519.3 101 512 101C504.7 101 497.3 101 489.8 101C482.3 101 474.7 101 467.2 101C459.7 101 452.3 101 445 101C437.7 101 430.3 101 423 101C415.7 101 408.3 101 400.8 101C393.3 101 385.7 101 378.2 101C370.7 101 363.3 101 356 101C348.7 101 341.3 101 334 101C326.7 101 319.3 101 311.8 101C304.3 101 296.7 101 289.2 101C281.7 101 274.3 101 267 101C259.7 101 252.3 101 245 101C237.7 101 230.3 101 222.8 101C215.3 101 207.7 101 200.2 101C192.7 101 185.3 101 178 101C170.7 101 163.3 101 156 101C148.7 101 141.3 101 133.8 101C126.3 101 118.7 101 111.2 101C103.7 101 96.3 101 89 101C81.7 101 74.3 101 67 101C59.7 101 52.3 101 44.8 101C37.3 101 29.7 101 22.2 101C14.7 101 7.3 101 3.7 101L0 101Z" fill="#2c2e32" stroke-linecap="round" stroke-linejoin="miter"></path></svg>