<svg id="visual" viewBox="0 0 900 100" width="900" height="100" xmlns="http://www.w3.org/2000/svg" xmlns:xlink="http://www.w3.org/1999/xlink" version="1.1"><rect x="0" y="0" width="900" height="100" fill="#2c2e32"></rect><path d="M0 45L21.5 43.7C43 42.3 86 39.7 128.8 34.8C171.7 30 214.3 23 257.2 24.3C300 25.7 343 35.3 385.8 40.2C428.7 45 471.3 45 514.2 40.5C557 36 600 27 642.8 23.3C685.7 19.7 728.3 21.3 771.2 25.8C814 30.3 857 37.7 878.5 41.3L900 45L900 101L878.5 101C857 101 814 101 771.2 101C728.3 101 685.7 101 642.8 101C600 101 557 101 514.2 101C471.3 101 428.7 101 385.8 101C343 101 300 101 257.2 101C214.3 101 171.7 101 128.8 101C86 101 43 101 21.5 101L0 101Z" fill="#363638"></path><path d="M0 32L21.5 34.8C43 37.7 86 43.3 128.8 43C171.7 42.7 214.3 36.3 257.2 35C300 33.7 343 37.3 385.8 37.5C428.7 37.7 471.3 34.3 514.2 35.3C557 36.3 600 41.7 642.8 41.8C685.7 42 728.3 37 771.2 34.5C814 32 857 32 878.5 32L900 32L900 101L878.5 101C857 101 814 101 771.2 101C728.3 101 685.7 101 642.8 101C600 101 557 101 514.2 101C471.3 101 428.7 101 385.8 101C343 101 300 101 257.2 101C214.3 101 171.7 101 128.8 101C86 101 43 101 21.5 101L0 101Z" fill="#58585a"></path><path d="M0 63L21.5 59.5C43 56 86 49 128.8 46.3C171.7 43.7 214.3 45.3 257.2 48.3C300 51.3 343 55.7 385.8 54.7C428.7 53.7 471.3 47.3 514.2 46C557 44.7 600 48.3 642.8 50.7C685.7 53 728.3 54 771.2 55C814 56 857 57 878.5 57.5L900 58L900 101L878.5 101C857 101 814 101 771.2 101C728.3 101 685.7 101 642.8 101C600 101 557 101 514.2 101C471.3 101 428.7 101 385.8 101C343 101 300 101 257.2 101C214.3 101 171.7 101 128.8 101C86 101 43 101 21.5 101L0 101Z" fill="#7d7d7e"></path><path d="M0 60L21.5 61.7C43 63.3 86 66.7 128.8 67.7C171.7 68.7 214.3 67.3 257.2 65.8C300 64.3 343 62.7 385.8 60.7C428.7 58.7 471.3 56.3 514.2 55.2C557 54 600 54 642.8 57.2C685.7 60.3 728.3 66.7 771.2 69.7C814 72.7 857 72.3 878.5 72.2L900 72L900 101L878.5 101C857 101 814 101 771.2 101C728.3 101 685.7 101 642.8 101C600 101 557 101 514.2 101C471.3 101 428.7 101 385.8 101C343 101 300 101 257.2 101C214.3 101 171.7 101 128.8 101C86 101 43 101 21.5 101L0 101Z" fill="#a4a4a4"></path><path d="M0 75L21.5 74.2C43 73.3 86 71.7 128.8 72.7C171.7 73.7 214.3 77.3 257.2 77.7C300 78 343 75 385.8 74.3C428.7 73.7 471.3 75.3 514.2 76.2C557 77 600 77 642.8 75.5C685.7 74 728.3 71 771.2 69.7C814 68.3 857 68.7 878.5 68.8L900 69L900 101L878.5 101C857 101 814 101 771.2 101C728.3 101 685.7 101 642.8 101C600 101 557 101 514.2 101C471.3 101 428.7 101 385.8 101C343 101 300 101 257.2 101C214.3 101 171.7 101 128.8 101C86 101 43 101 21.5 101L0 101Z" fill="#cccccc"></path><path d="M0 80L21.5 80.3C43 80.7 86 81.3 128.8 82.7C171.7 84 214.3 86 257.2 86C300 86 343 84 385.8 82.7C428.7 81.3 471.3 80.7 514.2 81.8C557 83 600 86 642.8 86.3C685.7 86.7 728.3 84.3 771.2 83.3C814 82.3 857 82.7 878.5 82.8L900 83L900 101L878.5 101C857 101 814 101 771.2 101C728.3 101 685.7 101 642.8 101C600 101 557 101 514.2 101C471.3 101 428.7 101 385.8 101C343 101 300 101 257.2 101C214.3 101 171.7 101 128.8 101C86 101 43 101 21.5 101L0 101Z" fill="#f6f6f6"></path></svg>